<?xml version="1.0" encoding="utf-8"?>
<!-- Generator: Adobe Illustrator 26.0.3, SVG Export Plug-In . SVG Version: 6.00 Build 0)  -->
<svg version="1.1" id="Layer_1" xmlns="http://www.w3.org/2000/svg" xmlns:xlink="http://www.w3.org/1999/xlink" x="0px" y="0px"
	 viewBox="0 0 500 500" style="enable-background:new 0 0 500 500;" xml:space="preserve">
<style type="text/css">
	.st0{display:none;}
	.st1{display:inline;fill:#EBEBEB;}
	.st2{fill:#EBEBEB;}
	.st3{fill:#FFFFFF;}
	.st4{fill:#E6E6E6;}
	.st5{display:inline;}
	.st6{fill:#407BFF;}
	.st7{opacity:0.9;fill:#FFFFFF;enable-background:new    ;}
	.st8{fill:#F5F5F5;}
	.st9{fill:#000033;}
	.st10{opacity:0.1;enable-background:new    ;}
	.st11{fill:#263238;}
	.st12{opacity:0.6;fill:#FFFFFF;enable-background:new    ;}
	.st13{opacity:0.2;fill:#FFFFFF;enable-background:new    ;}
</style>
<g id="Background_Complete">
	<g class="st0">
		<rect y="382.4" class="st1" width="500" height="0.2"/>
		<rect x="416.8" y="398.5" class="st1" width="33.1" height="0.2"/>
		<rect x="260.3" y="395.4" class="st1" width="12.9" height="0.2"/>
		<rect x="322.5" y="396.4" class="st1" width="27.1" height="0.2"/>
		<rect x="359.7" y="389.2" class="st1" width="56.1" height="0.2"/>
		<rect x="52.5" y="400.8" class="st1" width="26.5" height="0.2"/>
		<rect x="87.9" y="400.8" class="st1" width="23" height="0.2"/>
		<rect x="131" y="395.2" class="st1" width="60.8" height="0.2"/>
		<path class="st1" d="M237,337.8H43.9c-3.2,0-5.7-2.6-5.7-5.7V60.7c0-3.2,2.6-5.7,5.7-5.7H237c3.1,0,5.7,2.6,5.7,5.7v271.4
			C242.7,335.2,240.2,337.8,237,337.8z M43.9,55.2c-3,0-5.5,2.5-5.5,5.5v271.4c0,3,2.5,5.5,5.5,5.5H237c3,0,5.5-2.5,5.5-5.5V60.7
			c0-3-2.4-5.5-5.5-5.5H43.9z"/>
		<path class="st1" d="M453.3,337.8H260.2c-3.1,0-5.7-2.6-5.7-5.7V60.7c0-3.2,2.6-5.7,5.7-5.7h193.1c3.1,0,5.7,2.6,5.7,5.7v271.4
			C459,335.2,456.5,337.8,453.3,337.8z M260.2,55.2c-3,0-5.5,2.5-5.5,5.5v271.4c0,3,2.4,5.5,5.5,5.5h193.1c3,0,5.5-2.5,5.5-5.5V60.7
			c0-3-2.5-5.5-5.5-5.5H260.2z"/>
	</g>
	<g>
		<g>
			<g>
				<path class="st2" d="M467.1,194.2c3.2-11.3,2.7-22.8-1-33c2.9-4.1,5.1-8.7,6.6-13.7c6.7-23.2-5.5-47.4-27.5-56.1
					C441,61,419.4,34.4,388,25.3c-24.8-7.2-50.3-1.8-69.7,12.4c-4.9-5.1-11-9-18.3-11.1c-21.8-6.3-44.5,6.3-50.8,28.1
					c-1.1,3.6-1.6,7.3-1.6,10.9c-21.9,4.4-40.7,20.6-47.3,43.5c-5.9,20.6-0.7,41.8,12.2,57.1c-1.7,3-3,6.2-4,9.7
					c-7.1,24.7,7.1,50.6,31.9,57.7c8.1,2.4,16.4,2.4,24.1,0.5c9.1,12.5,22.3,22.3,38.3,26.9c20.6,6,41.7,2.2,58.5-8.4
					c7.5,17.5,13.7,43.7,0.4,69.5c48.3-4.7,83.3-51.1,76.1-93.6C451.5,222,462.5,209.9,467.1,194.2z"/>
				<path class="st3" d="M374.3,312.3c-0.3,0-0.5-0.1-0.7-0.3c-0.3-0.3-0.4-0.6-0.3-1c6.8-23.7,0.6-46.5-5.8-61.4l-3.2-7.6l-6.9,4.4
					c-10.5,6.6-22.5,10.2-34.8,10.2c-6.1,0-12.1-0.9-18-2.6c-14-4.1-26-12.4-34.6-24.3l-2.8-3.8l-4.6,1.1
					c-6.7,1.7-13.8,1.5-20.5-0.4c-10.2-2.9-18.6-9.6-23.7-18.9c-5.1-9.3-6.3-19.9-3.4-30.1c0.8-2.8,2-5.6,3.4-8.2l2.3-4.2l-3.1-3.7
					c-11.9-14.1-15.9-33-10.8-50.7c5.7-19.8,21.8-34.6,42-38.6l5.6-1.1l0.1-5.7c0-3.1,0.5-6.1,1.3-9.1c4.2-14.5,17.6-24.6,32.7-24.6
					c3.2,0,6.4,0.4,9.5,1.3c5.8,1.7,11,4.8,15.1,9.2l4.2,4.4l5-3.6c12.5-9.2,27.9-14.2,43.3-14.2c6.8,0,13.7,1,20.3,2.9
					c27.8,8,48.3,31.7,52.3,60.3l0.6,4l3.8,1.5c19,7.5,29.1,28,23.4,47.7c-1.2,4.2-3.1,8.1-5.6,11.7l-2.1,2.9l1.2,3.4
					c3.3,9.3,3.6,19.3,0.9,28.8c-3.8,13.2-13.1,24-25.6,29.7l-4.9,2.2l0.9,5.3c3,18.1-2.4,37.9-15,54.3
					c-10.5,13.7-25.1,23.8-41.2,28.5C374.5,312.3,374.4,312.3,374.3,312.3z M364.8,239.7c0.1,0,0.2,0,0.3,0c0.3,0.1,0.5,0.3,0.6,0.6
					l3.7,8.6c6.4,14.8,12.5,37.3,6.4,60.9c15-4.8,28.6-14.4,38.4-27.2c12.2-16,17.5-35.2,14.6-52.8l-1-6c-0.1-0.4,0.2-0.9,0.6-1.1
					l5.6-2.6c12-5.5,20.9-15.9,24.5-28.5c2.6-9.1,2.3-18.6-0.8-27.5l-1.4-3.9c-0.1-0.3-0.1-0.6,0.1-0.9l2.4-3.4
					c2.4-3.4,4.1-7.1,5.3-11.1c5.4-18.7-4.2-38.1-22.2-45.2l-4.3-1.7c-0.3-0.1-0.6-0.4-0.6-0.8l-0.6-4.6
					c-3.9-27.8-23.8-50.9-50.8-58.7c-6.5-1.9-13.1-2.8-19.8-2.8c-15,0-29.9,4.9-42.1,13.8l-5.7,4.1c-0.4,0.3-1,0.2-1.3-0.1l-4.9-5.1
					c-3.9-4.1-8.8-7.1-14.3-8.6c-2.9-0.8-5.9-1.3-8.9-1.3c-14.2,0-26.8,9.5-30.8,23.2c-0.8,2.8-1.2,5.6-1.2,8.5l-0.1,6.5
					c0,0.5-0.3,0.9-0.8,1l-6.4,1.3c-19.5,3.9-34.9,18.2-40.4,37.2c-4.9,17-1,35.3,10.4,48.8l3.6,4.2c0.3,0.3,0.3,0.8,0.1,1.1
					l-2.7,4.8c-1.4,2.5-2.5,5.1-3.2,7.8c-2.8,9.6-1.6,19.8,3.2,28.6c4.9,8.8,12.8,15.2,22.5,17.9c6.4,1.8,13.1,1.9,19.4,0.4l5.2-1.3
					c0.4-0.1,0.8,0.1,1,0.4l3.2,4.4c8.3,11.5,19.9,19.6,33.5,23.5c5.7,1.6,11.6,2.5,17.5,2.5c11.9,0,23.6-3.4,33.8-9.9l7.9-5
					C364.4,239.7,364.6,239.7,364.8,239.7z"/>
			</g>
			<g>
				<path class="st3" d="M304.2,146.2l-26.8-4.2l0.4-2.7c0.7-4.6,1.8-8.2,3.3-10.9s3.4-5,5.8-7.1c2.4-2,7.6-5.4,15.7-10.3
					c4.3-2.5,6.6-5.1,7-7.6c0.4-2.6,0-4.7-1.4-6.4c-1.3-1.7-3.5-2.8-6.6-3.2c-3.3-0.5-6.3,0.2-8.8,2c-2.5,1.9-4.5,5.5-6,10.9L260,99
					c2.5-9.9,7.4-17.5,14.8-22.6c7.3-5.2,17.6-6.7,30.7-4.6c10.2,1.6,18.2,5,23.8,10.3c7.7,7.1,10.7,15.5,9.2,25.1
					c-0.6,4-2.3,7.7-5.1,11.1s-8,7.2-15.7,11.5c-5.3,3-8.8,5.6-10.4,7.7C305.9,139.6,304.8,142.5,304.2,146.2z M275.4,149l28.7,4.5
					l-3.9,25.3l-28.7-4.5L275.4,149z"/>
			</g>
			<g>
				<path class="st3" d="M372.6,185.4l-14.9-12.1l1.2-1.5c2-2.5,4-4.4,5.9-5.5s3.9-1.9,6.1-2.2s6.6-0.6,13.2-0.7
					c3.5,0,5.9-0.7,7-2.2s1.6-2.9,1.4-4.4s-1.2-2.9-2.9-4.3c-1.9-1.5-3.9-2.1-6.1-1.9s-4.7,1.8-7.5,4.5l-13.7-14.2
					c5-5.2,10.7-8,17-8.6s13.1,2.1,20.4,8.1c5.7,4.6,9.3,9.5,10.9,14.7c2.1,7.1,1.1,13.3-3.3,18.6c-1.8,2.2-4.1,3.9-7,4.9
					c-2.9,1.1-7.5,1.6-13.6,1.5c-4.3-0.1-7.4,0.3-9.1,1C375.9,182,374.2,183.4,372.6,185.4z M354,176.9l15.9,12.9l-11.4,14.1
					L342.6,191L354,176.9z"/>
			</g>
			<g>
				<path class="st3" d="M376.8,98.8l-6.4-8.8l0.9-0.6c1.5-1.1,2.8-1.8,4-2.2c1.2-0.3,2.4-0.5,3.7-0.4c1.3,0.1,3.7,0.6,7.4,1.5
					c1.9,0.5,3.3,0.4,4.2-0.2c0.9-0.6,1.3-1.4,1.4-2.2c0.1-0.8-0.2-1.8-1-2.8c-0.8-1.1-1.8-1.7-3.1-1.9c-1.2-0.2-2.9,0.3-4.8,1.4
					l-5.5-9.8c3.5-2.1,7.1-2.9,10.6-2.2s6.9,3.1,10.1,7.4c2.5,3.4,3.8,6.6,3.9,9.7c0.2,4.2-1.3,7.5-4.5,9.8c-1.3,1-2.8,1.5-4.6,1.7
					c-1.8,0.2-4.3-0.2-7.7-1.2c-2.4-0.7-4.1-0.9-5.1-0.8C379.1,97.4,378,97.9,376.8,98.8z M367.8,91.4l6.9,9.4l-8.3,6.1l-6.9-9.4
					L367.8,91.4z"/>
			</g>
		</g>
		<g>
			<g>
				<path class="st4" d="M128.3,223.6c-8.3,0-16.6-2.3-24-6.7c-10.2-6.1-17.3-15.4-19.8-25.8c-8.2-0.6-15.8-4.6-20.9-11.2
					c-3.7-4.7-5.8-10.3-6.1-16.3c-2.2-1.5-4.1-3.3-5.7-5.4c-7.9-10.1-6.9-24.4,2.2-33.3c-3.8-16.3,2.2-33.3,15.4-43.6
					c10.3-8,23.5-10.9,36.3-7.8c1.5-3.4,3.8-6.3,6.7-8.6c4.7-3.7,10.5-5.2,16.4-4.5s11.2,3.7,14.8,8.4c1.1,1.4,2,3,2.8,4.6
					c12-2,24.1,2.7,31.6,12.4c6.7,8.6,8.7,19.9,5.4,30.3c1.3,1.1,2.5,2.4,3.5,3.7c8.5,10.9,6.5,26.8-4.4,35.3
					c-3.3,2.6-7.3,4.3-11.5,5c-2.2,8.2-6.9,15.2-13.5,20.4c-8.4,6.6-19.2,9.3-29.8,7.6c-0.1,9.7,2.2,22.9,13,32.3
					c0.2,0.2,0.3,0.5,0.2,0.8s-0.3,0.5-0.6,0.6C136.6,223,132.5,223.6,128.3,223.6z M95.7,74c-9,0-17.8,3-25.2,8.7
					c-12.8,10-18.6,26.6-14.7,42.4c0.1,0.3,0,0.6-0.2,0.8c-8.9,8.4-9.9,21.9-2.4,31.5c1.6,2.1,3.5,3.8,5.7,5.2
					c0.2,0.1,0.3,0.4,0.3,0.6c0.2,5.8,2.2,11.2,5.8,15.8c4.9,6.3,12.3,10.2,20.3,10.6c0.3,0,0.7,0.3,0.7,0.6
					c2.2,10.2,9.2,19.4,19.2,25.4c10.3,6.1,22.4,8,33.6,5.1c-10.7-10-12.7-23.7-12.5-33.5c0-0.2,0.1-0.4,0.3-0.6s0.4-0.2,0.6-0.2
					c10.4,1.9,21.1-0.6,29.5-7.1c6.5-5.1,11.1-12,13.1-20.1c0.1-0.3,0.3-0.5,0.6-0.6c4.1-0.6,8-2.2,11.2-4.7
					c10.3-8,12.1-22.8,4.1-33.1c-1.1-1.4-2.3-2.7-3.7-3.8c-0.2-0.2-0.4-0.6-0.2-0.8c3.3-10.1,1.5-21-5-29.4
					c-7.3-9.3-19-13.8-30.7-11.7c-0.4,0.1-0.7-0.1-0.9-0.5c-0.7-1.7-1.6-3.3-2.8-4.8c-3.4-4.4-8.3-7.2-13.8-7.8
					c-5.5-0.7-10.9,0.8-15.3,4.2c-2.9,2.2-5.1,5.2-6.5,8.6c-0.2,0.4-0.6,0.6-0.9,0.5C102.7,74.4,99.2,74,95.7,74z"/>
			</g>
			<g>
				<path class="st2" d="M100.6,140l-13.8,3.2l-0.3-1.4c-0.6-2.4-0.7-4.3-0.6-5.9c0.2-1.6,0.7-3.1,1.4-4.6c0.8-1.5,2.6-4.2,5.6-8.1
					c1.6-2.1,2.2-3.8,1.9-5.1s-0.9-2.3-1.9-2.8c-1-0.6-2.2-0.6-3.8-0.3c-1.7,0.4-3,1.3-3.9,2.7s-1.1,3.6-0.8,6.5L70,125.8
					c-0.7-5.3,0.2-9.9,2.7-13.8s7.2-6.7,14-8.3c5.3-1.2,9.8-1.1,13.6,0.3c5.1,1.9,8.2,5.4,9.4,10.4c0.5,2.1,0.4,4.2-0.3,6.4
					c-0.7,2.2-2.5,5.1-5.3,8.7c-2,2.5-3.2,4.4-3.5,5.8C100.1,136.5,100.2,138.1,100.6,140z M87.2,147l14.8-3.5l3.1,13.1L90.2,160
					L87.2,147z"/>
			</g>
			<g>
				<path class="st2" d="M135.8,110.8l-9.6-2.9l0.3-1c0.5-1.6,1.1-2.9,1.8-3.8s1.5-1.7,2.5-2.3s3.1-1.6,6.3-2.9
					c1.7-0.7,2.7-1.5,3-2.4s0.2-1.7-0.2-2.4s-1.1-1.2-2.2-1.5c-1.2-0.4-2.3-0.3-3.3,0.3c-1,0.6-1.9,1.8-2.8,3.7l-9.4-4.2
					c1.4-3.5,3.6-6,6.6-7.5c2.9-1.5,6.8-1.5,11.5-0.1c3.7,1.1,6.4,2.8,8.2,5c2.4,3,3.1,6.2,2.1,9.7c-0.4,1.4-1.2,2.7-2.4,3.8
					s-3.3,2.2-6.3,3.4c-2.1,0.8-3.5,1.6-4.2,2.3C136.7,108.5,136.1,109.5,135.8,110.8z M125.1,110.3l10.3,3.1l-2.8,9.1l-10.3-3.1
					L125.1,110.3z"/>
			</g>
		</g>
	</g>
</g>
<g id="Background_Simple" class="st0">
	<g class="st5">
		<path class="st6" d="M74.8,95.3c-95.7,62,62.1,91.1,102.8,124.7c29.2,24.1,18.8,76.3,63.9,105.4c47.4,30.5,117,30,152.3,12.8
			c53.3-26,52.2-142.6-34.6-184.2c-65.9-31.5-115.2,15.4-182.9-9.8C133.8,128.5,126.9,61.6,74.8,95.3z"/>
		<path class="st7" d="M74.8,95.3c-95.7,62,62.1,91.1,102.8,124.7c29.2,24.1,18.8,76.3,63.9,105.4c47.4,30.5,117,30,152.3,12.8
			c53.3-26,52.2-142.6-34.6-184.2c-65.9-31.5-115.2,15.4-182.9-9.8C133.8,128.5,126.9,61.6,74.8,95.3z"/>
	</g>
</g>
<g id="Shadow_1_">
	<ellipse id="_x3C_Path_x3E__372_" class="st8" cx="250" cy="416.2" rx="193.9" ry="11.3"/>
</g>
<g id="Question_Marks">
	<g>
		<g>
			<path class="st6" d="M157.6,247.4l-0.9-0.4c0.8-1.9,1.3-3.6,1.4-5l1,0.1C159,243.7,158.5,245.4,157.6,247.4z M157.2,236
				c-1.9-4.3-5.6-6.9-10.4-7.8l0.2-1c5.2,0.9,9.1,3.8,11.2,8.4L157.2,236z"/>
			<path class="st6" d="M152,257.5l-9.8,4.5l-0.4-1c-0.8-1.7-1.2-3.1-1.3-4.3c-0.1-1.2,0-2.4,0.4-3.6c0.4-1.2,1.4-3.5,3-6.9
				c0.9-1.8,1.1-3.1,0.7-4.1c-0.4-0.9-1.1-1.6-1.9-1.8s-1.8-0.1-2.9,0.4c-1.2,0.6-2.1,1.4-2.5,2.6c-0.4,1.2-0.3,2.8,0.4,4.9
				l-10.6,3.3c-1.3-3.9-1.3-7.4,0-10.8c1.3-3.3,4.4-6.1,9.2-8.3c3.8-1.7,7.2-2.3,10.2-1.8c4.1,0.7,7,2.8,8.6,6.4
				c0.7,1.5,0.9,3.1,0.7,4.8s-1.1,4.1-2.7,7.3c-1.1,2.2-1.7,3.8-1.8,4.8C151.1,254.9,151.4,256.1,152,257.5z M143,264.7l10.5-4.8
				l4.2,9.3l-10.5,4.8L143,264.7z"/>
		</g>
		<g>
			<path class="st6" d="M127.6,279.7l-5,6.8l-0.7-0.5c-1.2-0.9-2-1.7-2.5-2.5s-0.9-1.7-1.1-2.6s-0.4-2.9-0.6-5.8
				c-0.1-1.5-0.4-2.6-1.1-3c-0.7-0.5-1.3-0.7-2-0.5c-0.7,0.1-1.3,0.6-1.8,1.4c-0.6,0.9-0.9,1.8-0.7,2.7s0.9,2,2.2,3.2l-6,6.3
				c-2.4-2.1-3.8-4.6-4.1-7.3c-0.4-2.8,0.7-5.8,3.1-9.1c1.9-2.6,4-4.3,6.3-5.1c3.1-1.1,5.8-0.7,8.3,1.1c1,0.8,1.8,1.8,2.3,3
				s0.8,3.2,0.9,6c0.1,1.9,0.3,3.2,0.6,4C126.1,278.3,126.7,279,127.6,279.7z M124.3,288.1l5.4-7.3l6.4,4.7l-5.4,7.3L124.3,288.1z"
				/>
		</g>
	</g>
</g>
<g id="Character_1_">
	<g>
		<path class="st6" d="M234.1,412.6c-1.6,0-3.2-0.9-4-2.4c-4-7.8-9.1-16.9-18.1-26.7c-1.1-1.1-1.4-2.8-1-4.3
			c3.4-11.7,8.7-27.7,8.7-27.9c0.8-2.4,3.3-3.6,5.7-2.9c2.4,0.8,3.6,3.3,2.9,5.7c-0.1,0.1-4.6,13.9-7.9,25.2
			c8.4,9.5,13.5,18.5,17.8,26.8c1.1,2.2,0.3,4.9-1.9,6C235.5,412.5,234.8,412.6,234.1,412.6z"/>
		<polygon class="st9" points="241.6,416.2 206.8,416.2 225.2,405.8 240.7,406.4 		"/>
		
			<ellipse transform="matrix(0.9545 -0.2983 0.2983 0.9545 -94.0181 84.801)" class="st9" cx="230.8" cy="350.4" rx="30" ry="24.9"/>
		<path class="st9" d="M151.6,334c-1.8,0-3.4-1-4.1-2.8c-0.9-2.3,0.1-4.9,2.4-5.9c2.6-1.1,3-3.7,3-3.8c0.2-2,1.7-3.6,3.7-4
			c1.1-0.2,2.1-0.5,3.3-0.8c6.1-1.8,13.6-4,37.3,2.7c23.4-13.1,23.6-37.6,23.6-38.7c0-2.5,2-4.5,4.5-4.5l0,0c2.5,0,4.5,2,4.5,4.5
			c0,1.3-0.1,32.1-30,47.5c-1,0.5-2.2,0.6-3.3,0.3c-22.6-6.5-29-4.7-34.1-3.2c-0.4,0.1-0.9,0.3-1.4,0.4c-1.1,2.9-3.4,6.1-7.6,7.9
			C152.8,333.9,152.2,334,151.6,334z"/>
		<path class="st6" d="M204.1,301.9c-8.5-33.8-31.2-121.1,41.5-126.4c65.2-4.8,83.1,82,87.4,112c2.5,17.5,3.4,33.4,3.5,45.8
			c0.2,16-11.1,29.8-26.8,33c-35.5,7.2-69.1,8.2-91.8-0.7c-6.1-2.4-9.8-8.6-9.2-15.2C209.6,340.7,209.6,324,204.1,301.9z"/>
		<path class="st10" d="M333,287.5c-4.1-28.3-20.2-107-76.7-112c-6.6-0.6-13.1,2.7-16.1,8.5c-2.5,4.9-2.4,10.8,1.3,16.6
			c12.4,19.3,42.1,86,37.6,122.3c-2,16.5-12.4,29.7-3.4,48.3c10.9-0.9,22.3-2.6,33.9-5c15.7-3.2,27-17,26.8-33
			C336.4,320.9,335.5,305,333,287.5z"/>
		<path class="st11" d="M323.2,333.8c-0.2,0-0.5-0.2-0.5-0.4c-0.2-15.5-1.4-30.9-3.5-45.8c-10.8-74.6-39.9-112.4-84.1-109.1
			c-0.2,0-0.5-0.2-0.5-0.4s0.2-0.5,0.4-0.5c44.7-3.3,74.2,34.7,85.1,109.9c2.2,15,3.4,30.4,3.5,45.9
			C323.7,333.6,323.5,333.8,323.2,333.8L323.2,333.8z"/>
		
			<ellipse transform="matrix(0.9545 -0.2983 0.2983 0.9545 -90.8963 110.0565)" class="st9" cx="315.1" cy="352.8" rx="30" ry="24.9"/>
		<path class="st6" d="M325.3,412.6c-1.6,0-3.2-0.9-4-2.4c-4-7.8-9.1-16.9-18.1-26.7c-1.1-1.1-1.5-2.8-1-4.3
			c3.4-11.7,8.7-27.7,8.7-27.9c0.8-2.4,3.3-3.6,5.7-2.9c2.4,0.8,3.6,3.3,2.9,5.7c0,0.1-4.6,13.9-7.9,25.2
			c8.4,9.5,13.5,18.5,17.8,26.8c1.1,2.2,0.3,4.9-1.9,6C326.7,412.5,326,412.6,325.3,412.6z"/>
		<path class="st9" d="M315.9,275.9c-1.6,0-3.2-0.9-4-2.4c-1.1-2.2-0.3-4.9,1.9-6l0,0c0.9-0.5,20.4-11.1,25.9-36.8
			c-13-5.4-36.4-17.7-41.5-23.9c-0.5-0.6-0.8-1.3-1-2.1c-0.1-0.7-1-6,1-11l-2.4-4.6c-1.1-2.2-0.3-4.9,1.9-6.1s4.9-0.3,6,1.9l3.4,6.6
			c0.7,1.4,0.7,3.1-0.2,4.4c-1.1,1.7-1.2,4.3-1.1,5.9c5.8,5.2,29,17.5,40.4,21.8c2,0.7,3.2,2.8,2.9,4.9
			c-5.1,32.8-30.1,46.3-31.2,46.8C317.3,275.7,316.6,275.9,315.9,275.9z"/>
		<path class="st9" d="M301.6,206.1c-0.4,0-0.9-0.1-1.2-0.4c-1-0.7-1.3-2.1-0.6-3.1c0.1-0.2,3.9-5.8,9.5-7.3
			c1.2-0.3,2.4,0.4,2.8,1.6s-0.4,2.4-1.6,2.8c-3.9,1.1-6.9,5.4-6.9,5.5C303,205.8,302.3,206.1,301.6,206.1z"/>
		<polygon class="st9" points="332.8,416.2 298,416.2 316.4,405.8 331.9,406.4 		"/>
		<g>
			
				<ellipse transform="matrix(0.9961 -8.820000e-02 8.820000e-02 0.9961 -21.997 23.7719)" class="st3" cx="258" cy="260.8" rx="23.9" ry="21.5"/>
			
				<ellipse transform="matrix(0.9617 -0.274 0.274 0.9617 -62.3816 79.1645)" class="st11" cx="252.2" cy="262.9" rx="6.6" ry="12"/>
			<path class="st9" d="M230.8,264.9c15.1-1.9,45-10.5,49.9-13.9c-3.9-11.4-22-21.1-38.1-15.6C228,240.3,230.8,264.9,230.8,264.9z"
				/>
			<path class="st9" d="M233.7,272.2c18.7-3.6,43.1-9.5,50.1-13.4c-0.4,12.2-4,24.6-23.1,28.8C245.1,291,233.7,272.2,233.7,272.2z"
				/>
		</g>
		<g>
			
				<ellipse transform="matrix(0.834 -0.5518 0.5518 0.834 -113.5759 159.3373)" class="st3" cx="208" cy="268.4" rx="14.7" ry="18.6"/>
			<path class="st11" d="M208.3,268.7c1.1,5.4,0.2,9.8-2.2,10s-5.2-4.1-6.3-9.4c-1.1-5.4-0.2-9.8,2.2-10S207.2,263.3,208.3,268.7z"
				/>
			<path class="st9" d="M189.8,266.6c10.1,1.2,30.2-0.1,33.6-2c-2.5-9.7-14.4-20.7-25.3-19.3C188.2,246.7,189.8,266.6,189.8,266.6z"
				/>
			<path class="st9" d="M191.6,272.9c12.6,0.6,29,0.2,33.7-1.5c-0.4,9.6-2.9,18.8-15.8,18.6C199,289.9,191.6,272.9,191.6,272.9z"/>
		</g>
		<path class="st9" d="M264.1,229.3c-18.9,0-31.4-9.3-32.1-9.8c-2-1.5-2.4-4.3-0.9-6.3s4.3-2.4,6.3-0.9c0.2,0.2,15.1,11,35.8,7.1
			c2.4-0.5,4.8,1.1,5.2,3.6c0.5,2.4-1.1,4.8-3.6,5.2C271.1,229,267.5,229.3,264.1,229.3z"/>
		<path class="st9" d="M183.9,221.6c-0.5,0-1-0.1-1.5-0.3c-2.3-0.8-3.5-3.4-2.7-5.7c2.4-6.6,6.3-10.9,11.7-12.8
			c9.8-3.4,20.3,3.2,20.8,3.5c2.1,1.3,2.7,4.1,1.4,6.2c-1.3,2.1-4.1,2.7-6.2,1.4c-2-1.3-8.4-4.2-13.1-2.6c-2.7,0.9-4.7,3.3-6.2,7.3
			C187.4,220.4,185.7,221.6,183.9,221.6z"/>
		<path class="st11" d="M219.2,297.2c-0.1,0-0.2,0-0.4,0c-0.7-0.2-1.1-0.9-0.9-1.6c0-0.1,0.9-3,4.6-4.9c5.1-2.6,13-2.1,23.3,1.6
			c0.7,0.2,1.1,1,0.8,1.7c-0.2,0.7-1,1.1-1.7,0.8c-11.8-4.3-18-3.4-21.1-1.8c-2.7,1.3-3.3,3.2-3.3,3.3
			C220.4,296.9,219.8,297.2,219.2,297.2z"/>
		<g>
			<g>
				<path class="st6" d="M176.9,292.3c-26.1,2.3-44.8,13.1-44.8,13.1c7.7-1.5,35.4,32.7,42.5,59.1c13.1-4.9,28.4-8.2,44.7-10.8
					C209.4,326.6,191.3,295.9,176.9,292.3z"/>
				<path class="st12" d="M176.9,292.3c-26.1,2.3-44.8,13.1-44.8,13.1c7.7-1.5,35.4,32.7,42.5,59.1c13.1-4.9,28.4-8.2,44.7-10.8
					C209.4,326.6,191.3,295.9,176.9,292.3z"/>
			</g>
			<g>
				<path class="st6" d="M176.9,292.3c-17.1-1.9-44.8,12.4-44.8,12.4c-4.9,3.1-3.6,9-0.9,11.5c2.6-3.7,31.2-13.3,42-14.6
					C167.8,296.6,172.8,293,176.9,292.3z"/>
				<path class="st13" d="M176.9,292.3c-17.1-1.9-44.8,12.4-44.8,12.4c-4.9,3.1-3.6,9-0.9,11.5c2.6-3.7,31.2-13.3,42-14.6
					C167.8,296.6,172.8,293,176.9,292.3z"/>
			</g>
		</g>
		<path class="st9" d="M151.7,334c-1.5,0-2.9-0.7-3.8-2c-3.2-5-1.2-12.6-0.8-14.1c0.7-2.4,3.2-3.7,5.6-3s3.7,3.2,3,5.6
			c-0.7,2.5-0.9,5.7-0.3,6.6c1.4,2.1,0.8,4.9-1.3,6.2C153.4,333.8,152.5,334,151.7,334z"/>
	</g>
</g>
<g id="_x34_00_ERROR">
	<g>
		<g>
			<path class="st6" d="M120.5,144.5h-15.1v-6.8l15.1-18h7.2v18.4h3.8v6.4h-3.8v5.6h-7.2V144.5z M120.5,138.1v-9.4l-8,9.4H120.5z"/>
			<path class="st6" d="M134.1,135.1c0-5.7,1-9.7,3.1-11.9s5.2-3.4,9.4-3.4c2,0,3.7,0.2,5,0.7s2.4,1.1,3.2,1.9s1.5,1.6,1.9,2.5
				c0.5,0.9,0.9,1.9,1.1,3.1c0.6,2.2,0.8,4.6,0.8,7c0,5.4-0.9,9.4-2.8,11.9c-1.8,2.5-5,3.8-9.5,3.8c-2.5,0-4.6-0.4-6.1-1.2
				s-2.8-2-3.8-3.5c-0.7-1.1-1.3-2.6-1.7-4.5C134.3,139.5,134.1,137.4,134.1,135.1z M142.3,135.1c0,3.8,0.3,6.4,1,7.8
				s1.6,2.1,2.9,2.1c0.8,0,1.6-0.3,2.2-0.9s1.1-1.5,1.4-2.8c0.3-1.3,0.4-3.3,0.4-6c0-4-0.3-6.6-1-8c-0.7-1.4-1.7-2.1-3-2.1
				c-1.4,0-2.4,0.7-3,2.1C142.7,128.7,142.3,131.3,142.3,135.1z"/>
			<path class="st6" d="M162,135.1c0-5.7,1-9.7,3.1-11.9s5.2-3.4,9.4-3.4c2,0,3.7,0.2,5,0.7s2.4,1.1,3.2,1.9s1.5,1.6,1.9,2.5
				c0.5,0.9,0.9,1.9,1.1,3.1c0.6,2.2,0.8,4.6,0.8,7c0,5.4-0.9,9.4-2.8,11.9c-1.8,2.5-5,3.8-9.5,3.8c-2.5,0-4.6-0.4-6.1-1.2
				s-2.8-2-3.8-3.5c-0.7-1.1-1.3-2.6-1.7-4.5C162.2,139.5,162,137.4,162,135.1z M170.2,135.1c0,3.8,0.3,6.4,1,7.8s1.6,2.1,2.9,2.1
				c0.8,0,1.6-0.3,2.2-0.9s1.1-1.5,1.4-2.8c0.3-1.3,0.4-3.3,0.4-6c0-4-0.3-6.6-1-8c-0.7-1.4-1.7-2.1-3-2.1c-1.4,0-2.4,0.7-3,2.1
				C170.5,128.7,170.2,131.3,170.2,135.1z"/>
			<path class="st11" d="M205.1,120.2h24.8v6.4h-15.5v4.8h14.4v6.1h-14.4v5.9h15.9v6.8h-25.2V120.2L205.1,120.2z"/>
			<path class="st11" d="M235.4,150.1v-29.9h15.4c2.9,0,5,0.2,6.5,0.7s2.7,1.4,3.6,2.7c0.9,1.3,1.4,2.9,1.4,4.8
				c0,1.7-0.4,3.1-1.1,4.3s-1.7,2.2-2.9,2.9c-0.8,0.5-1.9,0.9-3.2,1.2c1.1,0.4,1.9,0.7,2.4,1.1c0.3,0.2,0.8,0.8,1.5,1.6
				c0.6,0.8,1.1,1.4,1.3,1.9l4.5,8.7h-10.4l-4.9-9.1c-0.6-1.2-1.2-1.9-1.7-2.3c-0.7-0.5-1.4-0.7-2.3-0.7h-0.8v12.1H235.4
				L235.4,150.1z M244.7,132.4h3.9c0.4,0,1.2-0.1,2.5-0.4c0.6-0.1,1.1-0.4,1.5-0.9s0.6-1.1,0.6-1.7c0-1-0.3-1.7-0.9-2.2
				s-1.8-0.8-3.5-0.8h-4.1V132.4L244.7,132.4z"/>
			<path class="st11" d="M267.9,150.1v-29.9h15.4c2.9,0,5,0.2,6.5,0.7s2.7,1.4,3.6,2.7c0.9,1.3,1.4,2.9,1.4,4.8
				c0,1.7-0.4,3.1-1.1,4.3s-1.7,2.2-2.9,2.9c-0.8,0.5-1.9,0.9-3.2,1.2c1.1,0.4,1.9,0.7,2.4,1.1c0.3,0.2,0.8,0.8,1.5,1.6
				c0.6,0.8,1.1,1.4,1.3,1.9l4.5,8.7h-10.4L282,141c-0.6-1.2-1.2-1.9-1.7-2.3c-0.7-0.5-1.4-0.7-2.3-0.7h-0.8v12.1H267.9L267.9,150.1
				z M277.2,132.4h3.9c0.4,0,1.2-0.1,2.5-0.4c0.6-0.1,1.1-0.4,1.5-0.9s0.6-1.1,0.6-1.7c0-1-0.3-1.7-0.9-2.2s-1.8-0.8-3.5-0.8h-4.1
				V132.4L277.2,132.4z"/>
			<path class="st11" d="M298.4,135.2c0-4.9,1.4-8.7,4.1-11.4s6.5-4.1,11.4-4.1c5,0,8.8,1.3,11.5,4s4,6.4,4,11.2
				c0,3.5-0.6,6.4-1.8,8.6c-1.2,2.2-2.9,4-5.1,5.2s-5,1.9-8.3,1.9c-3.4,0-6.2-0.5-8.4-1.6s-4-2.8-5.4-5.1
				C299.1,141.6,298.4,138.7,298.4,135.2z M307.6,135.2c0,3,0.6,5.2,1.7,6.5s2.6,2,4.6,2s3.5-0.6,4.6-1.9c1.1-1.3,1.6-3.6,1.6-7
				c0-2.8-0.6-4.9-1.7-6.2c-1.1-1.3-2.7-1.9-4.6-1.9s-3.4,0.7-4.5,2C308.2,130,307.6,132.2,307.6,135.2z"/>
			<path class="st11" d="M334.5,150.1v-29.9h15.4c2.9,0,5,0.2,6.5,0.7s2.7,1.4,3.6,2.7c0.9,1.3,1.4,2.9,1.4,4.8
				c0,1.7-0.4,3.1-1.1,4.3s-1.7,2.2-2.9,2.9c-0.8,0.5-1.9,0.9-3.2,1.2c1.1,0.4,1.9,0.7,2.4,1.1c0.3,0.2,0.8,0.8,1.5,1.6
				c0.6,0.8,1.1,1.4,1.3,1.9l4.5,8.7h-10.4l-4.9-9.1c-0.6-1.2-1.2-1.9-1.7-2.3c-0.7-0.5-1.4-0.7-2.3-0.7h-0.8v12.1H334.5
				L334.5,150.1z M343.7,132.4h3.9c0.4,0,1.2-0.1,2.5-0.4c0.6-0.1,1.1-0.4,1.5-0.9s0.6-1.1,0.6-1.7c0-1-0.3-1.7-0.9-2.2
				s-1.8-0.8-3.5-0.8h-4.1V132.4L343.7,132.4z"/>
		</g>
	</g>
</g>
<g id="Bad_Request">
	<g>
		<path class="st9" d="M251.1,101.4V79.1h8.4c1.7,0,3.1,0.2,4.1,0.7s1.8,1.1,2.4,2.1c0.6,0.9,0.9,1.9,0.9,2.9c0,0.9-0.3,1.8-0.8,2.7
			c-0.5,0.8-1.3,1.5-2.3,2c1.4,0.4,2.4,1.1,3.1,2c0.7,0.9,1.1,2.1,1.1,3.4c0,1-0.2,2-0.7,2.9s-1,1.6-1.6,2.1s-1.5,0.8-2.4,1.1
			s-2.2,0.4-3.6,0.4L251.1,101.4L251.1,101.4z M254,88.5h4.8c1.3,0,2.2-0.1,2.8-0.3c0.8-0.2,1.3-0.6,1.7-1.1s0.6-1.2,0.6-1.9
			c0-0.7-0.2-1.4-0.5-1.9s-0.9-0.9-1.5-1.2c-0.7-0.2-1.8-0.3-3.4-0.3h-4.4L254,88.5L254,88.5z M254,98.8h5.6c0.9,0,1.6,0,2-0.1
			c0.7-0.1,1.2-0.3,1.7-0.6c0.5-0.3,0.8-0.7,1.1-1.2s0.4-1.2,0.4-1.9c0-0.8-0.2-1.6-0.6-2.2c-0.4-0.6-1-1-1.8-1.3
			c-0.8-0.3-1.8-0.4-3.3-0.4H254L254,98.8L254,98.8z"/>
		<path class="st9" d="M282.2,99.4c-1,0.9-2,1.5-2.9,1.8s-1.9,0.5-3,0.5c-1.8,0-3.1-0.4-4.1-1.3s-1.4-2-1.4-3.3
			c0-0.8,0.2-1.5,0.5-2.2c0.4-0.7,0.8-1.2,1.4-1.6c0.6-0.4,1.2-0.7,2-0.9c0.5-0.1,1.4-0.3,2.4-0.4c2.2-0.3,3.8-0.6,4.9-0.9
			c0-0.4,0-0.6,0-0.7c0-1.1-0.3-1.9-0.8-2.4c-0.7-0.6-1.7-0.9-3.1-0.9c-1.3,0-2.2,0.2-2.9,0.7c-0.7,0.5-1.1,1.2-1.4,2.4l-2.7-0.4
			c0.2-1.1,0.6-2.1,1.2-2.8c0.6-0.7,1.4-1.2,2.4-1.6c1.1-0.4,2.3-0.6,3.7-0.6s2.5,0.2,3.4,0.5s1.5,0.7,1.9,1.2s0.7,1.1,0.9,1.9
			c0.1,0.5,0.1,1.3,0.1,2.5v3.7c0,2.5,0.1,4.2,0.2,4.8c0.1,0.7,0.4,1.3,0.7,1.9h-2.9C282.4,100.9,282.2,100.2,282.2,99.4z
			 M281.9,93.3c-1,0.4-2.5,0.8-4.5,1c-1.1,0.2-1.9,0.3-2.4,0.6c-0.5,0.2-0.8,0.5-1.1,0.9s-0.4,0.8-0.4,1.3c0,0.7,0.3,1.3,0.8,1.8
			c0.6,0.5,1.4,0.7,2.4,0.7c1.1,0,2-0.2,2.8-0.7s1.4-1.1,1.8-1.9c0.3-0.6,0.4-1.5,0.4-2.7L281.9,93.3L281.9,93.3z"/>
		<path class="st9" d="M299.4,101.4v-2c-1,1.6-2.5,2.4-4.5,2.4c-1.3,0-2.5-0.4-3.6-1.1s-1.9-1.7-2.5-3s-0.9-2.7-0.9-4.4
			c0-1.6,0.3-3.1,0.8-4.4s1.3-2.3,2.4-3c1.1-0.7,2.3-1.1,3.6-1.1c1,0,1.8,0.2,2.6,0.6c0.8,0.4,1.4,0.9,1.9,1.6v-8h2.7v22.4H299.4
			L299.4,101.4z M290.8,93.4c0,2.1,0.4,3.6,1.3,4.6c0.9,1,1.9,1.5,3.1,1.5s2.2-0.5,3.1-1.5c0.9-1,1.2-2.5,1.2-4.5
			c0-2.2-0.4-3.8-1.3-4.9c-0.9-1.1-1.9-1.6-3.1-1.6s-2.2,0.5-3.1,1.5C291.2,89.7,290.8,91.2,290.8,93.4z"/>
		<path class="st9" d="M315.3,101.4V79.1h9.9c2,0,3.5,0.2,4.5,0.6s1.9,1.1,2.5,2.1s0.9,2.1,0.9,3.4c0,1.6-0.5,2.9-1.5,4
			s-2.6,1.8-4.7,2.1c0.8,0.4,1.4,0.8,1.8,1.1c0.9,0.8,1.7,1.8,2.4,3l3.9,6.1h-3.7l-2.9-4.6c-0.9-1.3-1.6-2.4-2.1-3.1
			s-1.1-1.2-1.5-1.5c-0.4-0.3-0.9-0.5-1.4-0.6c-0.3-0.1-0.9-0.1-1.6-0.1h-3.4v9.8C318.2,101.4,315.3,101.4,315.3,101.4z M318.2,89
			h6.3c1.4,0,2.4-0.1,3.2-0.4s1.3-0.7,1.7-1.3c0.4-0.6,0.6-1.3,0.6-2c0-1.1-0.4-1.9-1.1-2.6c-0.8-0.7-2-1-3.6-1h-7.1V89L318.2,89z"
			/>
		<path class="st9" d="M348.4,96.2l2.8,0.3c-0.5,1.7-1.3,2.9-2.5,3.8s-2.8,1.4-4.6,1.4c-2.4,0-4.2-0.7-5.6-2.2s-2.1-3.5-2.1-6.1
			c0-2.7,0.7-4.8,2.1-6.3c1.4-1.5,3.2-2.2,5.4-2.2c2.2,0,3.9,0.7,5.3,2.2s2,3.5,2,6.2c0,0.2,0,0.4,0,0.7h-12
			c0.1,1.8,0.6,3.1,1.5,4.1s2,1.4,3.4,1.4c1,0,1.9-0.3,2.6-0.8C347.4,98.2,348,97.4,348.4,96.2z M339.4,91.8h9
			c-0.1-1.4-0.5-2.4-1-3.1c-0.9-1.1-2-1.6-3.4-1.6c-1.3,0-2.3,0.4-3.2,1.3C339.9,89.3,339.5,90.4,339.4,91.8z"/>
		<path class="st9" d="M365,107.6v-7.9c-0.4,0.6-1,1.1-1.8,1.5s-1.6,0.6-2.4,0.6c-1.9,0-3.6-0.8-5-2.3s-2.1-3.6-2.1-6.3
			c0-1.6,0.3-3.1,0.8-4.4c0.6-1.3,1.4-2.3,2.5-2.9c1.1-0.7,2.2-1,3.5-1c2,0,3.6,0.8,4.7,2.5v-2.2h2.5v22.3L365,107.6L365,107.6z
			 M356.6,93.3c0,2.1,0.4,3.6,1.3,4.7c0.9,1,1.9,1.6,3.1,1.6s2.2-0.5,3-1.5s1.3-2.5,1.3-4.5c0-2.2-0.4-3.8-1.3-4.8
			c-0.9-1.1-1.9-1.6-3.1-1.6s-2.2,0.5-3,1.5C357,89.6,356.6,91.2,356.6,93.3z"/>
		<path class="st9" d="M382.6,101.4V99c-1.3,1.8-3,2.7-5.1,2.7c-1,0-1.8-0.2-2.7-0.6c-0.8-0.4-1.4-0.8-1.8-1.4s-0.7-1.2-0.8-2
			c-0.1-0.5-0.2-1.4-0.2-2.6v-10h2.7V94c0,1.4,0.1,2.4,0.2,2.9c0.2,0.7,0.5,1.3,1.1,1.7c0.6,0.4,1.2,0.6,2.1,0.6s1.6-0.2,2.3-0.6
			s1.2-1,1.5-1.7s0.5-1.8,0.5-3.2V85h2.7v16.4H382.6L382.6,101.4z"/>
		<path class="st9" d="M400.4,96.2l2.8,0.3c-0.5,1.7-1.3,2.9-2.5,3.8s-2.8,1.4-4.6,1.4c-2.4,0-4.2-0.7-5.6-2.2s-2.1-3.5-2.1-6.1
			c0-2.7,0.7-4.8,2.1-6.3s3.2-2.2,5.4-2.2c2.2,0,3.9,0.7,5.3,2.2s2,3.5,2,6.2c0,0.2,0,0.4,0,0.7h-12c0.1,1.8,0.6,3.1,1.5,4.1
			s2,1.4,3.4,1.4c1,0,1.9-0.3,2.6-0.8C399.4,98.2,399.9,97.4,400.4,96.2z M391.4,91.8h9c-0.1-1.4-0.5-2.4-1-3.1
			c-0.9-1.1-2-1.6-3.4-1.6c-1.3,0-2.3,0.4-3.2,1.3C391.9,89.3,391.5,90.4,391.4,91.8z"/>
		<path class="st9" d="M405.5,96.6l2.7-0.4c0.1,1.1,0.6,1.9,1.3,2.5c0.7,0.6,1.7,0.9,2.9,0.9c1.3,0,2.2-0.3,2.8-0.8
			c0.6-0.5,0.9-1.1,0.9-1.8c0-0.6-0.3-1.1-0.8-1.5c-0.4-0.2-1.3-0.6-2.8-0.9c-2-0.5-3.4-0.9-4.2-1.3c-0.8-0.4-1.4-0.9-1.8-1.5
			c-0.4-0.7-0.6-1.4-0.6-2.2c0-0.7,0.2-1.4,0.5-2s0.8-1.1,1.4-1.5c0.4-0.3,1-0.6,1.7-0.8c0.7-0.2,1.5-0.3,2.4-0.3
			c1.3,0,2.4,0.2,3.3,0.6s1.7,0.9,2.1,1.5s0.8,1.5,0.9,2.5l-2.7,0.4c-0.1-0.8-0.5-1.5-1.1-1.9c-0.6-0.5-1.4-0.7-2.5-0.7
			c-1.3,0-2.1,0.2-2.7,0.6c-0.5,0.4-0.8,0.9-0.8,1.5c0,0.3,0.1,0.7,0.3,1s0.6,0.5,1,0.7c0.3,0.1,1.1,0.3,2.4,0.7
			c1.9,0.5,3.3,0.9,4,1.3c0.8,0.3,1.4,0.8,1.8,1.4s0.6,1.4,0.6,2.3s-0.3,1.8-0.8,2.6c-0.5,0.8-1.3,1.4-2.3,1.9s-2.1,0.7-3.4,0.7
			c-2.1,0-3.7-0.4-4.8-1.3C406.5,99.6,405.8,98.3,405.5,96.6z"/>
		<path class="st9" d="M428.2,99l0.4,2.4c-0.8,0.2-1.5,0.2-2.1,0.2c-1,0-1.8-0.2-2.3-0.5s-0.9-0.7-1.1-1.2s-0.3-1.6-0.3-3.2v-9.3h-2
			v-2.1h2v-4l2.7-1.6v5.6h2.8v2.1h-2.8v9.4c0,0.8,0,1.3,0.1,1.5s0.2,0.4,0.5,0.5s0.5,0.2,0.9,0.2C427.3,99.1,427.7,99.1,428.2,99z"
			/>
	</g>
</g>
</svg>
