<?xml version="1.0" encoding="utf-8"?>
<!-- Generator: Adobe Illustrator 26.0.3, SVG Export Plug-In . SVG Version: 6.00 Build 0)  -->
<svg version="1.1" id="Layer_1" xmlns="http://www.w3.org/2000/svg" xmlns:xlink="http://www.w3.org/1999/xlink" x="0px" y="0px"
	 viewBox="0 0 500 500" style="enable-background:new 0 0 500 500;" xml:space="preserve">
<style type="text/css">
	.st0{display:none;}
	.st1{display:inline;fill:#EBEBEB;}
	.st2{fill:#E0E0E0;}
	.st3{fill:#F5F5F5;}
	.st4{fill:#EBEBEB;}
	.st5{fill:#FAFAFA;}
	.st6{display:inline;}
	.st7{fill:#407BFF;}
	.st8{opacity:0.9;fill:#FFFFFF;enable-background:new    ;}
	.st9{fill:#263238;}
	.st10{fill:#FFFFFF;}
	.st11{fill:#000033;}
	.st12{fill:#B55B52;}
	.st13{fill:#121251;}
	.st14{opacity:0.2;enable-background:new    ;}
	.st15{fill:#A02724;}
	.st16{opacity:0.8;fill:#263238;enable-background:new    ;}
	.st17{opacity:0.2;}
	.st18{opacity:0.4;enable-background:new    ;}
</style>
<g id="Background_Complete">
	<g class="st0">
		<rect y="382.4" class="st1" width="500" height="0.2"/>
		<rect x="52.5" y="391.9" class="st1" width="33.1" height="0.2"/>
		<rect x="145.3" y="389.2" class="st1" width="34.5" height="0.2"/>
		<rect x="76.1" y="396.8" class="st1" width="55.4" height="0.2"/>
		<rect x="405.6" y="397.7" class="st1" width="43.2" height="0.2"/>
		<rect x="370.4" y="391.4" class="st1" width="22.9" height="0.2"/>
		<rect x="195.6" y="395.4" class="st1" width="93.7" height="0.2"/>
		<path class="st1" d="M237,337.8H43.9c-3.2,0-5.7-2.6-5.7-5.7V60.7c0-3.2,2.6-5.7,5.7-5.7H237c3.1,0,5.7,2.6,5.7,5.7v271.4
			C242.7,335.2,240.2,337.8,237,337.8z M43.9,55.2c-3,0-5.5,2.5-5.5,5.5v271.4c0,3,2.5,5.5,5.5,5.5H237c3,0,5.5-2.5,5.5-5.5V60.7
			c0-3-2.4-5.5-5.5-5.5H43.9z"/>
		<path class="st1" d="M453.3,337.8H260.2c-3.1,0-5.7-2.6-5.7-5.7V60.7c0-3.2,2.6-5.7,5.7-5.7h193.1c3.1,0,5.7,2.6,5.7,5.7v271.4
			C459,335.2,456.5,337.8,453.3,337.8z M260.2,55.2c-3,0-5.5,2.5-5.5,5.5v271.4c0,3,2.4,5.5,5.5,5.5h193.1c3,0,5.5-2.5,5.5-5.5V60.7
			c0-3-2.5-5.5-5.5-5.5H260.2z"/>
	</g>
	<g>
		<g>
			<rect x="148.6" y="379.3" class="st2" width="54.1" height="3.1"/>
			<path class="st2" d="M170.8,311.6l-15,67.7h39.6l-15-67.7C179.4,306.4,171.9,306.4,170.8,311.6z"/>
			<g>
				<polygon class="st3" points="183.5,325 167.8,325 164,342.2 187.3,342.2 				"/>
				<polygon class="st3" points="188,345.2 163.4,345.2 161.4,353.9 189.9,353.9 				"/>
			</g>
		</g>
		<g>
			<polygon class="st2" points="72.5,382.4 80.6,382.4 104.2,250 96.2,250 			"/>
			<polygon class="st2" points="283.2,382.4 291.2,382.4 314.9,250 306.8,250 			"/>
			<g>
				<rect x="72.5" y="256.5" class="st4" width="266" height="48.1"/>
				<polygon class="st5" points="101.4,302.4 73.8,302.4 89.1,258.6 116.7,258.6 				"/>
				<polygon class="st5" points="156.5,302.4 128.9,302.4 144.2,258.6 171.8,258.6 				"/>
				<polygon class="st5" points="211.7,302.4 184.1,302.4 199.4,258.6 227,258.6 				"/>
				<polygon class="st5" points="266.8,302.4 239.3,302.4 254.6,258.6 282.1,258.6 				"/>
				<polygon class="st5" points="322,302.4 294.4,302.4 309.7,258.6 337.3,258.6 				"/>
			</g>
			<polygon class="st2" points="127.9,382.4 119.9,382.4 96.2,250 104.2,250 			"/>
			<polygon class="st2" points="338.5,382.4 330.5,382.4 306.8,250 314.9,250 			"/>
		</g>
		<g>
			<rect x="376" y="378.3" class="st2" width="71" height="4.1"/>
			<path class="st2" d="M404.6,291.6l-19.1,86.7h52l-19.1-86.7C416.7,284.3,406.3,284.3,404.6,291.6z"/>
			<g>
				<polygon class="st3" points="421.8,307.2 401.2,307.2 396.2,329.7 426.8,329.7 				"/>
				<polygon class="st3" points="427.6,333.6 395.4,333.6 392.9,345 430.1,345 				"/>
			</g>
		</g>
		<g>
			<path class="st4" d="M463,241.9v29.3c0,2-1.9,3.4-3.8,2.8l-423-134c-1.2-0.4-2-1.5-2-2.8v-29.3c0-2,1.9-3.4,3.8-2.8l423,134
				C462.2,239.5,463,240.6,463,241.9z"/>
			<g>
				<polygon class="st5" points="429.7,262.4 453,269.8 440.1,234.8 416.8,227.4 				"/>
				<polygon class="st5" points="383.1,247.6 406.4,255 393.5,220 370.2,212.6 				"/>
				<polygon class="st5" points="336.6,232.9 359.9,240.2 346.9,205.2 323.7,197.9 				"/>
				<polygon class="st5" points="290,218.1 313.3,225.5 300.4,190.5 277.1,183.1 				"/>
				<polygon class="st5" points="243.4,203.4 266.7,210.7 253.8,175.7 230.5,168.3 				"/>
				<polygon class="st5" points="196.9,188.6 220.1,196 207.2,160.9 183.9,153.6 				"/>
				<polygon class="st5" points="150.3,173.8 173.6,181.2 160.6,146.2 137.4,138.8 				"/>
				<polygon class="st5" points="103.7,159.1 127,166.4 114.1,131.4 90.8,124.1 				"/>
				<polygon class="st5" points="57.1,144.3 80.4,151.7 67.5,116.7 44.2,109.3 				"/>
			</g>
		</g>
	</g>
</g>
<g id="Background_Simple" class="st0">
	<g class="st6">
		<path class="st7" d="M387.7,68c-3.5-2.3-7.1-4.4-10.8-6.3c-32.1-16.5-76.4-20.4-107.3-2.3c-18.4,10.8-26.2,31.6-39.9,47.2
			c-17.2,19.7-44.3,30.9-68.2,42c-32.4,15-61.5,31.9-72.9,65.2c-9.5,27.7-4.6,60.5,18.2,82.6c21.7,21,50.5,36.8,79.5,46.9
			c25,8.7,48,8.2,66.5-10.4c12.1-12.1,19-27.9,26.5-43c8.4-17.1,19.4-38.4,38.4-47.1c18.1-8.3,41.3-5.2,60.5-10.5
			c31.8-8.8,54.4-37.3,57.9-68.1C440.2,127.8,420.3,89.5,387.7,68z"/>
		<path class="st8" d="M387.7,68c-3.5-2.3-7.1-4.4-10.8-6.3c-32.1-16.5-76.4-20.4-107.3-2.3c-18.4,10.8-26.2,31.6-39.9,47.2
			c-17.2,19.7-44.3,30.9-68.2,42c-32.4,15-61.5,31.9-72.9,65.2c-9.5,27.7-4.6,60.5,18.2,82.6c21.7,21,50.5,36.8,79.5,46.9
			c25,8.7,48,8.2,66.5-10.4c12.1-12.1,19-27.9,26.5-43c8.4-17.1,19.4-38.4,38.4-47.1c18.1-8.3,41.3-5.2,60.5-10.5
			c31.8-8.8,54.4-37.3,57.9-68.1C440.2,127.8,420.3,89.5,387.7,68z"/>
	</g>
</g>
<g id="Shadow_1_">
	<ellipse id="_x3C_Path_x3E__370_" class="st3" cx="250" cy="416.2" rx="193.9" ry="11.3"/>
</g>
<g id="_x34_03_Sign">
	<g>
		<path class="st9" d="M326.5,407.6H315V60.1c0-1.9,11.5-1.9,11.5,0V407.6z"/>
		<polygon points="326.5,190.6 314.9,192.9 314.9,177 326.5,177 		"/>
		<g>
			<path class="st10" d="M397.7,186.6l-161.8-12c-6.6-0.5-11.6-6.3-11.1-12.9l6.8-90.9c0.5-6.6,6.3-11.6,12.9-11.1l161.8,12
				c6.6,0.5,11.6,6.3,11.1,12.9l-6.8,90.9C410.1,182.1,404.3,187.1,397.7,186.6z"/>
			<path class="st7" d="M398.6,188.1c-0.3,0-0.7,0-1,0l-161.8-12c-3.6-0.3-6.9-1.9-9.2-4.7s-3.5-6.2-3.2-9.8l6.8-90.9
				c0.3-3.6,1.9-6.9,4.7-9.2s6.2-3.5,9.8-3.2l161.8,12c3.6,0.3,6.9,1.9,9.2,4.7c2.4,2.7,3.5,6.2,3.2,9.8l-6.8,90.9
				c-0.3,3.6-1.9,6.9-4.7,9.2C404.9,187,401.9,188.1,398.6,188.1z M243.6,61.2c-2.5,0-4.9,0.9-6.8,2.6c-2.1,1.8-3.4,4.4-3.6,7.2
				l-6.8,90.9c-0.4,5.8,3.9,10.8,9.7,11.2l161.8,12c2.8,0.2,5.5-0.7,7.6-2.5s3.4-4.4,3.6-7.2l6.8-90.9c0.4-5.8-3.9-10.8-9.7-11.2
				l-161.8-12C244.1,61.2,243.8,61.2,243.6,61.2z"/>
		</g>
		<g>
			<g>
				<path class="st7" d="M287.4,108.1l-20.3-1.5l0.7-9.2l22.1-22.7l9.7,0.7l-1.8,24.7l5,0.4l-0.6,8.7l-5-0.4l-0.6,7.5l-9.7-0.7
					L287.4,108.1z M288.1,99.4l0.9-12.6l-11.7,11.8L288.1,99.4z"/>
				<path class="st7" d="M306.6,96.7c0.6-7.6,2.3-12.9,5.3-15.7c3-2.8,7.3-4.1,12.9-3.6c2.7,0.2,4.9,0.7,6.6,1.5s3,1.8,4,2.9
					c1,1.2,1.8,2.3,2.3,3.6c0.5,1.2,1,2.6,1.2,4.2c0.5,3.1,0.7,6.2,0.4,9.4c-0.5,7.3-2.2,12.5-4.9,15.7c-2.7,3.2-7.1,4.6-13.1,4.1
					c-3.4-0.2-6.1-1-8.1-2.2s-3.6-2.9-4.8-5.1c-0.9-1.6-1.5-3.6-1.8-6.2C306.5,102.6,306.4,99.8,306.6,96.7z M317.7,97.5
					c-0.4,5.1-0.2,8.6,0.6,10.6c0.8,1.9,2,3,3.7,3.1c1.1,0.1,2.1-0.2,3-1c0.9-0.7,1.6-1.9,2.1-3.6s0.9-4.3,1.2-8
					c0.4-5.3,0.2-8.9-0.6-10.8s-2.1-2.9-3.9-3.1c-1.8-0.1-3.2,0.7-4.2,2.5C318.8,89,318.1,92.5,317.7,97.5z"/>
				<path class="st7" d="M355.5,91.9l-10.4-2.7c1.1-3.3,3-5.7,5.6-7.3c2.6-1.6,6.2-2.2,10.8-1.9c5.2,0.4,9,1.7,11.1,3.8
					s3.2,4.7,3,7.6c-0.1,1.7-0.7,3.3-1.8,4.6c-1,1.3-2.6,2.5-4.6,3.4c1.5,0.5,2.7,1,3.5,1.6c1.3,0.9,2.2,2.1,2.9,3.5
					c0.6,1.4,0.9,3,0.8,4.9c-0.2,2.3-1,4.5-2.3,6.6c-1.4,2.1-3.3,3.6-5.7,4.6s-5.5,1.3-9.2,1.1c-3.6-0.3-6.5-0.9-8.5-1.9
					s-3.7-2.4-4.9-4.2s-2.1-3.9-2.7-6.5l11.3-0.7c0.3,2.3,0.8,3.9,1.7,4.8c0.9,0.9,2,1.5,3.4,1.6c1.5,0.1,2.8-0.3,3.9-1.4
					c1.1-1,1.7-2.4,1.8-4.3c0.1-1.9-0.2-3.3-1.1-4.4s-2.1-1.7-3.8-1.8c-0.9-0.1-2.1,0.1-3.7,0.4l1.2-7.9c0.6,0.1,1.1,0.2,1.4,0.2
					c1.5,0.1,2.7-0.3,3.8-1.1c1-0.9,1.6-1.9,1.7-3.2c0.1-1.2-0.2-2.2-0.9-3S362,87,360.7,87c-1.3-0.1-2.4,0.2-3.3,0.9
					C356.6,88.6,355.9,90,355.5,91.9z"/>
				<path class="st7" d="M272.1,123.8l15.5,1.2l-0.3,4l-9.7-0.7l-0.2,3l9,0.7l-0.3,3.8l-9-0.7l-0.3,3.7l10,0.7l-0.3,4.2l-15.8-1.2
					L272.1,123.8z"/>
				<path class="st7" d="M289.7,144l1.4-18.7l9.6,0.7c1.8,0.1,3.1,0.4,4.1,0.8s1.6,1,2.2,1.9c0.5,0.9,0.7,1.9,0.6,3.1
					c-0.1,1-0.4,1.9-0.9,2.6s-1.1,1.3-2,1.7c-0.5,0.3-1.2,0.5-2.1,0.6c0.7,0.3,1.2,0.6,1.5,0.8c0.2,0.2,0.5,0.5,0.9,1.1
					c0.4,0.5,0.6,0.9,0.7,1.2l2.4,5.6l-6.5-0.5l-2.7-6c-0.3-0.8-0.6-1.3-0.9-1.5c-0.4-0.3-0.9-0.5-1.4-0.5h-0.5l-0.6,7.6L289.7,144z
					 M296.3,133.2l2.4,0.2c0.3,0,0.8,0,1.5-0.1c0.4-0.1,0.7-0.2,1-0.5s0.4-0.6,0.5-1.1c0-0.6-0.1-1.1-0.5-1.4
					c-0.4-0.4-1.1-0.6-2.1-0.6l-2.5-0.2L296.3,133.2z"/>
				<path class="st7" d="M310,145.5l1.4-18.7l9.6,0.7c1.8,0.1,3.1,0.4,4.1,0.8c0.9,0.4,1.6,1,2.2,1.9c0.5,0.9,0.7,1.9,0.6,3.1
					c-0.1,1-0.4,1.9-0.9,2.6s-1.1,1.3-2,1.7c-0.5,0.3-1.2,0.5-2.1,0.6c0.7,0.3,1.2,0.6,1.5,0.8c0.2,0.2,0.5,0.5,0.9,1.1
					c0.4,0.5,0.6,0.9,0.7,1.2l2.4,5.6l-6.5-0.5l-2.7-6c-0.3-0.8-0.6-1.3-0.9-1.5c-0.4-0.3-0.9-0.5-1.4-0.5h-0.5l-0.6,7.6L310,145.5z
					 M316.7,134.8l2.4,0.2c0.3,0,0.8,0,1.5-0.1c0.4-0.1,0.7-0.2,1-0.5s0.4-0.6,0.5-1.1c0-0.6-0.1-1.1-0.5-1.4
					c-0.4-0.4-1.1-0.6-2.1-0.6l-2.5-0.2L316.7,134.8z"/>
				<path class="st7" d="M329.9,137.6c0.2-3.1,1.3-5.4,3.1-7s4.3-2.2,7.3-2c3.1,0.2,5.5,1.2,7,3.1s2.2,4.2,2,7.2
					c-0.2,2.2-0.7,4-1.5,5.3c-0.8,1.4-2,2.4-3.4,3c-1.5,0.7-3.2,0.9-5.3,0.8c-2.1-0.2-3.8-0.6-5.2-1.4c-1.3-0.8-2.4-1.9-3.1-3.4
					C330,141.6,329.7,139.7,329.9,137.6z M335.6,138c-0.1,1.9,0.1,3.3,0.8,4.2s1.6,1.4,2.8,1.4c1.2,0.1,2.2-0.2,3-1
					c0.7-0.8,1.2-2.2,1.4-4.3c0.1-1.8-0.1-3.1-0.8-3.9s-1.6-1.4-2.8-1.4c-1.2-0.1-2.1,0.3-2.9,1C336.2,134.8,335.8,136.1,335.6,138z
					"/>
				<path class="st7" d="M351.8,148.6l1.4-18.7l9.6,0.7c1.8,0.1,3.1,0.4,4.1,0.8s1.6,1,2.2,1.9c0.5,0.9,0.7,1.9,0.6,3.1
					c-0.1,1-0.4,1.9-0.9,2.6s-1.1,1.3-2,1.7c-0.5,0.3-1.2,0.5-2.1,0.6c0.7,0.3,1.2,0.6,1.5,0.8c0.2,0.2,0.5,0.5,0.9,1.1
					c0.4,0.5,0.6,0.9,0.7,1.2l2.4,5.6l-6.5-0.5l-2.7-6c-0.3-0.8-0.6-1.3-0.9-1.5c-0.4-0.3-0.9-0.5-1.4-0.5h-0.5l-0.6,7.6
					L351.8,148.6z M358.4,137.9l2.4,0.2c0.3,0,0.8,0,1.5-0.1c0.4-0.1,0.7-0.2,1-0.5s0.4-0.6,0.5-1.1c0-0.6-0.1-1.1-0.5-1.4
					c-0.4-0.4-1.1-0.6-2.1-0.6l-2.5-0.2L358.4,137.9z"/>
			</g>
		</g>
		<g>
			<path class="st9" d="M252.8,163.3l1.3-17.1l11.5,0.9l-0.1,2l-9.3-0.7l-0.4,5.3l8,0.6l-0.1,2l-8-0.6l-0.6,7.8L252.8,163.3z"/>
			<path class="st9" d="M267.2,156c0.2-2.8,1.1-5,2.8-6.5c1.6-1.5,3.7-2.1,6.1-2c1.6,0.1,3,0.6,4.2,1.4c1.2,0.9,2.1,2,2.7,3.4
				s0.8,2.9,0.7,4.7c-0.1,1.7-0.6,3.3-1.4,4.6s-1.9,2.3-3.2,2.9c-1.3,0.6-2.8,0.9-4.2,0.8c-1.6-0.1-3-0.6-4.2-1.5s-2.1-2-2.6-3.4
				C267.3,159,267,157.5,267.2,156z M269.5,156.2c-0.1,2.1,0.3,3.7,1.3,5s2.4,2,4,2.1c1.7,0.1,3.1-0.4,4.3-1.5c1.2-1.1,1.9-2.8,2-5
				c0.1-1.4,0-2.6-0.4-3.7c-0.4-1.1-1-1.9-1.9-2.6c-0.9-0.6-1.9-1-3-1.1c-1.6-0.1-3,0.3-4.3,1.3
				C270.4,151.9,269.7,153.7,269.5,156.2z"/>
			<path class="st9" d="M285.8,165.8l1.3-17.1l7.6,0.6c1.5,0.1,2.7,0.4,3.4,0.7s1.4,1,1.8,1.8s0.6,1.7,0.5,2.6
				c-0.1,1.2-0.6,2.2-1.4,3c-0.9,0.8-2.1,1.2-3.8,1.3c0.6,0.3,1,0.6,1.3,0.9c0.6,0.7,1.2,1.5,1.7,2.4l2.6,4.9l-2.9-0.2l-2-3.7
				c-0.6-1.1-1.1-1.9-1.5-2.5s-0.7-1-1.1-1.2c-0.3-0.2-0.6-0.4-1-0.5c-0.2-0.1-0.7-0.1-1.2-0.2l-2.6-0.2l-0.6,7.6L285.8,165.8z
				 M288.8,156.4l4.9,0.4c1,0.1,1.9,0,2.5-0.1s1.1-0.5,1.4-0.9s0.5-0.9,0.6-1.5c0.1-0.8-0.2-1.5-0.7-2.1s-1.5-0.9-2.7-1l-5.4-0.4
				L288.8,156.4z"/>
			<path class="st9" d="M303,167.1l1.3-17.1l6.4,0.5c1.3,0.1,2.3,0.4,3.1,0.8c0.8,0.4,1.3,1,1.7,1.7c0.4,0.8,0.6,1.5,0.5,2.3
				c0,0.7-0.3,1.4-0.8,2c-0.4,0.6-1.1,1.1-1.9,1.4c1,0.4,1.8,1,2.3,1.7c0.5,0.8,0.7,1.7,0.6,2.6c-0.1,0.8-0.3,1.5-0.7,2.2
				c-0.4,0.7-0.9,1.2-1.4,1.5s-1.2,0.6-1.9,0.7c-0.8,0.1-1.7,0.2-2.8,0.1L303,167.1z M305.4,165.2l4.3,0.3c0.7,0.1,1.2,0.1,1.5,0
				c0.5-0.1,1-0.2,1.3-0.4s0.7-0.5,0.9-0.9c0.3-0.4,0.4-0.9,0.5-1.4c0-0.6-0.1-1.2-0.4-1.7s-0.7-0.9-1.3-1.1s-1.4-0.4-2.5-0.5
				l-4-0.3L305.4,165.2z M306,157.3l3.7,0.3c1,0.1,1.7,0.1,2.2,0c0.6-0.1,1-0.4,1.4-0.8c0.3-0.4,0.5-0.9,0.5-1.5s-0.1-1.1-0.3-1.5
				s-0.6-0.8-1.1-1s-1.4-0.3-2.6-0.4l-3.4-0.2L306,157.3z"/>
			<path class="st9" d="M319.4,168.3l1.3-17.1l2.3,0.2l-1.3,17.1L319.4,168.3z"/>
			<path class="st9" d="M325.6,168.8l1.3-17.1l5.9,0.4c1.3,0.1,2.3,0.3,3,0.5c1,0.3,1.8,0.8,2.4,1.4c0.9,0.8,1.5,1.9,1.8,3.1
				s0.5,2.6,0.4,4.1c-0.1,1.3-0.3,2.4-0.7,3.4s-0.8,1.8-1.4,2.4c-0.5,0.6-1.1,1.1-1.7,1.4c-0.6,0.3-1.3,0.6-2.1,0.7
				c-0.8,0.1-1.7,0.2-2.8,0.1L325.6,168.8z M328,166.9l3.6,0.3c1.1,0.1,2,0,2.7-0.1c0.7-0.2,1.2-0.4,1.6-0.8c0.6-0.5,1-1.2,1.4-2.1
				c0.4-0.9,0.6-2,0.7-3.3c0.1-1.8-0.1-3.2-0.6-4.2s-1.2-1.7-2-2.1c-0.6-0.3-1.6-0.5-2.9-0.6l-3.6-0.3L328,166.9z"/>
			<path class="st9" d="M342.9,170.1l1.3-17.1l5.9,0.4c1.3,0.1,2.3,0.3,3,0.5c1,0.3,1.8,0.8,2.4,1.4c0.9,0.8,1.5,1.9,1.8,3.1
				s0.5,2.6,0.4,4.1c-0.1,1.3-0.3,2.4-0.7,3.4s-0.8,1.8-1.4,2.4c-0.5,0.6-1.1,1.1-1.7,1.4c-0.6,0.3-1.3,0.6-2.1,0.7
				c-0.8,0.1-1.7,0.2-2.8,0.1L342.9,170.1z M345.3,168.2l3.6,0.3c1.1,0.1,2,0,2.7-0.1c0.7-0.2,1.2-0.4,1.6-0.8
				c0.6-0.5,1-1.2,1.4-2.1c0.4-0.9,0.6-2,0.7-3.3c0.1-1.8-0.1-3.2-0.6-4.2s-1.2-1.7-2-2.1c-0.6-0.3-1.6-0.5-2.9-0.6l-3.6-0.3
				L345.3,168.2z"/>
			<path class="st9" d="M360.2,171.3l1.3-17.1l12.4,0.9l-0.1,2l-10.1-0.8l-0.4,5.2l9.5,0.7l-0.1,2l-9.5-0.7l-0.4,5.8l10.5,0.8
				l-0.1,2L360.2,171.3z"/>
			<path class="st9" d="M376,172.5l1.3-17.1l2.3,0.2l8,14.1l1-13.4l2.2,0.2l-1.3,17.1l-2.3-0.2l-8-14.1l-1,13.4L376,172.5z"/>
		</g>
	</g>
</g>
<g id="Character_1_">
	<g>
		<path class="st11" d="M169.9,164.9l0.3,2l0.4,2.1c0.3,1.4,0.5,2.8,0.9,4.2c0.6,2.8,1.3,5.5,2.1,8.2c0.4,1.3,0.8,2.6,1.3,3.9
			c0.5,1.3,0.9,2.5,1.5,3.7c1.1,2.4,2.3,4.5,3.7,6.2l-2.7-1.8c0.6,0.3,1.2,0.6,2.3,0.5c1-0.1,2.4-0.4,3.7-1.1
			c1.4-0.7,2.9-1.6,4.3-2.7c0.7-0.5,1.4-1.1,2.1-1.7c0.4-0.3,0.7-0.6,1.1-0.9c0.3-0.3,0.7-0.6,1-0.9l0.5-0.4c1.6-1.3,3.9-1,5.2,0.6
			c0.9,1.1,1,2.6,0.5,3.9c-0.3,0.6-0.5,1.1-0.8,1.6s-0.5,1-0.8,1.5c-0.6,1-1.2,1.9-1.9,2.9c-1.4,1.9-2.9,3.7-4.9,5.3
			c-1,0.8-2.1,1.6-3.2,2.3s-2.5,1.3-4,1.8c-1.5,0.4-3.1,0.7-4.7,0.8s-3.4-0.2-5-0.7c-0.9-0.3-1.7-0.8-2.4-1.4l-0.4-0.4
			c-2.8-2.8-4.8-5.9-6.5-9s-3-6.2-4.1-9.4c-1.1-3.1-2-6.3-2.8-9.5c-0.4-1.6-0.7-3.2-1-4.8c-0.1-0.8-0.3-1.6-0.4-2.4
			c-0.1-0.8-0.2-1.6-0.3-2.6c-0.4-4.1,2.5-7.8,6.6-8.3c4-0.4,7.5,2.3,8.2,6.2L169.9,164.9z"/>
		<path class="st10" d="M191.7,186.1c-2.1,0.7-4.6,3.1-3.8,6s9.3,5,9.6-0.1C195,187,191.7,186.1,191.7,186.1z"/>
		<path class="st12" d="M190.5,188.9l0.9-1.4l9.3-2.5c0,0,1.4,5.9-5.4,8.2c-0.5,0.2-1,0.1-1.4-0.1l-2.7-1.4
			C190.3,191.1,189.9,189.8,190.5,188.9z"/>
		<path class="st11" d="M120.1,154.8c11.9-2.2,28.1-2.6,39.8-0.6c6,1,10.2,6.4,9.6,12.5c-0.7,7.7-1.5,14.5-2,19.9
			c0.5,13.6-0.6,36.2-0.6,40.9l-49.7,0.7c-2.2-6.2-1.5-34.1-5.4-62.2C111.2,160.7,114.8,155.7,120.1,154.8z"/>
		<path class="st13" d="M145.6,227.5l-1-0.1c2.8-22.2,0-59.5,0-59.9l1-0.1C145.6,167.8,148.4,205.2,145.6,227.5z"/>
		<path class="st7" d="M150.1,155.3c-2-0.5-0.2-2.6-0.2-2.6s8.9,0,15,1.2c0.9,0.7-0.1,1.6-0.1,1.6S155.9,156.9,150.1,155.3z"/>
		<path class="st14" d="M147.3,152.5c0,0,2.9,5.9-1,11.3c3.1,0,6,2,6,2s1.4-5.1-2.6-12.8C149.3,152.2,147.3,152.5,147.3,152.5z"/>
		<path class="st7" d="M150.4,155.3c0.8,3.6-5.9,10.4-5.9,10.4s-11.9-6.2-12.6-9.8L150.4,155.3z"/>
		<path d="M119.4,172.4c1.3,2.5-0.3,13.1-5,18.2c-0.3-4.6-0.7-9.4-1.2-14.2L119.4,172.4z"/>
		<path class="st12" d="M133.2,136.8l13.4,6.4c-1.4,3.8-2.1,7.8,1.9,9.7c2.3,1.1,3.3,4,1.9,6.3c-1.1,1.9-3.1,3.6-6.1,3.9
			c-4.7,0.5-9.3-2.5-11.9-5.4c-1.1-1.2,0-2.5,0.1-4.1C133,147.9,133.9,141.9,133.2,136.8z"/>
		<path class="st14" d="M139.4,138.1l7.2,5.2c-0.4,1.1-0.8,2.2-0.9,3.3c-3,1-7.7-1.6-7.8-4.2C137.8,141,139,138.7,139.4,138.1z"/>
		<path class="st9" d="M148.8,115.1c2.6,2.1,5.5,11.4,1.7,15.2C144.9,123.8,144.3,114.1,148.8,115.1z"/>
		<path class="st12" d="M129.4,125.9c1,8,1.2,12.7,5.5,16.5c6.5,5.7,16.1,1.3,17.5-6.8c1.2-7.3-0.6-19.1-8.7-21.7
			C135.9,111.3,128.4,117.9,129.4,125.9z"/>
		<path d="M129.7,132.8c3.8,0.3,5.1-8.9,2.7-14c1.6,0.7,6.3,0,7.6-2.1c7.5,2.2,10.4,2.2,11.3-0.9c1-3.1-10.9-5.8-17.8-4.4
			s-4.8,6.4-4.8,6.4S117.2,121.5,129.7,132.8z"/>
		<path class="st12" d="M126.9,133.4c1.2,1.8,2.9,2.9,4.4,3.3c2.3,0.6,3.1-1.8,2.2-4.1c-0.9-2.1-3.1-4.9-5.3-4.5
			C126.1,128.6,125.6,131.3,126.9,133.4z"/>
		<path class="st9" d="M140.1,127.2c0,0.7,0.4,1.2,0.9,1.1c0.4,0,0.7-0.6,0.7-1.2s-0.4-1.2-0.9-1.1S140.1,126.6,140.1,127.2z"/>
		<path class="st9" d="M148.9,126.5c0,0.7,0.4,1.2,0.9,1.1c0.4,0,0.7-0.6,0.7-1.2c0-0.7-0.4-1.2-0.9-1.1
			C149.2,125.3,148.9,125.9,148.9,126.5z"/>
		<path class="st15" d="M147.5,127.2c0,0,1.7,3.6,3.5,5.4c-1.1,1.2-3.1,0.8-3.1,0.8L147.5,127.2z"/>
		<path class="st9" d="M143.5,122.1c0,0.1,0.1,0.1,0.1,0.2c0.1,0.2-0.1,0.4-0.3,0.5c-2.1,0.5-3.4-0.7-3.4-0.8
			c-0.1-0.2-0.2-0.4,0-0.5c0.1-0.2,0.4-0.2,0.5,0l0,0c0,0,1.1,1,2.7,0.6C143.2,121.9,143.4,122,143.5,122.1z"/>
		<path class="st9" d="M145.1,124c-0.1,0-0.1-0.1-0.1-0.1c-0.1-0.2-0.1-0.4,0.1-0.5c1.8-1.1,3.4-0.3,3.5-0.3
			c0.2,0.1,0.3,0.3,0.2,0.5s-0.3,0.3-0.5,0.2l0,0c-0.1,0-1.3-0.6-2.8,0.3C145.3,124,145.2,124,145.1,124z"/>
		<path class="st9" d="M152.6,120.3c-0.1,0-0.2,0-0.4-0.1c-1.3-1.1-2.6-0.7-2.7-0.7c-0.2,0.1-0.4-0.1-0.5-0.2s0.1-0.4,0.2-0.5
			c0.1,0,1.8-0.5,3.4,0.8c0.2,0.1,0.2,0.4,0.1,0.5C152.7,120.3,152.6,120.3,152.6,120.3z"/>
		<g>
			<path d="M196.2,220L196.2,220c-0.4-0.8-1.4-1.1-2.3-0.7l-12.2,6.6l-5.8-10.7c-0.4-0.8-1.4-1.1-2.3-0.7s-1.1,1.4-0.7,2.3l5.8,10.7
				l-42.2,22.8c-0.8,0.4-1.1,1.4-0.7,2.3l0,0c0.4,0.8,1.4,1.1,2.3,0.7l57.3-31C196.3,221.8,196.6,220.8,196.2,220z"/>
			<path class="st7" d="M195.3,276.2c-20-15-81.6-21-60.3-48.4l32-0.3c0,0,45,23.1,47.4,47.3c2.5,25.1,7,64.7,7,64.7l-12.4,4.4
				C209,343.8,190.9,295.3,195.3,276.2z"/>
			<path class="st14" d="M136.1,241.5c-0.7,1.6-1.4,3.3-2.1,5.1c5,5.6,14.8,10,25.4,14C156.2,254.8,148.9,248.4,136.1,241.5z"/>
			<path class="st11" d="M209.1,348.2l12.8-3.3c0.8-0.2,1.7-0.2,2.4,0.1c4.5,2,7.3,1.4,11.8,1.1c5.3-0.3,4.1,5.4,0.4,6.3
				c-6.2,1.6-5.7,1.2-10.9,2.6c-1.2,0.3-3.6,0.9-3.6,0.9l-2.1-1.3l-1,2c0,0-4.1,1-6.8,1.6c-0.8,0.2-1.5-0.3-1.6-1L209.1,348.2z"/>
			<path class="st11" d="M209.5,349.5c0.2-0.1,14.6-4.1,14.6-4.1l-2.2-11.1l-16,4.3L209.5,349.5z"/>
		</g>
		<g>
			<path class="st7" d="M119.8,309.8c0.6-36.4-7.1-73.5-2.5-81.7l37.1-0.5c0,0-11.1,60.8-14,85c-3,25.2-18,90.9-18,90.9l-12,0.2
				C110.4,403.7,111.8,336,119.8,309.8z"/>
			<path class="st11" d="M110,405.6l11-0.2c0.8,0,1.7,0.2,2.4,0.7c4,3,4.4,3.1,8.8,3.9c5.3,0.9,2.9,6.2-0.9,6.2
				c-6.4,0.1-5.8-0.1-11.3,0c-1.2,0-5.9,0-5.9,0l-0.9-1.7l-1,1.7h-1.6c-0.8,0-1.4-0.6-1.3-1.4L110,405.6z"/>
			<path class="st11" d="M109.9,406.9c0.2,0,13.8,0.6,13.8,0.6l0.9-12.5l-14.8,0.4L109.9,406.9z"/>
		</g>
		<path class="st10" d="M146.8,151.8c0,0,3.4,6.6-0.5,12c3.1,0,6.6,1.4,6.6,1.4s2.8-6.8-3.4-12.8
			C149.1,151.6,146.8,151.8,146.8,151.8z"/>
		<g>
			<path class="st9" d="M115.9,232c17.7,1.1,38.1,1.4,50.8,0c0.1,0,0.3-0.1,0.4-0.3c0.8-1.6,1.2-4.4,1.1-6.8c0-0.4-0.2-0.6-0.5-0.6
				c-16.8,0.6-33.5,0.6-51,0c-0.2,0-0.4,0.2-0.4,0.4c-0.6,2.1-0.9,4.3-0.8,6.6C115.5,231.7,115.7,232,115.9,232z"/>
			<path class="st14" d="M115.9,232c17.7,1.1,38.1,1.4,50.8,0c0.1,0,0.3-0.1,0.4-0.3c0.8-1.6,1.2-4.4,1.1-6.8c0-0.4-0.2-0.6-0.5-0.6
				c-16.8,0.6-33.5,0.6-51,0c-0.2,0-0.4,0.2-0.4,0.4c-0.6,2.1-0.9,4.3-0.8,6.6C115.5,231.7,115.7,232,115.9,232z"/>
		</g>
		<path class="st10" d="M146.2,234.7c-1.9,0-3.6-0.2-3.8-0.2l-0.9-0.1v-0.9c0-0.2-0.1-5.4,0.2-9.5l0.1-0.8l0.8-0.1
			c3.8-0.4,7.4-0.1,7.6-0.1l0.9,0.1v0.9c0,0.2,0.2,5.9-0.3,9.6l-0.1,0.6l-0.6,0.2C149.1,234.6,147.6,234.7,146.2,234.7z
			 M143.6,232.6c1.5,0.1,3.8,0.2,5.4-0.1c0.3-2.6,0.3-6,0.3-7.6c-1.2,0-3.3-0.1-5.5,0.1C143.5,227.9,143.5,231.1,143.6,232.6z"/>
		<path class="st7" d="M126.9,224.3c0,0-0.3,5.6-0.7,9.2c-0.8,0.8-2.3,0.2-2.3,0.2s0.3-5.2,0.7-9.3
			C125.8,224,126.9,224.3,126.9,224.3z"/>
		<path class="st7" d="M163.6,224.3c0,0-0.3,5.6-0.7,9.2c-0.8,0.8-2.3,0.2-2.3,0.2s0.3-5.2,0.6-9.3
			C162.4,224,163.6,224.3,163.6,224.3z"/>
		<g>
			<path class="st7" d="M152,173.6c0.5,7.2,5.1,8.9,5.8,8.8c0.6,0,5-1.8,4.5-9.1c-1.8,0.1-3.6-0.8-5.3-1.9
				C155.5,172.9,153.9,173.6,152,173.6z"/>
		</g>
		<g>
			<path class="st9" d="M151,114.4c5.1,0.9,7.1,3.3-4.5,4.7c-11.6,1.4-20.2,0.3-20.2,0.3S141.8,114.4,151,114.4z"/>
			<path class="st7" d="M125.4,120c0,0,10.1-3.4,25.9-5.3c0.3-3.2-2.2-5.5-2.2-5.5s5.9-1.1,2.9-2.8c-2-1.2-6.8-1.3-12.1-4.7
				c-2.2,2-8.1,5.2-12.2,5.6c-1,1.7-3.6,6-7.9,7.7c0.1,1.9,4.3,2.4,4.3,2.4S124,118.7,125.4,120z"/>
			<path class="st16" d="M124.2,117.4c8.6-5.6,16.9-8,24.9-8.2c0,0,2.5,2.3,2.2,5.5c-15.9,1.8-25.9,5.3-25.9,5.3
				C124,118.7,124.2,117.4,124.2,117.4z"/>
		</g>
		<g>
			<path class="st10" d="M139.5,107.7c1,4.9,4.5,5.8,4.9,5.8c0.5,0,3.5-1.5,2.5-6.4c-1.3,0.1-2.7-0.3-4-1.1
				C142,107,140.9,107.6,139.5,107.7z"/>
		</g>
		<path class="st9" d="M145.4,123.1c1.1,0.2,3,8.7-2.9,9.2c-5,0.4-6.6-4.2-6.6-5.8C135.8,124.1,143.7,122.8,145.4,123.1z"/>
		<path class="st9" d="M147.9,123c-0.7,0.4,0.9,9.6,5,8.6c3.5-0.8,2.9-5.8,2.3-7.4C154.4,121.8,148.9,122.4,147.9,123z"/>
		<g class="st17">
			<path class="st10" d="M143.2,123.2l3.1,5.7c-0.3,1.1-0.8,2.1-1.7,2.7l-4.3-7.8C141.4,123.4,142.4,123.3,143.2,123.2z"/>
			<path class="st10" d="M139.1,124l4.4,8c-0.3,0.1-0.7,0.2-1.1,0.2c-0.2,0-0.5,0-0.7,0l-4.2-7.6C138,124.4,138.5,124.2,139.1,124z"
				/>
			<path class="st10" d="M152.9,122.6l2.8,5c-0.1,0.9-0.2,1.7-0.7,2.4l-4.2-7.7C151.5,122.4,152.2,122.5,152.9,122.6z"/>
			<path class="st10" d="M154.4,130.8c-0.2,0.2-0.5,0.4-0.9,0.6l-4.8-8.7c0.3-0.1,0.7-0.1,1.1-0.2L154.4,130.8z"/>
		</g>
		<g>
			<g>
				<path class="st7" d="M209.1,177.9c0.5-0.2-0.3-2.3-0.9-2l-69.9,29.3c-0.2-0.3-0.5-0.4-0.8-0.3l-2.9,1.2
					c-0.3,0.1-0.4,0.4-0.4,0.8l-9.2,3.9c-2.1,0.9-3.9,2.2-5.4,3.8l-4.1,4.6c-0.2,2.2-2,3.9-4.2,3.9h-0.6l-21.1,12.8
					c-1.6,1-2.4,2.9-1.9,4.7c0.9,3.5,2.2,6.4,3.7,8.6c1.4,2.2,4.5,2.5,6.4,0.7l21.4-20.6c0.9-0.9,1.5-2,1.6-3.3l0.3-2.6l4.6-5.2
					c1.3,2.2,4.1,3.2,6.6,2.2c2.7-1.1,3.9-4.2,2.8-6.9c0-0.1-0.1-0.1-0.1-0.2l1.7-0.7c0.2,0.3,0.5,0.4,0.8,0.3l2.9-1.2
					c0.3-0.1,0.5-0.5,0.4-0.8l40.8-17.1c0.5-0.2,0.7-0.7,0.5-1.2l0,0l22-9.2c0.3-0.1-0.2-1.4-0.5-1.2l-1.6,0.7l-0.1-1.8L209.1,177.9
					z M131.6,219.4c-2.1,0.9-4.4-0.1-5.3-2.1l0.6-0.7l0.3-0.1c0.3,0.4,0.6,0.7,0.9,1c1.1,0.9,2.5,1.2,3.9,1.1l-0.1-1.1
					c-1.1,0.1-2.2-0.2-3.1-0.9c-0.2-0.2-0.4-0.3-0.6-0.5l5.5-2.3c0,0.1,0.1,0.1,0.1,0.2C134.8,216.1,133.8,218.5,131.6,219.4z
					 M199.8,183.6l-18.4,7.7l-0.6-1.5l18.9-7.9L199.8,183.6z"/>
				<path class="st14" d="M209.1,177.9c0.5-0.2-0.3-2.3-0.9-2l-69.9,29.3c-0.2-0.3-0.5-0.4-0.8-0.3l-2.9,1.2
					c-0.3,0.1-0.4,0.4-0.4,0.8l-9.2,3.9c-2.1,0.9-3.9,2.2-5.4,3.8l-4.1,4.6c-0.2,2.2-2,3.9-4.2,3.9h-0.6l-21.1,12.8
					c-1.6,1-2.4,2.9-1.9,4.7c0.9,3.5,2.2,6.4,3.7,8.6c1.4,2.2,4.5,2.5,6.4,0.7l21.4-20.6c0.9-0.9,1.5-2,1.6-3.3l0.3-2.6l4.6-5.2
					c1.3,2.2,4.1,3.2,6.6,2.2c2.7-1.1,3.9-4.2,2.8-6.9c0-0.1-0.1-0.1-0.1-0.2l1.7-0.7c0.2,0.3,0.5,0.4,0.8,0.3l2.9-1.2
					c0.3-0.1,0.5-0.5,0.4-0.8l40.8-17.1c0.5-0.2,0.7-0.7,0.5-1.2l0,0l22-9.2c0.3-0.1-0.2-1.4-0.5-1.2l-1.6,0.7l-0.1-1.8L209.1,177.9
					z M131.6,219.4c-2.1,0.9-4.4-0.1-5.3-2.1l0.6-0.7l0.3-0.1c0.3,0.4,0.6,0.7,0.9,1c1.1,0.9,2.5,1.2,3.9,1.1l-0.1-1.1
					c-1.1,0.1-2.2-0.2-3.1-0.9c-0.2-0.2-0.4-0.3-0.6-0.5l5.5-2.3c0,0.1,0.1,0.1,0.1,0.2C134.8,216.1,133.8,218.5,131.6,219.4z
					 M199.8,183.6l-18.4,7.7l-0.6-1.5l18.9-7.9L199.8,183.6z"/>
			</g>
			<path class="st7" d="M182.1,189.6l-19.4,8.1c-0.7,0.3-1,1-0.8,1.7l0.8,2.2c0.3,0.7,1.1,1.1,1.8,0.8l19.4-8.1c0.7-0.3,1-1,0.8-1.7
				l-0.8-2.2C183.6,189.7,182.8,189.3,182.1,189.6z"/>
		</g>
		<path class="st12" d="M194.4,182.1l0.7-0.2c1.7-0.5,3.6,0.1,4.8,1.4l0.6,0.7c0.7,0.8,0.4,2-0.6,2.4l-6.6,2.7
			c-0.8,0.3-1.7-0.1-2-0.9l0,0C190.3,185.7,191.7,182.8,194.4,182.1z"/>
		<path class="st11" d="M124.6,168.2l-0.5,0.6l-0.6,0.7l-1.2,1.5c-0.8,1-1.6,2-2.3,3.1c-1.5,2.1-3,4.2-4.5,6.4s-2.8,4.4-4.2,6.6
			c-1.3,2.3-2.6,4.6-3.8,6.9l-0.9,1.8l-0.2,0.4c0,0.1-0.1,0.1-0.1,0.1c-0.1,0.1-0.1,0.2-0.2,0.4c-0.2,0.5-0.4,1.4-0.5,2.3
			c-0.1,1.9,0.1,4.3,0.6,6.8c0.9,4.9,2.6,10.1,4.3,15.1l0.1,0.2c0.7,2-0.4,4.1-2.3,4.8c-1.5,0.5-3.2,0-4.2-1.2
			c-1.9-2.4-3.5-4.8-4.9-7.4c-1.5-2.6-2.8-5.3-3.9-8.1c-1.1-2.9-2-6-2.3-9.6c-0.1-1.8-0.2-3.8,0.3-5.9c0.1-0.5,0.2-1.1,0.4-1.6
			l0.3-0.8l0.2-0.5l0.8-2.1c2.2-5.5,4.8-10.8,7.8-15.9c1.5-2.5,3.1-5,4.9-7.4c0.9-1.2,1.8-2.4,2.7-3.6c0.5-0.6,0.9-1.2,1.5-1.8
			l0.8-0.9l0.9-1c2.8-3,7.6-3.2,10.6-0.4c2.9,2.7,3.2,7.3,0.7,10.3L124.6,168.2z"/>
		<path class="st7" d="M132.4,156.1c2-0.7-0.5-2.9-0.5-2.9s-10.6,0.3-16.9,2c-0.9,0.9,0.1,2,0.1,2S126.5,158.2,132.4,156.1z"/>
		<path class="st14" d="M132.3,153c0,0,1.6,5.9,8.7,10.8c-3.1,0-7.5,3.1-7.5,3.1s-4.2-5.2-2.7-13.4C131.2,152.8,132.3,153,132.3,153
			z"/>
		<path class="st10" d="M132.5,152c0,0,1.9,6.4,8.5,11.8c-3.1,0-7.8,1.6-7.8,1.6s-3.9-3.7-2.4-11.9C131.2,152.8,132.5,152,132.5,152
			z"/>
		<path class="st12" d="M109.6,220.4l6.2,5.4l-8.2,5.4c0,0-5-5.5-2.5-8.7L109.6,220.4z"/>
		<path class="st10" d="M104.2,224.9c0,0-1.3-1-1.7-2.2c2-2.1,6-3.7,7.8-4.2c1.1,1,1.2,3.2,1.2,3.2S106.2,222.6,104.2,224.9z"/>
		<path class="st12" d="M116.5,234.2l-3.2,1.4c-1.3,0.6-2.8,0.1-3.5-1.1l-2.2-3.4l8.2-5.4l2.2,4.7
			C118.7,231.9,118,233.6,116.5,234.2z"/>
		<path class="st9" d="M141.5,136L141.5,136c3.4-2.1,6.5-0.7,6.6-0.7c0.1,0.1,0.2,0.2,0.1,0.3c-0.1,0.1-0.2,0.2-0.3,0.1
			c0,0-2.9-1.3-6.1,0.6c-0.1,0.1-0.3,0-0.4-0.1C141.4,136.3,141.4,136.1,141.5,136z"/>
		<polygon class="st10" points="125.2,173.5 138.6,173 138.6,171.9 125.1,172.4 		"/>
	</g>
</g>
<g id="Barricade">
	<g>
		<g>
			<g>
				<polygon class="st7" points="241.9,417.5 215.7,417.5 234.7,266.3 260.9,266.3 				"/>
				<polygon class="st18" points="241.9,417.5 215.7,417.5 234.7,266.3 260.9,266.3 				"/>
			</g>
			<polygon class="st9" points="213.4,417.5 215.7,417.5 234.7,266.3 232.4,266.3 			"/>
		</g>
		<g>
			<g>
				<polygon class="st7" points="339.5,417.5 313.4,417.5 332.4,266.3 358.6,266.3 				"/>
				<polygon class="st18" points="339.5,417.5 313.4,417.5 332.4,266.3 358.6,266.3 				"/>
			</g>
			<polygon class="st9" points="311,417.5 313.4,417.5 332.4,266.3 330,266.3 			"/>
		</g>
		<g>
			<g>
				<polygon class="st7" points="266.1,399.5 361.1,399.5 356.9,366.6 262,366.6 				"/>
				<polygon class="st9" points="266.1,399.5 264.6,399.5 260.4,366.6 262,366.6 				"/>
				<g>
					<polygon class="st10" points="355.9,368 359.6,398 354,398 339,368 					"/>
					<polygon class="st10" points="329.4,368 344.5,398 323.9,398 308.8,368 					"/>
					<polygon class="st10" points="299.2,368 314.3,398 293.7,398 278.6,368 					"/>
					<polygon class="st10" points="269,368 284.1,398 267.2,398 263.4,368 					"/>
				</g>
			</g>
			<g>
				<polygon class="st7" points="352,417.5 378.2,417.5 359.1,266.3 333,266.3 				"/>
				<polygon class="st14" points="341.4,333.6 369,344.5 361.1,281.7 334.9,281.7 				"/>
				<polygon class="st9" points="352,417.5 349.6,417.5 330.6,266.3 333,266.3 				"/>
			</g>
			<g>
				<polygon class="st7" points="254.3,417.5 280.5,417.5 261.5,266.3 235.3,266.3 				"/>
				<polygon class="st14" points="243.8,333.6 271.3,344.5 263.4,281.7 237.2,281.7 				"/>
				<polygon class="st9" points="254.3,417.5 252,417.5 233,266.3 235.3,266.3 				"/>
			</g>
			<g>
				<polygon class="st7" points="233.3,326.7 376.3,326.7 370.1,277.1 227.1,277.1 				"/>
				<polygon class="st9" points="233.3,326.7 231,326.7 224.8,277.1 227.1,277.1 				"/>
				<g>
					<polygon class="st10" points="368.4,279.3 374.1,324.5 365.7,324.5 343,279.3 					"/>
					<polygon class="st10" points="328.6,279.3 351.3,324.5 320.2,324.5 297.6,279.3 					"/>
					<polygon class="st10" points="283.2,279.3 305.9,324.5 274.8,324.5 252.1,279.3 					"/>
					<polygon class="st10" points="237.7,279.3 260.4,324.5 235,324.5 229.3,279.3 					"/>
				</g>
			</g>
		</g>
	</g>
</g>
</svg>
