<?xml version="1.0" encoding="utf-8"?>
<!-- Generator: Adobe Illustrator 26.0.3, SVG Export Plug-In . SVG Version: 6.00 Build 0)  -->
<svg version="1.1" id="Layer_1" xmlns="http://www.w3.org/2000/svg" xmlns:xlink="http://www.w3.org/1999/xlink" x="0px" y="0px"
	 viewBox="0 0 500 500" style="enable-background:new 0 0 500 500;" xml:space="preserve">
<style type="text/css">
	.st0{display:none;}
	.st1{display:inline;fill:#EBEBEB;}
	.st2{fill:#EBEBEB;}
	.st3{fill:#E0E0E0;}
	.st4{fill:#F0F0F0;}
	.st5{display:inline;}
	.st6{fill:#407BFF;}
	.st7{opacity:0.9;fill:#FFFFFF;enable-background:new    ;}
	.st8{fill:#F5F5F5;}
	.st9{enable-background:new    ;}
	.st10{fill:#000033;}
	.st11{fill:#263238;}
	.st12{fill:#3366FF;}
	.st13{opacity:0.3;fill:#407BFF;enable-background:new    ;}
	.st14{fill:#FFFFFF;}
	.st15{opacity:0.3;fill:#FFFFFF;enable-background:new    ;}
	.st16{fill:#4D585B;}
	.st17{opacity:0.2;fill:#000033;enable-background:new    ;}
</style>
<g id="Background_Complete">
	<g class="st0">
		<rect y="382.4" class="st1" width="500" height="0.2"/>
		<rect x="428.2" y="398.5" class="st1" width="21.7" height="0.2"/>
		<rect x="310.6" y="393.3" class="st1" width="34.1" height="0.2"/>
		<rect x="396.6" y="389.2" class="st1" width="44.5" height="0.2"/>
		<rect x="161.9" y="394.2" class="st1" width="11.1" height="0.2"/>
		<rect x="114.6" y="394.2" class="st1" width="38.4" height="0.2"/>
		<rect x="66.3" y="390" class="st1" width="27.7" height="0.2"/>
		<path class="st1" d="M237,337.8H43.9c-3.2,0-5.7-2.6-5.7-5.7V60.7c0-3.2,2.6-5.7,5.7-5.7H237c3.1,0,5.7,2.6,5.7,5.7v271.4
			C242.7,335.2,240.2,337.8,237,337.8z M43.9,55.2c-3,0-5.5,2.5-5.5,5.5v271.4c0,3,2.5,5.5,5.5,5.5H237c3,0,5.5-2.5,5.5-5.5V60.7
			c0-3-2.4-5.5-5.5-5.5H43.9z"/>
		<path class="st1" d="M453.3,337.8H260.2c-3.1,0-5.7-2.6-5.7-5.7V60.7c0-3.2,2.6-5.7,5.7-5.7h193.1c3.1,0,5.7,2.6,5.7,5.7v271.4
			C459,335.2,456.5,337.8,453.3,337.8z M260.2,55.2c-3,0-5.5,2.5-5.5,5.5v271.4c0,3,2.4,5.5,5.5,5.5h193.1c3,0,5.5-2.5,5.5-5.5V60.7
			c0-3-2.5-5.5-5.5-5.5H260.2z"/>
	</g>
	<g>
		<g>
			<path class="st2" d="M216.1,200.9l0.4-13.1l-8.1-2.6c-0.3-4.5-1.1-8.9-2.1-13.2l6.8-5l-4.6-12.3l-8.5,0.7c-2-4-4.4-7.8-7-11.4
				l4.4-7.3l-9-9.6l-7.6,3.9c-3.4-2.9-7-5.5-10.8-7.8l1.2-8.4l-12-5.4l-5.5,6.4c-4.2-1.4-8.5-2.4-13-3.1l-2-8.2l-13.2-0.4l-2.6,8.1
				c-4.5,0.4-8.9,1.1-13.2,2.2l-5.1-6.8l-12.3,4.6l0.7,8.5c-4,2.1-7.8,4.4-11.3,7.1l-7.3-4.4l-9.7,9l3.9,7.6
				c-2.9,3.4-5.5,7-7.8,10.8l-8.4-1.3l-5.5,12l6.5,5.5c-1.4,4.2-2.4,8.6-3,13l-8.3,2.1l-0.5,13.1l8.1,2.6c0.3,4.5,1.1,8.9,2.2,13.2
				l-6.8,5l4.7,12.3l8.5-0.7c2,4,4.4,7.8,7,11.4l-4.4,7.3l9,9.6l7.6-3.9c3.4,2.9,7,5.5,10.8,7.8l-1.3,8.4l12,5.5l5.5-6.4
				c4.2,1.4,8.5,2.4,13,3l2,8.2l13.2,0.5l2.6-8.1c4.5-0.4,8.9-1.1,13.2-2.1l5,6.8l12.3-4.6l-0.6-8.5c4-2,7.8-4.4,11.4-7.1l7.3,4.4
				l9.6-9l-3.9-7.6c2.9-3.4,5.5-7,7.8-10.8l8.4,1.3l5.5-12l-6.5-5.5c1.4-4.2,2.4-8.5,3.1-13L216.1,200.9z M127.3,243.4
				c-28.8-1-51.3-25.1-50.3-53.9s25.1-51.4,53.9-50.4s51.3,25.1,50.3,53.9C180.2,221.9,156.1,244.4,127.3,243.4z"/>
		</g>
		<g>
			<path class="st2" d="M441,157.4l3.3-3.1l-1.3-2.6c1-1.2,1.9-2.4,2.7-3.7l2.9,0.4l1.9-4.1l-2.2-1.9c0.5-1.5,0.8-3,1-4.5l2.9-0.7
				l0.1-4.5l-2.8-0.9c-0.1-1.5-0.4-3.1-0.7-4.6l2.4-1.8l-1.6-4.2l-2.9,0.2c-0.7-1.3-1.5-2.7-2.4-3.9l1.5-2.5l-3.1-3.3l-2.6,1.3
				c-1.2-1-2.4-1.9-3.7-2.7l0.4-2.9l-4.1-1.9l-1.9,2.2c-1.5-0.5-3-0.8-4.5-1l-0.7-2.8l-4.5-0.2l-0.9,2.8c-1.5,0.1-3,0.4-4.5,0.7
				l-1.7-2.3l-4.3,1.6l0.2,2.9c-1.4,0.7-2.7,1.5-3.9,2.4l-2.5-1.5l-3.3,3.1l1.3,2.6c-1,1.2-1.9,2.4-2.7,3.7l-2.9-0.4l-1.9,4.1
				l2.2,1.9c-0.5,1.5-0.8,3-1,4.5l-2.9,0.7l-0.1,4.5l2.8,0.9c0.1,1.5,0.4,3.1,0.7,4.6l-2.4,1.7l1.6,4.2l2.9-0.2
				c0.7,1.4,1.5,2.7,2.4,3.9l-1.5,2.5l3.1,3.3l2.6-1.3c1.2,1,2.4,1.9,3.7,2.7l-0.4,2.9l4.1,1.9l1.9-2.2c1.5,0.5,3,0.8,4.5,1l0.7,2.8
				l4.5,0.2l0.9-2.8c1.5-0.1,3-0.4,4.5-0.7l1.7,2.4l4.3-1.6l-0.2-2.9c1.4-0.7,2.7-1.5,3.9-2.4L441,157.4z M417.3,138.3
				c-2.4-2.6-2.3-6.7,0.3-9.1c2.6-2.4,6.7-2.3,9.1,0.3s2.3,6.7-0.3,9.1C423.9,141,419.8,140.9,417.3,138.3z"/>
		</g>
		<path class="st2" d="M320,292.3l-10.3-7.1l0,0c-1-3.8-2.4-7.4-4.2-10.8l2.6-10.4l-15-16.1l-10.6,1.9c-3.3-1.9-6.8-3.6-10.5-4.9
			l0,0l-6.4-10.8l-22-0.8l-7.1,10.3l0,0c-3.8,1-7.4,2.4-10.8,4.1l-10.4-2.6l-16.1,15l1.9,10.5l0,0c-2,3.3-3.6,6.8-4.9,10.5
			l-10.8,6.4l-0.8,22l10.4,7.1c1,3.8,2.4,7.4,4.1,10.8l0,0l-2.6,10.4l15,16.1L222,352c3.3,2,6.8,3.6,10.6,4.9l0,0l6.4,10.8l22,0.8
			l7.1-10.3c3.8-1,7.4-2.4,10.9-4.2l0,0l10.4,2.6l16.1-15l-1.9-10.5c2-3.3,3.6-6.8,4.9-10.5l0,0l10.8-6.4L320,292.3z M251.5,325.7
			c-13.6-0.5-24.3-11.9-23.9-25.5c0.5-13.6,11.9-24.3,25.6-23.9c13.6,0.5,24.3,11.9,23.9,25.5C276.6,315.5,265.2,326.2,251.5,325.7z
			"/>
		<path class="st2" d="M343.5,229.9L343.5,229.9l-17.4-0.6c-0.7,0-1.4-0.4-1.7-1l-4.7-7.9c-2.5-0.9-4.9-2-7.3-3.4l-7.5,1.4
			c-0.7,0.1-1.4-0.1-1.9-0.6l-11.8-12.7c-0.5-0.5-0.7-1.3-0.5-2l1.9-7.4c-1.1-2.4-2.1-4.9-2.9-7.5l-7.5-5.2
			c-0.6-0.4-0.9-1.1-0.9-1.8l0.6-17.3c0-0.7,0.4-1.4,1-1.7l7.9-4.7c0.9-2.6,2.1-5,3.4-7.2l-1.4-7.5c-0.1-0.7,0.1-1.4,0.6-1.9
			l12.7-11.8c0.5-0.5,1.3-0.7,2-0.5l7.4,1.9c2.4-1.2,4.9-2.1,7.5-2.9l5.2-7.5c0.4-0.6,1.1-1,1.8-0.9l17.3,0.6c0.7,0,1.4,0.4,1.7,1
			l4.7,7.9c2.5,0.9,4.9,2,7.2,3.4l7.5-1.4c0.7-0.1,1.4,0.1,1.9,0.6l11.8,12.7c0.5,0.5,0.7,1.3,0.5,2l-1.9,7.4
			c1.2,2.4,2.1,4.9,2.9,7.4l7.5,5.2c0.6,0.4,0.9,1.1,0.9,1.8l-0.6,17.3c0,0.7-0.4,1.4-1,1.7l-7.9,4.7c-0.9,2.6-2.1,5-3.4,7.2
			l1.4,7.5c0.1,0.7-0.1,1.4-0.6,1.9L367.3,220c-0.5,0.5-1.3,0.7-2,0.5l-7.4-1.9c-2.4,1.2-5,2.1-7.5,2.9l-5.2,7.5
			C344.9,229.6,344.2,229.9,343.5,229.9z M327.5,225.2l15,0.5l5-7.2c0.3-0.4,0.7-0.7,1.2-0.8c2.8-0.7,5.5-1.8,8.1-3.1l0,0
			c0.4-0.2,1-0.3,1.5-0.1l7,1.8l11-10.2l-1.3-7.2c-0.1-0.5,0-1,0.3-1.5c1.5-2.4,2.7-5,3.6-7.8c0.2-0.5,0.5-0.9,0.9-1.2l7.5-4.5
			l0.5-15l-7.2-5c-0.4-0.3-0.7-0.6-0.8-1.1c0-0.1,0-0.1,0-0.2c-0.8-2.8-1.8-5.5-3.1-8.1c-0.2-0.5-0.3-1-0.2-1.5l1.8-7.1l-10.2-11
			l-7.2,1.3c-0.5,0.1-1,0-1.5-0.3c-2.5-1.5-5.1-2.7-7.9-3.7c-0.1-0.1-0.3-0.1-0.4-0.2c-0.3-0.2-0.5-0.4-0.7-0.7l-4.5-7.5l-15-0.5
			l-5,7.2c-0.3,0.4-0.7,0.7-1.2,0.9c-2.8,0.8-5.5,1.8-8,3.1c-0.5,0.2-1,0.3-1.5,0.2l-7.1-1.8l-11,10.2l1.3,7.2
			c0.1,0.4,0,0.9-0.2,1.3c0,0.1-0.1,0.1-0.1,0.2c-1.5,2.4-2.7,5.1-3.6,7.9c-0.2,0.5-0.5,0.9-0.9,1.1l-7.5,4.5l-0.5,15l7.2,5
			c0.4,0.3,0.7,0.7,0.8,1.2c0.8,2.9,1.8,5.6,3.1,8.1c0.1,0.1,0.1,0.3,0.2,0.4c0.1,0.3,0.1,0.7,0,1l-1.8,7.1l10.2,11l7.1-1.3
			c0.5-0.1,1,0,1.5,0.3c2.5,1.5,5.2,2.7,7.9,3.7c0.5,0.1,0.9,0.5,1.2,0.9L327.5,225.2z M352.2,130.4L352.2,130.4L352.2,130.4z
			 M336.7,206.2c-0.4,0-0.7,0-1.1,0c-17.5-0.6-31.1-15.3-30.6-32.7c0.6-17.4,15.3-31.1,32.7-30.6c17.5,0.6,31.1,15.3,30.6,32.7
			c-0.3,8.4-3.9,16.3-10,22C352.4,203.2,344.8,206.2,336.7,206.2z M336.7,147.1c-14.7,0-26.9,11.7-27.4,26.5
			c-0.5,15.1,11.4,27.8,26.5,28.4c7.3,0.2,14.3-2.4,19.7-7.4c5.4-5,8.4-11.8,8.7-19.1c0.5-15.1-11.4-27.8-26.5-28.4
			C337.3,147.1,337,147.1,336.7,147.1z"/>
		<g>
			<polygon class="st3" points="383.4,105.3 376.3,103.4 374.3,96.2 377.1,93.4 380.1,99.6 386.2,102.5 			"/>
			<path class="st3" d="M383.9,100.5c1.3-1.3,1.3-3.4,0-4.7c-1.3-1.3-3.4-1.3-4.7,0l3.6-5.3l4.8,2.4l1,5L383.9,100.5z"/>
			<path class="st4" d="M376.6,94l5.3-5.3l7.2,1.9l1.9,7.2l-5.3,5.3l-7.2-1.9L376.6,94z M386.1,98.3c1.3-1.3,1.3-3.4,0-4.7
				c-1.3-1.3-3.4-1.3-4.7,0c-1.3,1.3-1.3,3.4,0,4.7C382.7,99.6,384.8,99.6,386.1,98.3z"/>
		</g>
		<g>
			<polygon class="st3" points="90.2,296.7 94.1,295.7 95.1,291.8 93.6,290.3 92,293.6 88.7,295.2 			"/>
			<path class="st3" d="M90,294.1c-0.7-0.7-0.7-1.8,0-2.5s1.8-0.7,2.5,0l-1.9-2.9L88,290l-0.6,2.7L90,294.1z"/>
			<path class="st4" d="M93.9,290.6l-2.8-2.8l-3.8,1l-1,3.9l2.8,2.8l3.8-1L93.9,290.6z M88.8,292.9c-0.7-0.7-0.7-1.8,0-2.5
				s1.8-0.7,2.5,0s0.7,1.8,0,2.5C90.6,293.6,89.5,293.6,88.8,292.9z"/>
		</g>
		<g>
			<path class="st4" d="M76.4,85.7l3.2,3.2c0.8,0.8,2.2,0.8,3,0l0,0c0.8-0.8,0.8-2.2,0-3l-3.2-3.2c-0.8-0.8-2.2-0.8-3,0l0,0
				C75.5,83.5,75.5,84.8,76.4,85.7z"/>
			<path class="st3" d="M74.1,77.7c2.5-0.9,5.1,0.3,6,2.6c0.8,2.3-0.5,4.9-2.9,5.8c-2.5,0.9-5.1-0.3-6-2.6
				C70.3,81.2,71.7,78.6,74.1,77.7z"/>
			
				<rect x="70.6" y="81.2" transform="matrix(0.9411 -0.338 0.338 0.9411 -23.2291 30.3912)" class="st4" width="10.1" height="1.4"/>
		</g>
	</g>
</g>
<g id="Background_Simple" class="st0">
	<g class="st5">
		<path class="st6" d="M418.9,125.4c39.3,31.8,35.5,75.6,1.8,100.5c-16.1,11.9-48.7,9.6-67.2,18.1c-24.1,11-36.4,31.4-54.9,47.7
			c-46,40.5-60.9,20.5-113.3,21c-36.8,0.4-71.8,31.4-108.7,10.1c-45.1-26-17.2-78.2,19.6-98.3c42.3-23.1,15.7-77.5,76.5-117.5
			C232.6,67.5,360.6,76.8,418.9,125.4z"/>
		<path class="st7" d="M418.9,125.4c39.3,31.8,35.5,75.6,1.8,100.5c-16.1,11.9-48.7,9.6-67.2,18.1c-24.1,11-36.4,31.4-54.9,47.7
			c-46,40.5-60.9,20.5-113.3,21c-36.8,0.4-71.8,31.4-108.7,10.1c-45.1-26-17.2-78.2,19.6-98.3c42.3-23.1,15.7-77.5,76.5-117.5
			C232.6,67.5,360.6,76.8,418.9,125.4z"/>
	</g>
</g>
<g id="Shadow_1_">
	<ellipse id="_x3C_Path_x3E__373_" class="st8" cx="250" cy="416.2" rx="193.9" ry="11.3"/>
</g>
<g id="Oops_x21_" class="st9">
	<g>
		<path class="st10" d="M98,91.4c-1-4.4-0.6-8.1,1.3-11.1s5-5,9.4-6c4.5-1,8.2-0.6,11.2,1.3s5,5,5.9,9.3c0.7,3.2,0.8,5.9,0.2,8.1
			s-1.8,4.2-3.5,5.8s-4.1,2.7-7.1,3.4s-5.7,0.8-7.9,0.3s-4.2-1.7-5.9-3.5C100,97,98.7,94.5,98,91.4z M106.4,89.5
			c0.6,2.7,1.6,4.6,2.8,5.5c1.3,1,2.8,1.2,4.5,0.8c1.8-0.4,3-1.3,3.8-2.7s0.7-3.6,0.1-6.6c-0.6-2.5-1.5-4.3-2.8-5.2
			s-2.8-1.2-4.6-0.8c-1.7,0.4-2.9,1.3-3.6,2.7C105.8,84.7,105.7,86.7,106.4,89.5z"/>
		<path class="st10" d="M129.9,88c-0.7-3-0.2-5.7,1.3-8.1s4.1-4,7.5-4.8c3.9-0.9,7.1-0.4,9.6,1.4c2,1.5,3.3,3.5,3.9,6.2
			c0.7,3,0.2,5.7-1.3,8.1s-4.1,4-7.6,4.8c-3.1,0.7-5.9,0.5-8.2-0.7C132.4,93.6,130.6,91.3,129.9,88z M137.4,86.3
			c0.4,1.7,1,2.9,1.9,3.6s1.9,0.9,2.9,0.7c1.1-0.2,1.9-0.9,2.4-1.8c0.5-1,0.6-2.4,0.1-4.2c-0.4-1.7-1-2.9-1.9-3.5
			c-0.9-0.7-1.9-0.9-2.9-0.7c-1.1,0.2-1.9,0.9-2.4,1.9C137.1,83.2,137,84.6,137.4,86.3z"/>
		<path class="st10" d="M159.9,99.3l-6.1-27l7-1.6l0.7,2.9c0.7-1.4,1.4-2.5,2.1-3.1c1-0.8,2.1-1.4,3.4-1.7c2.6-0.6,4.9-0.1,6.7,1.6
			c1.9,1.7,3.2,4,3.8,6.9c0.7,3.2,0.5,5.9-0.6,8c-1.2,2.1-2.9,3.4-5.3,3.9c-1.1,0.3-2.2,0.3-3.3,0.1c-1-0.2-2-0.6-2.9-1.2l2.1,9.3
			L159.9,99.3z M163.5,80.4c0.4,1.6,0.9,2.6,1.8,3.2c0.8,0.6,1.7,0.8,2.7,0.6c0.9-0.2,1.5-0.7,1.9-1.6s0.4-2.1,0.1-3.8
			c-0.4-1.6-0.9-2.7-1.7-3.3c-0.8-0.6-1.6-0.8-2.5-0.6c-1,0.2-1.7,0.8-2.1,1.7C163.2,77.4,163.1,78.7,163.5,80.4z"/>
		<path class="st10" d="M180.7,81l7.3-2.4c0.5,0.8,1.1,1.3,1.7,1.6s1.4,0.3,2.3,0.1c1-0.2,1.7-0.6,2.2-1.2c0.4-0.4,0.5-0.9,0.4-1.3
			c-0.1-0.5-0.5-0.9-1.1-1.1c-0.4-0.1-1.6-0.1-3.4,0c-2.7,0.1-4.6,0.1-5.7,0c-1.1-0.2-2.1-0.6-3-1.4s-1.5-1.7-1.8-2.9
			c-0.3-1.3-0.2-2.5,0.4-3.6s1.4-2,2.6-2.8c1.2-0.8,2.9-1.4,5.1-1.9c2.3-0.5,4.1-0.7,5.3-0.6s2.2,0.4,3.1,1c0.9,0.6,1.8,1.4,2.5,2.6
			l-6.9,2.3c-0.3-0.6-0.7-1-1.2-1.2c-0.7-0.3-1.4-0.3-2.3-0.1c-0.9,0.2-1.4,0.5-1.8,0.9s-0.4,0.8-0.3,1.2c0.1,0.5,0.4,0.8,1,0.9
			s1.7,0.1,3.4-0.1c2.6-0.3,4.5-0.3,5.8-0.1c1.3,0.2,2.4,0.7,3.3,1.5c0.9,0.8,1.4,1.7,1.7,2.8c0.3,1.1,0.2,2.3-0.3,3.5
			c-0.4,1.2-1.3,2.3-2.6,3.3s-3.2,1.7-5.8,2.3c-3.6,0.8-6.2,0.9-8,0.2C182.9,84,181.6,82.8,180.7,81z"/>
		<path class="st10" d="M205.2,56.3l8.2-0.1v6.3l-1.5,12.7h-5.1l-1.6-12.7L205.2,56.3z M205.5,77.1h7.7v6.8h-7.7V77.1z"/>
	</g>
</g>
<g id="_x34_04">
	<g>
		<g>
			<path class="st11" d="M128.7,171.6c-0.1,0-0.1,0-0.2,0c-4.5-1.7-7.2-3.4-8.6-5.5c-1,0.2-2.2,0.1-3.2-0.4
				c-1.1-0.5-2.1-1.4-2.8-2.6c-0.7,0.5-1.5,0.7-2.4,0.4c-1-0.3-2.1-1.2-2.9-2.4c-0.6,0.4-1.1,0.5-1.6,0.4c-3-0.2-7-6.2-7.3-12.5
				c0-0.3,0.2-0.5,0.5-0.5s0.5,0.2,0.5,0.5c0.3,6,4.1,11.3,6.4,11.5c0.4,0,0.7-0.1,0.9-0.3c-1.4-2.4-2.1-5.8-1-9.4
				c0.9-3,1.6-4.2,2.5-4c1.7,0.4,1.5,7,0.6,11.3c-0.2,1-0.5,1.7-0.8,2.2c0.8,1.2,1.7,1.9,2.5,2.2c0.7,0.2,1.3,0,1.7-0.4
				c-0.8-1.9-0.9-4.6,0.1-7.9c1.4-4.4,2-4.6,2.3-4.6c0.2-0.1,0.5,0,0.6,0.2c0.9,1-0.2,7.9-1.3,11.3c-0.2,0.4-0.3,0.8-0.6,1.2
				c0.6,1.2,1.5,2.1,2.5,2.5c0.8,0.4,1.6,0.5,2.3,0.4c-0.1-0.2-0.2-0.4-0.2-0.6c-0.8-2.1-0.4-4.6,1.2-7.6c1.1-2,1.9-2.9,2.7-2.9l0,0
				c0.2,0,0.7,0.1,1,0.7c0.9,1.6,0.2,6.9-1.5,9.6c-0.4,0.6-1,1.1-1.6,1.4c1.3,1.8,3.9,3.3,8,4.9c0.3,0.1,0.4,0.4,0.3,0.6
				C129.1,171.5,128.9,171.6,128.7,171.6z M123,155.1c0,0-0.6,0-1.8,2.4c-1.4,2.7-1.8,4.9-1.1,6.8c0.1,0.2,0.2,0.4,0.3,0.7
				c0.5-0.2,1-0.6,1.3-1.1c1.4-2.1,2.1-6.5,1.6-8.3C123.1,155.2,123,155.1,123,155.1z M115.8,150.9c-0.3,0.5-0.7,1.5-1.3,3.5
				c-0.9,2.7-0.9,4.9-0.4,6.6c0-0.1,0.1-0.2,0.1-0.2C115.4,157.3,116,152.6,115.8,150.9z M109.3,147.8c-0.2,0.2-0.7,0.8-1.3,3.2
				c-0.9,3.2-0.3,6.1,0.7,8.2c0.2-0.4,0.3-0.9,0.4-1.4C110.1,152.9,109.8,148.5,109.3,147.8z"/>
			<path class="st11" d="M166.7,224c-1.5,0-3.1-0.4-4.6-1.2c-0.2-0.1-0.3-0.4-0.2-0.7c0.1-0.2,0.4-0.3,0.7-0.2
				c3.6,2.1,8.2,0.6,9.1-0.9c0.1-0.2,0.2-0.4,0.1-0.7c-1.4,0.1-3.1-0.2-5.1-1.5c-2.5-1.6-2.7-2.1-2.7-2.4c0-0.2,0.1-0.4,0.3-0.5
				c1-0.5,5.5,1.6,7.4,2.8c0.2,0.2,0.4,0.3,0.6,0.5c0.8-0.2,1.5-0.6,1.9-1.1c0.3-0.4,0.5-0.7,0.6-1.1c-0.1,0-0.1,0-0.2,0
				c-1.6,0.2-3.2-0.5-4.9-2.1c-1.2-1.1-1.6-1.8-1.5-2.4c0.1-0.2,0.2-0.5,0.7-0.6c1.4-0.3,4.8,1.1,6.2,2.6c0.3,0.3,0.5,0.8,0.6,1.2
				c1.3-0.6,2.7-2,4.3-4.3c0.2-0.2,0.5-0.3,0.7-0.1s0.3,0.5,0.1,0.7c-1.9,2.6-3.5,4.1-5.1,4.8c-0.1,0.7-0.4,1.4-0.9,2
				s-1.2,1.1-2.2,1.4c0.1,0.4,0,0.9-0.3,1.4C171.8,222.9,169.4,224,166.7,224z M165.8,217.1c0.3,0.2,0.8,0.6,1.5,1
				c1.4,0.9,2.6,1.2,3.6,1.3C169.3,218.4,167.1,217.4,165.8,217.1z M169.3,212.8c0.1,0.2,0.3,0.6,1.2,1.4c1.5,1.4,2.8,2,4.1,1.8
				c0.1,0,0.2,0,0.3-0.1c-0.1-0.3-0.2-0.6-0.4-0.8C173.1,213.6,170,212.6,169.3,212.8z"/>
			<path class="st12" d="M179.9,222.6l-15.6,2.8l-14.1-77.2l-30.1,5.5l-49,87l5.3,28.7l62.8-11.4l4.3,23.5l30.1-5.5l-4.3-23.5
				l15.6-2.8L179.9,222.6z M101.1,236.9l26-45.6l7.2,39.5L101.1,236.9z"/>
		</g>
		<g>
			<path class="st12" d="M305.4,143c-0.6-5.3-1.6-10.1-3.2-14.2c-1.5-4.1-3.9-8.2-7-12.2s-7.4-7.4-12.7-10.4
				c-5.4-2.9-12.4-5-21.2-6.1c-18.3-2.4-32.6,0.9-42.8,9.7s-17,25.9-20.2,51c-1.3,10.2-1.6,19.7-1,28.3c0.7,8.7,2.3,15.6,4.8,20.9
				c3.4,7.4,8.3,13.3,14.6,17.8c6.3,4.4,15,7.4,25.9,8.8c19.6,2.6,34.1-1.2,43.6-11.3s15.7-27.1,18.8-51.1
				C306.5,163.6,306.6,153.2,305.4,143z"/>
			<path class="st10" d="M251.8,226.4c-2.4-0.1-5-0.3-7.6-0.6c-9.1-1.2-16.2-3.5-21.1-6.9c-4.8-3.3-8.4-7.7-11-13.4l-0.1-0.1
				c-1.9-4-3.2-9.8-3.7-17c-0.6-7.9-0.3-16.7,0.9-26.1c3.6-27.7,10.9-39.3,16.5-44.1c6.5-5.6,15.2-8.2,26.7-7.8
				c2.4,0.1,4.9,0.3,7.4,0.6c7.4,1,13.2,2.6,17.4,4.9c4,2.2,7.1,4.7,9.3,7.5c2.4,3.1,4.2,6.2,5.4,9.3c1.2,3.3,2.1,7.2,2.6,11.6
				c1.1,9.3,1,18.9-0.3,28.7c-2.8,21.5-8.1,36.7-15.9,45C272.5,224.1,263.8,226.9,251.8,226.4L251.8,226.4z"/>
			<g>
				<path class="st12" d="M271.3,143.3l0.1-3.8l-2.3-0.8c-0.1-1.3-0.3-2.6-0.6-3.8l2-1.4l-1.3-3.6l-2.4,0.2c-0.6-1.1-1.3-2.2-2-3.3
					l1.3-2.1l-2.6-2.8l-2.2,1.1c-1-0.8-2-1.6-3.1-2.3l0.4-2.4l-3.5-1.6l-1.6,1.9c-1.2-0.4-2.5-0.7-3.8-0.9l-0.6-2.4l-3.8-0.1
					l-0.8,2.3c-1.3,0.1-2.6,0.3-3.8,0.6l-1.5-2l-3.6,1.3l0.2,2.4c-1.1,0.6-2.2,1.3-3.3,2l-2.1-1.3l-2.8,2.6l1.1,2.2
					c-0.8,1-1.6,2-2.2,3.1l-2.4-0.4l-1.6,3.5l1.9,1.6c-0.4,1.2-0.7,2.5-0.9,3.8l-2.4,0.6l-0.1,3.8l2.3,0.8c0.1,1.3,0.3,2.6,0.6,3.8
					l-2,1.4l1.3,3.6l2.4-0.2c0.6,1.1,1.3,2.2,2,3.3l-1.3,2.1l2.6,2.8l2.2-1.1c1,0.8,2,1.6,3.1,2.3l-0.4,2.4l3.5,1.6l1.6-1.9
					c1.2,0.4,2.5,0.7,3.8,0.9l0.6,2.4l3.8,0.1l0.8-2.3c1.3-0.1,2.6-0.3,3.8-0.6l1.4,2l3.6-1.3l-0.2-2.4c1.1-0.6,2.2-1.3,3.3-2
					l2.1,1.3l2.8-2.6l-1.1-2.2c0.8-1,1.6-2,2.2-3.1l2.4,0.4l1.6-3.5l-1.9-1.6c0.4-1.2,0.7-2.5,0.9-3.8L271.3,143.3z M245.7,155.6
					c-8.3-0.3-14.8-7.2-14.5-15.5s7.2-14.8,15.5-14.5s14.8,7.2,14.5,15.6C261,149.4,254,155.8,245.7,155.6z"/>
			</g>
			<g>
				<path class="st13" d="M287.1,212.9l0.3-2.6l-1.5-0.6c0-0.9-0.1-1.8-0.2-2.6l1.4-0.9l-0.7-2.5h-1.7c-0.3-0.8-0.7-1.6-1.2-2.3
					l1-1.4l-1.6-2l-1.5,0.6c-0.6-0.6-1.3-1.2-2-1.7l0.4-1.6l-2.2-1.2l-1.2,1.2c-0.8-0.3-1.6-0.6-2.5-0.8l-0.3-1.6l-2.5-0.3l-0.6,1.5
					c-0.9,0-1.7,0.1-2.6,0.2l-0.9-1.4l-2.5,0.7v1.7c-0.8,0.3-1.6,0.7-2.3,1.2l-1.4-1l-2,1.6l0.6,1.5c-0.6,0.6-1.2,1.3-1.7,2
					l-1.6-0.4l-1.2,2.2l1.2,1.2c-0.3,0.8-0.6,1.6-0.8,2.5l-1.6,0.3l-0.3,2.6l1.5,0.6c0,0.9,0.1,1.7,0.2,2.6l-1.4,0.9l0.7,2.5h1.7
					c0.3,0.8,0.7,1.6,1.2,2.3l-1,1.4l1.6,2l1.5-0.6c0.6,0.6,1.3,1.2,2,1.7L261,224l2.2,1.2l1.2-1.2c0.8,0.3,1.6,0.6,2.5,0.8l0.3,1.6
					l2.5,0.3l0.6-1.5c0.9,0,1.7-0.1,2.6-0.2l0.9,1.4l2.5-0.7V224c0.8-0.3,1.6-0.7,2.3-1.2l1.4,1l2-1.6l-0.6-1.5
					c0.6-0.6,1.2-1.3,1.7-2l1.6,0.4l1.2-2.2l-1.2-1.2c0.3-0.8,0.6-1.6,0.8-2.5L287.1,212.9z M274.2,211.9c-1.2,2.2-3.9,3-6.1,1.8
					s-2.9-3.9-1.8-6.1c1.2-2.2,3.9-2.9,6-1.8C274.6,207,275.4,209.7,274.2,211.9z"/>
			</g>
			<path class="st14" d="M301.3,169.6l-3-2.1l0,0c-0.3-1.1-0.7-2.1-1.2-3.1l0.8-3l-4.3-4.6l-3,0.6c-0.9-0.6-2-1-3-1.4l0,0l-1.9-3.1
				l-6.3-0.2l-2.1,3l0,0c-1.1,0.3-2.1,0.7-3.1,1.2l-3-0.8l-4.6,4.3l0.6,3l0,0c-0.6,0.9-1,2-1.4,3l-3.1,1.9l-0.2,6.3l3,2.1
				c0.3,1.1,0.7,2.1,1.2,3.1l0,0l-0.8,3l4.3,4.6l3-0.6c1,0.6,2,1,3,1.4l0,0l1.9,3.1l6.3,0.2l2.1-3c1.1-0.3,2.1-0.7,3.1-1.2l0,0
				l3,0.8l4.6-4.3l-0.6-3c0.6-0.9,1-2,1.4-3l0,0l3.1-1.9L301.3,169.6z M281.6,179.3c-3.9-0.1-7-3.4-6.9-7.4c0.1-3.9,3.4-7,7.4-6.9
				c3.9,0.1,7,3.4,6.9,7.4C288.8,176.3,285.5,179.4,281.6,179.3z"/>
			<path class="st12" d="M323,119.1l0.5-1.3l0,0c0.4-0.2,0.7-0.4,1-0.7h1.2l1.4-1.9l-0.4-1.1c0.1-0.4,0.2-0.8,0.3-1.2l0,0l1-0.9
				l-0.4-2.3l-1.3-0.5l0,0c-0.2-0.4-0.4-0.7-0.7-1V107l-2-1.4l-1.1,0.4l0,0c-0.4-0.1-0.8-0.2-1.2-0.3l-0.9-1l-2.3,0.4l-0.5,1.3
				c-0.4,0.2-0.7,0.4-1,0.7l0,0h-1.2L314,109l0.4,1.1c-0.1,0.4-0.2,0.8-0.3,1.2l0,0l-1,0.9l0.4,2.3l1.3,0.5c0.2,0.4,0.4,0.7,0.7,1.1
				l0,0v1.2l2,1.4l1.1-0.4c0.4,0.1,0.8,0.2,1.2,0.3l0,0l0.9,1L323,119.1z M318,112.6c-0.3-1.5,0.7-2.8,2.2-3.1
				c1.5-0.3,2.8,0.7,3.1,2.2s-0.7,2.8-2.2,3.1C319.6,115.1,318.2,114.1,318,112.6z"/>
			<path class="st6" d="M295.6,112.5l-0.8-0.6c1.3-1.6,3.2-3.6,6-5l0.5,0.9C298.3,109.3,296.4,111.5,295.6,112.5z"/>
			<path class="st6" d="M303.6,106.8l-0.4-0.9c3.8-1.6,7.7-2.2,11.7-1.9l-0.1,1C311,104.6,307.2,105.2,303.6,106.8z"/>
			<path class="st6" d="M301.7,113.7l-0.8-0.6c2-3,6.1-5.6,9.9-6.4l0.2,1C307.4,108.4,303.6,110.9,301.7,113.7z"/>
			<path class="st14" d="M235.3,210c-0.1,0-0.3-0.1-0.4-0.1l-2.1-2.2c-1.1-0.1-2.1-0.3-3.1-0.6l-3.3,1.4c-0.2,0.1-0.3,0.1-0.5,0
				l-5.5-3.6c-0.1-0.1-0.2-0.2-0.2-0.4l0.1-3.6c-0.7-0.8-1.3-1.7-1.8-2.7l-2.8-1.1c-0.2-0.1-0.3-0.2-0.3-0.4l-1.3-6.4
				c0-0.2,0-0.3,0.1-0.5l2.2-2.1c0.1-1.1,0.3-2.1,0.6-3.1l-1.4-3.3c-0.1-0.2-0.1-0.3,0-0.5l3.6-5.5c0.1-0.1,0.2-0.2,0.4-0.2l3.6,0.1
				c0.8-0.7,1.7-1.3,2.7-1.8l1.1-2.8c0.1-0.2,0.2-0.3,0.4-0.3l6.4-1.3c0.2,0,0.3,0,0.5,0.1l2.1,2.2c1.1,0.1,2.1,0.3,3.1,0.6l3.3-1.4
				c0.2-0.1,0.3-0.1,0.5,0l5.5,3.6c0.1,0.1,0.2,0.2,0.2,0.4l-0.1,3.6c0.7,0.8,1.3,1.7,1.8,2.7l2.8,1.1c0.2,0.1,0.3,0.2,0.3,0.4
				l1.3,6.4c0,0.2,0,0.3-0.1,0.5l-2.2,2.1c-0.1,1.1-0.3,2.1-0.6,3.1l1.4,3.3c0.1,0.2,0.1,0.3,0,0.5l-3.6,5.5
				c-0.1,0.1-0.2,0.2-0.4,0.2l-3.6-0.1c-0.8,0.7-1.7,1.2-2.7,1.8l-1.1,2.8c-0.1,0.2-0.2,0.3-0.4,0.3L235.3,210
				C235.4,209.9,235.4,210,235.3,210z M229.7,206c0.1,0,0.1,0,0.1,0c1.1,0.3,2.2,0.5,3.3,0.6c0.1,0,0.2,0.1,0.3,0.1l2,2.1l5.9-1.2
				l1.1-2.7c0-0.1,0.1-0.2,0.2-0.3c1-0.5,1.9-1.1,2.8-1.9c0.1-0.1,0.2-0.1,0.3-0.1l3.5,0.1l3.3-5l-1.4-3.2c-0.1-0.1-0.1-0.2,0-0.3
				c0.3-1.1,0.5-2.2,0.6-3.3c0-0.1,0.1-0.2,0.1-0.3l2.1-2l-1.2-5.9l-2.7-1.1c-0.1,0-0.2-0.1-0.3-0.2c-0.5-1-1.1-1.9-1.9-2.8
				c-0.1-0.1-0.1-0.2-0.1-0.3l0.1-3.5l-5-3.3l-3.2,1.4c-0.1,0.1-0.2,0.1-0.3,0c-1.1-0.3-2.2-0.5-3.3-0.6c-0.1,0-0.2-0.1-0.3-0.1
				l-2-2.1l-5.9,1.2l-1.1,2.7c0,0.1-0.1,0.2-0.2,0.3c-1,0.5-1.9,1.1-2.8,1.9c-0.1,0.1-0.2,0.1-0.3,0.1l-3.5-0.1l-3.3,5l1.4,3.2
				c0.1,0.1,0.1,0.3,0,0.4c-0.3,1-0.5,2.1-0.6,3.2c0,0.1-0.1,0.2-0.1,0.3l-2.1,2l1.2,5.9l2.7,1.1c0.1,0.1,0.2,0.1,0.3,0.3
				c0.5,1,1.1,1.9,1.8,2.8c0.1,0.1,0.1,0.2,0.1,0.3l-0.1,3.5l5,3.3l3.2-1.4C229.6,206,229.6,206,229.7,206z M234.6,202.8
				c-2.5,0-5.1-0.7-7.3-2.2c-3-2-5-5-5.7-8.5s0-7,1.9-10l0,0c4.1-6.1,12.4-7.8,18.5-3.8s7.8,12.4,3.7,18.5
				C243.2,200.7,238.9,202.8,234.6,202.8z M224.4,182.7c-1.8,2.7-2.5,6-1.8,9.3s2.5,6,5.3,7.8c5.7,3.8,13.3,2.2,17.1-3.5
				s2.2-13.3-3.5-17.1S228.1,177,224.4,182.7L224.4,182.7z"/>
		</g>
		<g>
			<path class="st12" d="M425.8,231.6l-15.7-2.1l10.4-77.8l-30.3-4.1l-73.5,67.6l-3.9,28.9l63.3,8.5l-3.2,23.7l30.3,4.1l3.2-23.7
				l15.7,2.1L425.8,231.6z M346.4,220.9l38.8-35.3l-5.3,39.8L346.4,220.9z"/>
			<path class="st11" d="M394.1,279.7L394.1,279.7c-0.4-0.1-0.5-0.3-0.5-0.6L417,151.2c0-0.3,0.3-0.4,0.6-0.4
				c0.3,0.1,0.5,0.3,0.4,0.6l-23.3,127.9C394.6,279.6,394.4,279.7,394.1,279.7z"/>
			<g>
				<path class="st11" d="M414.8,153.4c0,0.4-0.4,0.8-0.9,0.8s-0.8-0.4-0.8-0.9s0.4-0.8,0.9-0.8S414.9,152.9,414.8,153.4z"/>
				<path class="st11" d="M411.5,170.7c0,0.4-0.4,0.8-0.9,0.8s-0.8-0.4-0.8-0.9s0.4-0.8,0.9-0.8S411.5,170.2,411.5,170.7z"/>
				<path class="st11" d="M408.2,188c0,0.4-0.4,0.8-0.9,0.8s-0.8-0.4-0.8-0.9s0.4-0.8,0.9-0.8C407.8,187.1,408.2,187.5,408.2,188z"
					/>
				<path class="st11" d="M401.6,206c0,0.4-0.4,0.8-0.9,0.8s-0.8-0.4-0.8-0.9s0.4-0.8,0.9-0.8S401.6,205.5,401.6,206z"/>
				<path class="st11" d="M401.5,222.6c0,0.4-0.4,0.8-0.9,0.8s-0.8-0.4-0.8-0.9s0.4-0.8,0.9-0.8
					C401.2,221.7,401.5,222.1,401.5,222.6z"/>
				<path class="st11" d="M398.2,239.9c0,0.4-0.4,0.8-0.9,0.8s-0.8-0.4-0.8-0.9c0-0.4,0.4-0.8,0.9-0.8S398.2,239.4,398.2,239.9z"/>
				<path class="st11" d="M394.8,257.2c0,0.5-0.4,0.8-0.9,0.8s-0.8-0.4-0.8-0.9s0.4-0.8,0.9-0.8
					C394.5,256.3,394.9,256.7,394.8,257.2z"/>
				<path class="st11" d="M391.5,274.5c0,0.5-0.4,0.8-0.9,0.8s-0.8-0.4-0.8-0.9s0.4-0.8,0.9-0.8S391.5,274,391.5,274.5z"/>
			</g>
			<path class="st11" d="M400.8,206.4c-0.2,0-0.4-0.2-0.5-0.4c-0.1-0.3,0.1-0.5,0.4-0.6l2.5-0.5c0.3-0.1,0.5,0.1,0.6,0.4
				c0.1,0.3-0.1,0.5-0.4,0.6l-2.5,0.5H400.8z"/>
			<g>
				<path class="st11" d="M409.1,197.2c0,0-2.2,5.8-3,9.4s-0.8,11.4-0.8,11.4"/>
				<path class="st11" d="M405.3,218.5L405.3,218.5c-0.3,0-0.5-0.2-0.5-0.5s0-8,0.8-11.5s2.9-9.2,3-9.4c0.1-0.3,0.4-0.4,0.6-0.3
					c0.3,0.1,0.4,0.4,0.3,0.6c0,0.1-2.2,5.8-3,9.3c-0.7,3.4-0.8,11.2-0.8,11.3C405.8,218.3,405.6,218.5,405.3,218.5z"/>
			</g>
		</g>
	</g>
</g>
<g id="Character_1_">
	<g>
		<path class="st10" d="M222.4,304.8c1.4-22.4-1.2-63.1,40.9-57.7c45.1,5.8,32.2,58.6,32.2,58.6L222.4,304.8z"/>
		<g>
			<ellipse class="st14" cx="251.5" cy="273" rx="18.4" ry="18.4"/>
			<path class="st11" d="M265.6,272.5c-0.2,4.8-2.9,8.6-5.9,8.4s-5.2-4.2-4.9-9c0.2-4.8,2.9-8.6,5.8-8.4
				C263.6,263.7,265.8,267.7,265.6,272.5z"/>
			<path class="st10" d="M253.9,254.6c-8.7-1.5-18,4.9-18.9,11.4l34.5,3.2C268.3,261.9,260.8,255.8,253.9,254.6z"/>
			<path class="st6" d="M251.5,292.4c-10.7,0-19.4-8.7-19.4-19.4s8.7-19.4,19.4-19.4c10.7,0,19.4,8.7,19.4,19.4
				S262.2,292.4,251.5,292.4z M251.5,255.6c-9.6,0-17.4,7.8-17.4,17.4s7.8,17.4,17.4,17.4c9.6,0,17.4-7.8,17.4-17.4
				S261.1,255.6,251.5,255.6z"/>
		</g>
		<path class="st15" d="M290.5,304.3h-0.1c-0.3-0.1-0.4-0.3-0.4-0.6c0-0.1,3.2-13.7-0.1-27.4c-0.1-0.3,0.1-0.5,0.4-0.6
			s0.5,0.1,0.6,0.4c3.4,14,0.1,27.7,0.1,27.9C290.9,304.1,290.7,304.3,290.5,304.3z"/>
		<path class="st15" d="M287.7,268.8c-0.2,0-0.4-0.1-0.5-0.3c-1.3-2.8-2.9-5.4-4.7-7.7c-0.2-0.2-0.1-0.5,0.1-0.7s0.5-0.1,0.7,0.1
			c1.9,2.3,3.6,5,4.9,7.9c0.1,0.2,0,0.5-0.2,0.7C287.8,268.7,287.8,268.8,287.7,268.8z"/>
		<path class="st16" d="M128.7,409.9c-0.1,0-0.2,0-0.4,0c-2.8-0.1-4.9-2.4-4.9-5.1s2.3-4.9,5.1-4.9h0.1c2.9,0,9.8-3.5,24.4-26.4
			c0.8-1.2,2.1-2.1,3.5-2.3s2.9,0.2,4,1.2c17.9,15.6,36.9,25.4,37.1,25.5c2.5,1.2,3.4,4.3,2.2,6.7s-4.3,3.5-6.7,2.2
			c-0.8-0.4-17.4-8.9-34.8-23.1C146.2,402,137.2,409.9,128.7,409.9z"/>
		<path class="st16" d="M159.7,371.5c-0.1,0-0.3,0-0.4,0c-1.6-0.2-2.8-1.8-2.6-3.4c0.7-5-0.2-23.6-6.5-38.1
			c-0.6-1.3-0.1-2.9,1.1-3.7c13.7-9.3,42.9-10.5,44.1-10.5c1.6,0,3,1.2,3.1,2.9c0.1,1.7-1.2,3-2.9,3.1c-0.3,0-25.8,1-38.9,8.2
			c5.6,14.4,6.9,32.4,5.9,39C162.4,370.4,161.1,371.5,159.7,371.5z"/>
		<path class="st12" d="M164.7,367.6c-2-4.7-11-4.2-16.3-0.1c-2.8,2.2-6.6,8.6-7,11s1.2,4.5,4,4.2c3.4-0.3,8.2-5.3,8.2-5.3
			c-3.1,3.1,0.9,5.3,7,0.8C163.9,375.7,166.9,372.9,164.7,367.6z"/>
		<path class="st11" d="M336.7,306.2h-0.1c-0.3-0.1-0.4-0.4-0.3-0.6c1.3-4.6,2.8-7.5,4.7-9c-0.3-1-0.3-2.1,0.1-3.3
			c0.4-1.1,1.2-2.2,2.4-3c-0.6-0.6-0.8-1.5-0.6-2.4c0.2-1,1-2.2,2.1-3.2c-0.5-0.5-0.6-1.1-0.6-1.5c0-3,5.5-7.5,11.8-8.4
			c0.3,0,0.5,0.1,0.6,0.4c0,0.3-0.1,0.5-0.4,0.6c-5.9,0.8-10.9,5.1-10.9,7.4c0,0.4,0.1,0.7,0.4,0.9c2.2-1.6,5.6-2.6,9.3-1.9
			c3.1,0.6,4.3,1.2,4.2,2.2c-0.3,1.8-6.8,2.1-11.2,1.6c-1-0.1-1.7-0.4-2.2-0.6c-1.1,0.9-1.8,1.9-2,2.7c-0.2,0.8,0.1,1.3,0.5,1.6
			c1.9-1,4.5-1.4,7.9-0.6c4.5,1,4.7,1.5,4.8,1.9c0.1,0.2,0,0.5-0.2,0.7c-1,1-7.9,0.5-11.4-0.3c-0.5-0.1-0.9-0.3-1.2-0.5
			c-1.2,0.7-1.9,1.7-2.3,2.7c-0.3,0.8-0.4,1.6-0.2,2.3c0.2-0.1,0.4-0.2,0.5-0.3c2.1-1,4.6-0.8,7.6,0.5c2,0.9,3,1.6,3.1,2.4
			c0,0.2,0,0.7-0.6,1c-1.5,1-6.9,0.9-9.6-0.6c-0.7-0.4-1.2-0.9-1.5-1.5c-1.6,1.5-3,4.2-4.2,8.4C337.1,306,336.9,306.2,336.7,306.2z
			 M342.1,296.8c0.3,0.5,0.7,0.9,1.2,1.2c2.3,1.2,6.7,1.5,8.4,0.8c0.3-0.1,0.4-0.2,0.4-0.2s0-0.6-2.5-1.6c-2.8-1.2-5-1.4-6.8-0.5
			C342.5,296.6,342.3,296.7,342.1,296.8z M345.5,290.3c0.1,0,0.2,0,0.3,0.1c3.5,0.9,8.3,1,9.9,0.7c-0.5-0.2-1.5-0.6-3.6-1
			C349.2,289.5,347.1,289.6,345.5,290.3z M346.7,284.6c0.5,0.2,1,0.3,1.4,0.3c5,0.6,9.4-0.1,10-0.7c-0.2-0.1-0.8-0.6-3.3-1.1
			C351.6,282.5,348.7,283.4,346.7,284.6z"/>
		<path class="st11" d="M206.5,408.2c0.7-0.2,0.4-0.9-0.3-0.9h-13.5c-25.8-2.7-43.8,0.9-32.4,1.8s-0.8,0.7-9.1,3.8s61.6,3.9,68,0
			C225,409.4,197.4,411.2,206.5,408.2z"/>
		<polygon class="st12" points="303.5,412.2 185.7,408.3 180.8,294.1 319.9,297.2 		"/>
		<path class="st11" d="M222.4,410c-0.3,0-0.5-0.2-0.5-0.5l-9.4-114.7c0-0.3,0.2-0.5,0.5-0.5s0.5,0.2,0.5,0.5l9.4,114.7
			C223,409.8,222.8,410,222.4,410C222.5,410,222.5,410,222.4,410z"/>
		<g>
			<polygon class="st10" points="303.5,412.2 335.1,407.4 345.1,301.2 319.9,297.2 			"/>
			<polygon class="st17" points="303.5,412.2 335.1,407.4 345.1,301.2 319.9,297.2 			"/>
		</g>
		<path class="st10" d="M195.7,386.3l-2.9-67.9c-0.3-7.1,5.4-13,12.5-12.8l88.1,2c7.4,0.2,12.9,6.7,11.9,14l-9.8,68.4
			c-0.9,6.2-6.3,10.7-12.5,10.5l-75.4-2.5C201.2,397.8,196,392.7,195.7,386.3z"/>
		<g>
			<path class="st14" d="M205.2,326.5l13.6,0.4l-0.1,3.5l-8.5-0.3l-0.1,2.6l7.9,0.2l-0.1,3.4l-7.9-0.2l-0.1,3.2l8.8,0.3l-0.1,3.7
				l-13.9-0.4L205.2,326.5z"/>
			<path class="st14" d="M221.4,343.5l0.5-16.5l8.5,0.3c1.6,0,2.8,0.2,3.6,0.5s1.5,0.8,2,1.6c0.5,0.8,0.7,1.6,0.7,2.7
				c0,0.9-0.2,1.7-0.7,2.3s-1,1.2-1.7,1.6c-0.4,0.2-1,0.5-1.8,0.6c0.6,0.2,1,0.4,1.3,0.6c0.2,0.1,0.4,0.4,0.8,0.9
				c0.3,0.5,0.6,0.8,0.7,1l2.3,4.9l-5.7-0.2l-2.6-5.1c-0.3-0.7-0.6-1.1-0.9-1.3c-0.4-0.3-0.8-0.4-1.2-0.4h-0.4l-0.2,6.7L221.4,343.5
				z M226.8,333.9l2.1,0.1c0.2,0,0.7,0,1.4-0.2c0.3-0.1,0.6-0.2,0.8-0.5s0.3-0.6,0.4-0.9c0-0.5-0.1-0.9-0.5-1.2s-1-0.5-1.9-0.5
				l-2.2-0.1L226.8,333.9z"/>
			<path class="st14" d="M239.3,344l0.5-16.5l8.5,0.3c1.6,0,2.8,0.2,3.6,0.5s1.5,0.8,2,1.6c0.5,0.8,0.7,1.6,0.7,2.7
				c0,0.9-0.2,1.7-0.7,2.3s-1,1.2-1.7,1.6c-0.4,0.2-1,0.5-1.8,0.6c0.6,0.2,1,0.4,1.3,0.6c0.2,0.1,0.4,0.4,0.8,0.9
				c0.3,0.5,0.6,0.8,0.7,1l2.3,4.9l-5.7-0.2l-2.6-5.1c-0.3-0.7-0.6-1.1-0.9-1.3c-0.4-0.3-0.8-0.4-1.2-0.4h-0.4l-0.2,6.7L239.3,344z
				 M244.7,334.4l2.1,0.1c0.2,0,0.7,0,1.4-0.2c0.3-0.1,0.6-0.2,0.8-0.5s0.3-0.6,0.4-0.9c0-0.5-0.1-0.9-0.5-1.2s-1-0.5-1.9-0.5
				l-2.2-0.1L244.7,334.4z"/>
			<path class="st14" d="M256.3,336.4c0.1-2.7,0.9-4.8,2.4-6.2s3.6-2.1,6.3-2c2.7,0.1,4.8,0.9,6.3,2.4c1.4,1.5,2.1,3.6,2,6.2
				c-0.1,1.9-0.4,3.5-1.1,4.7s-1.6,2.1-2.9,2.8c-1.2,0.6-2.8,0.9-4.6,0.9c-1.9-0.1-3.4-0.4-4.6-1s-2.1-1.6-2.9-2.9
				C256.6,339.9,256.2,338.3,256.3,336.4z M261.4,336.5c0,1.7,0.2,2.9,0.8,3.6s1.4,1.1,2.5,1.2c1.1,0,2-0.3,2.6-1s1-2,1-3.8
				c0-1.5-0.2-2.7-0.8-3.4c-0.6-0.7-1.4-1.1-2.5-1.1c-1,0-1.9,0.3-2.5,1C261.8,333.7,261.5,334.9,261.4,336.5z"/>
			<path class="st14" d="M275.9,345.2l0.5-16.5l8.5,0.3c1.6,0,2.8,0.2,3.6,0.5s1.5,0.8,2,1.6c0.5,0.8,0.7,1.6,0.7,2.7
				c0,0.9-0.2,1.7-0.7,2.3s-1,1.2-1.7,1.6c-0.4,0.2-1,0.5-1.8,0.6c0.6,0.2,1,0.4,1.3,0.6c0.2,0.1,0.4,0.4,0.8,0.9
				c0.3,0.5,0.6,0.8,0.7,1l2.3,4.9l-5.7-0.2l-2.6-5.1c-0.3-0.7-0.6-1.1-0.9-1.3c-0.4-0.3-0.8-0.4-1.2-0.4h-0.5l-0.2,6.7L275.9,345.2
				z M281.3,335.6l2.1,0.1c0.2,0,0.7,0,1.4-0.2c0.3-0.1,0.6-0.2,0.8-0.5s0.3-0.6,0.4-0.9c0-0.5-0.1-0.9-0.5-1.2s-1-0.5-1.9-0.5
				l-2.2-0.1L281.3,335.6z"/>
		</g>
		<path class="st14" d="M284,373.2c-0.4,0-0.7-0.1-1-0.4l-8.6-9.4l-9.2,8.4c-0.5,0.5-1.4,0.5-1.9-0.1l-8.6-9.4l-9.2,8.4
			c-0.5,0.5-1.4,0.5-1.9-0.1l-8.6-9.4l-9.2,8.4c-0.3,0.2-0.6,0.4-0.9,0.3c-0.4,0-0.7-0.2-0.9-0.4l-8.6-9.4l-9.2,8.4
			c-0.5,0.5-1.4,0.5-1.9-0.1c-0.5-0.5-0.4-1.4,0.1-1.9l10.2-9.3c0.5-0.5,1.4-0.5,1.9,0.1l8.6,9.4l9.2-8.4c0.3-0.2,0.6-0.4,0.9-0.3
			c0.4,0,0.7,0.2,0.9,0.4l8.6,9.4l9.2-8.4c0.5-0.5,1.4-0.5,1.9,0.1l8.6,9.4l9.2-8.4c0.5-0.5,1.4-0.5,1.9,0.1L285,371
			c0.5,0.5,0.5,1.4-0.1,1.9C284.6,373,284.3,373.2,284,373.2z"/>
		<g>
			<polygon class="st12" points="125.8,414.7 119.5,411.7 113.9,384.5 116.9,381.2 			"/>
			<g>
				<polygon class="st10" points="125.8,414.7 134.1,409.8 126.9,387.4 116.9,381.2 				"/>
				<polygon class="st17" points="125.8,414.7 134.1,409.8 126.9,387.4 116.9,381.2 				"/>
			</g>
		</g>
		<path class="st16" d="M262,419.6c-0.2,0-0.5,0-0.7,0c-2.8-0.1-4.9-2.4-4.9-5.1c0.1-2.8,2.4-4.9,5.1-4.9c7.7,0.2,24-4.5,33.3-13.5
			c0.6-0.6,1.3-1,2-1.2c15.8-4.7,21.7,4.8,21.9,5.2l-8.6,5.1c0,0,0,0.1,0.1,0.2c-0.1-0.1-2.3-3-9.5-1.2
			C289.2,414.8,271.2,419.6,262,419.6z"/>
		<g>
			<polygon class="st12" points="261.4,426.2 243.2,425.1 241.8,391.5 266.2,392.4 			"/>
			<g>
				<polygon class="st10" points="261.4,426.2 265.6,422 268.3,401.1 266.2,392.4 				"/>
				<polygon class="st17" points="261.4,426.2 265.6,422 268.3,401.1 266.2,392.4 				"/>
			</g>
		</g>
		<path class="st16" d="M366.9,413.5c-0.6,0-1.3-0.2-1.8-0.6c-10.4-7.9-24.5-21.9-29.8-35.5c-0.1-0.2-0.1-0.4-0.2-0.6
			c-2.6-15.6-5.1-48.5-5.2-49.9c-0.1-1.6,1.1-3.1,2.8-3.2c1.6-0.1,3.1,1.1,3.2,2.8c0,0.3,2.6,33.6,5.1,49.1
			c5.4,13.2,20,26.7,27.8,32.6c1.3,1,1.6,2.9,0.6,4.2C368.7,413.1,367.8,413.5,366.9,413.5z"/>
		<path class="st16" d="M380.8,415c-2.3,0-5-1-7.8-3.1c-1.3-1-1.6-2.9-0.7-4.2s2.9-1.6,4.2-0.7c2.5,1.8,3.8,2,4.3,2c1.7,0,3,1.3,3,3
			C383.8,413.7,382.4,415,380.8,415z"/>
		<path class="st12" d="M373.8,411.8c3.2-9.5,16.4-7.6,20.9-6.2s8.6,3.2,11.1,4.8c2.5,1.6,2.5,4.3-0.8,5.8c-4,1.9-14.2,0.2-14.2,0.2
			c5.2,2.3,0,6-9.2,2.4C378.6,417.6,372.7,415.3,373.8,411.8z"/>
		<path class="st16" d="M341.9,331c-1.2,8.1-7.9,14.1-13.4,13.3c-5.5-0.8-5.7-8-4.5-16.1s3.4-14,8.8-13.2
			C338.3,315.8,343,322.9,341.9,331z"/>
		<circle class="st11" cx="209.9" cy="297.9" r="0.8"/>
		<path class="st11" d="M218.2,303.8c0,0.5-0.4,0.8-0.8,0.8s-0.8-0.4-0.8-0.8s0.4-0.8,0.8-0.8S218.2,303.3,218.2,303.8z"/>
		<path class="st11" d="M219.1,400.7c0,0.5-0.4,0.8-0.8,0.8c-0.4,0-0.8-0.4-0.8-0.8s0.4-0.8,0.8-0.8
			C218.8,399.9,219.1,400.2,219.1,400.7z"/>
		<path class="st11" d="M226.6,406.6c0,0.5-0.4,0.8-0.8,0.8c-0.4,0-0.8-0.4-0.8-0.8s0.4-0.8,0.8-0.8S226.6,406.1,226.6,406.6z"/>
	</g>
</g>
<g id="Robot_Parts">
	<g>
		<path class="st11" d="M82.5,416.4c-2.4,0-5.6-1.4-7.3-4c-0.2-0.2-0.1-0.5,0.1-0.7s0.5-0.1,0.7,0.1c1.9,2.7,6,4.1,7.8,3.3
			c0.2-0.1,0.3-0.2,0.5-0.3c-1.6-0.8-3.1-2.2-3.5-4.5c-0.2-1.3-0.4-3,0.6-3.2c1.4-0.3,3.3,3.1,4,5.8c0.1,0.5,0.2,0.9,0.1,1.3
			c0.6,0.2,1.2,0.2,1.8,0.1c0.4-0.1,1.1-0.2,1.4-0.8c-1.2-0.8-2-2.3-2.3-4.2c-0.4-2.7-0.1-3.2,0.2-3.4c0.2-0.1,0.4-0.2,0.7-0.1
			c1.1,0.5,2.4,4.3,2.6,6.5c0,0.2,0,0.5,0,0.7c0.4,0.2,0.9,0.2,1.3,0.3c0.9,0,1.7-0.2,2.4-0.6c-0.1-0.1-0.3-0.2-0.4-0.3
			c-1-0.9-1.5-2.3-1.3-4.3c0.1-1.6,0.5-2.4,1.1-2.7c0.2-0.1,0.7-0.2,1.2,0.2c1.1,0.9,2.1,3.6,1.7,5.6c-0.1,0.4-0.2,0.8-0.5,1.1
			c1.8,0.3,4.4-0.2,6.6-0.8c0.3-0.1,0.5,0.1,0.6,0.4s-0.1,0.5-0.4,0.6c-2.7,0.7-5.6,1.2-7.7,0.6c-0.9,0.7-2.2,1.2-3.5,1.2
			c-0.6,0-1.1-0.1-1.6-0.3c-0.4,0.7-1.1,1.1-2.1,1.3c-0.7,0.1-1.4,0-2.2-0.2c-0.2,0.4-0.6,0.7-1,0.9
			C83.8,416.3,83.2,416.4,82.5,416.4z M81.7,408.1c-0.1,0.1-0.2,0.7,0.1,2c0.3,1.8,1.5,3.1,2.8,3.7c0-0.2-0.1-0.5-0.1-0.7
			C83.7,410.3,82.2,408.4,81.7,408.1z M87.2,407.3c0,0.4,0,1,0.2,2.1c0.2,1.4,0.7,2.5,1.5,3.2C88.7,410.5,87.8,408.2,87.2,407.3z
			 M93.5,406.4L93.5,406.4c0,0-0.4,0.2-0.5,1.9c-0.2,1.7,0.2,2.8,0.9,3.5c0.2,0.1,0.4,0.3,0.6,0.4c0.3-0.3,0.5-0.7,0.5-1
			c0.3-1.5-0.4-3.6-1.2-4.4C93.7,406.4,93.5,406.4,93.5,406.4z"/>
		<g>
			<polygon class="st11" points="228.9,424 231.6,419.3 228.9,414.6 226,414.6 227.6,419.3 226,424 			"/>
			<path class="st11" d="M226.2,421.7c-1.4,0-2.4-1.1-2.4-2.5s1.1-2.4,2.4-2.4l-4.6-0.9l-1.2,3.7l2.1,3.1L226.2,421.7z"/>
			<path class="st6" d="M226.6,414.6h-5.4l-2.7,4.7l2.7,4.7h5.4l2.7-4.7L226.6,414.6z M223.9,421.7c-1.4,0-2.4-1.1-2.4-2.5
				s1.1-2.4,2.4-2.4c1.4,0,2.4,1.1,2.4,2.4C226.3,420.6,225.2,421.7,223.9,421.7z"/>
		</g>
		<g>
			<polygon class="st6" points="417.9,414.3 415.9,410.8 417.9,407.3 420,407.3 418.8,410.8 420,414.3 			"/>
			<path class="st6" d="M419.9,412.6c1,0,1.8-0.8,1.8-1.8s-0.8-1.8-1.8-1.8l3.4-0.7l0.9,2.8l-1.5,2.3L419.9,412.6z"/>
			<path class="st11" d="M419.6,407.3h4l2,3.5l-2,3.5h-4l-2-3.5L419.6,407.3z M421.6,412.6c1,0,1.8-0.8,1.8-1.8s-0.8-1.8-1.8-1.8
				s-1.8,0.8-1.8,1.8C419.8,411.8,420.6,412.6,421.6,412.6z"/>
		</g>
		<g>
			<path class="st11" d="M343,418.9h4.5c1.2,0,2.1-1,2.1-2.1l0,0c0-1.2-1-2.1-2.1-2.1H343c-1.2,0-2.1,1-2.1,2.1l0,0
				C340.8,417.9,341.8,418.9,343,418.9z"/>
			<path class="st6" d="M335.7,414.9c1.1-2.4,3.8-3.4,6-2.4s3.1,3.8,2,6.2s-3.8,3.4-6,2.4C335.5,420,334.6,417.2,335.7,414.9z"/>
			
				<rect x="334.8" y="416.1" transform="matrix(0.4265 -0.9045 0.9045 0.4265 -182.0525 546.406)" class="st11" width="10.1" height="1.4"/>
		</g>
	</g>
</g>
</svg>
