<?xml version="1.0" encoding="utf-8"?>
<!-- Generator: Adobe Illustrator 26.0.3, SVG Export Plug-In . SVG Version: 6.00 Build 0)  -->
<svg version="1.1" id="Layer_1" xmlns="http://www.w3.org/2000/svg" xmlns:xlink="http://www.w3.org/1999/xlink" x="0px" y="0px"
	 viewBox="0 0 500 500" style="enable-background:new 0 0 500 500;" xml:space="preserve">
<style type="text/css">
	.st0{display:none;}
	.st1{display:inline;fill:#EBEBEB;}
	.st2{fill:#E0E0E0;}
	.st3{fill:#EBEBEB;}
	.st4{fill:#FFFFFF;}
	.st5{fill:#F5F5F5;}
	.st6{display:inline;}
	.st7{fill:#407BFF;}
	.st8{opacity:0.9;fill:#FFFFFF;enable-background:new    ;}
	.st9{opacity:0.7;fill:#263238;enable-background:new    ;}
	.st10{fill:#263238;}
	.st11{opacity:0.6;fill:#407BFF;enable-background:new    ;}
	.st12{opacity:0.7;fill:#407BFF;enable-background:new    ;}
	.st13{fill:#FFB573;}
	.st14{opacity:0.1;fill:#FFFFFF;enable-background:new    ;}
	.st15{opacity:0.2;enable-background:new    ;}
	.st16{fill:#ED893E;}
</style>
<g id="Background_Complete">
	<g class="st0">
		<rect y="382.4" class="st1" width="500" height="0.2"/>
		<rect x="52.5" y="391.9" class="st1" width="26" height="0.2"/>
		<rect x="146.3" y="389.2" class="st1" width="54.1" height="0.2"/>
		<rect x="79.5" y="401.2" class="st1" width="26.3" height="0.2"/>
		<rect x="430.7" y="399.5" class="st1" width="19.2" height="0.2"/>
		<rect x="391.5" y="399.5" class="st1" width="30.3" height="0.2"/>
		<rect x="258.2" y="395.3" class="st1" width="54.6" height="0.2"/>
		<path class="st1" d="M237,337.8H43.9c-3.2,0-5.7-2.6-5.7-5.7V60.7c0-3.2,2.6-5.7,5.7-5.7H237c3.1,0,5.7,2.6,5.7,5.7v271.4
			C242.7,335.2,240.2,337.8,237,337.8z M43.9,55.2c-3,0-5.5,2.5-5.5,5.5v271.4c0,3,2.5,5.5,5.5,5.5H237c3,0,5.5-2.5,5.5-5.5V60.7
			c0-3-2.4-5.5-5.5-5.5H43.9z"/>
		<path class="st1" d="M453.3,337.8H260.2c-3.1,0-5.7-2.6-5.7-5.7V60.7c0-3.2,2.6-5.7,5.7-5.7h193.1c3.1,0,5.7,2.6,5.7,5.7v271.4
			C459,335.2,456.5,337.8,453.3,337.8z M260.2,55.2c-3,0-5.5,2.5-5.5,5.5v271.4c0,3,2.4,5.5,5.5,5.5h193.1c3,0,5.5-2.5,5.5-5.5V60.7
			c0-3-2.5-5.5-5.5-5.5H260.2z"/>
	</g>
	<g>
		<g>
			<g>
				<g>
					<path class="st2" d="M382.2,149.6h-69.4c-3.8,3.8-5.9,5.9-9.6,9.6v213.6c3.8,3.8,5.9,5.9,9.6,9.6h69.4c3.8-3.8,5.9-5.9,9.6-9.6
						V159.2C388,155.4,385.9,153.4,382.2,149.6z"/>
					<polygon class="st3" points="303.2,372.8 312.8,382.4 334.3,382.4 324.7,372.8 					"/>
					<polygon class="st3" points="303.2,159.2 312.8,149.6 334.3,149.6 324.7,159.2 					"/>
				</g>
				<path class="st3" d="M420.4,149.6h-86.1c-3.8,3.8-5.9,5.9-9.6,9.6v213.6c3.8,3.8,5.9,5.9,9.6,9.6h86.1c3.8-3.8,5.9-5.9,9.6-9.6
					V159.2C426.2,155.4,424.1,153.4,420.4,149.6z"/>
				<polygon class="st4" points="335.5,377.9 329.2,371.6 329.2,160.4 335.5,154.1 419.2,154.1 425.5,160.4 425.5,371.6 
					419.2,377.9 				"/>
				<g>
					<g>
						<rect x="333.7" y="165.4" class="st3" width="91.9" height="18.5"/>
						<g>
							<path class="st5" d="M420.3,352.9c0,0.4,0.4,0.8,0.8,0.8s0.8-0.4,0.8-0.8s-0.4-0.8-0.8-0.8
								C420.7,352.1,420.3,352.5,420.3,352.9z"/>
							<path class="st4" d="M416.5,352.9c0,0.4,0.4,0.8,0.8,0.8s0.8-0.4,0.8-0.8s-0.4-0.8-0.8-0.8
								C416.8,352.1,416.5,352.5,416.5,352.9z"/>
							<path class="st5" d="M412.6,352.9c0,0.4,0.4,0.8,0.8,0.8s0.8-0.4,0.8-0.8s-0.4-0.8-0.8-0.8S412.6,352.5,412.6,352.9z"/>
						</g>
						<rect x="333.7" y="172.9" class="st5" width="91.9" height="3.6"/>
						<rect x="329.2" y="165.5" class="st2" width="4.5" height="18.5"/>
					</g>
					<g>
						<rect x="333.7" y="185.7" class="st3" width="91.9" height="18.5"/>
						<g>
							<path class="st5" d="M420.3,332.6c0,0.4,0.4,0.8,0.8,0.8s0.8-0.4,0.8-0.8s-0.4-0.8-0.8-0.8
								C420.7,331.8,420.3,332.2,420.3,332.6z"/>
							<path class="st4" d="M416.5,332.6c0,0.4,0.4,0.8,0.8,0.8s0.8-0.4,0.8-0.8s-0.4-0.8-0.8-0.8
								C416.8,331.8,416.5,332.2,416.5,332.6z"/>
							<path class="st4" d="M412.6,332.6c0,0.4,0.4,0.8,0.8,0.8s0.8-0.4,0.8-0.8s-0.4-0.8-0.8-0.8
								C413,331.8,412.6,332.2,412.6,332.6z"/>
						</g>
						<rect x="333.7" y="193.2" class="st5" width="91.9" height="3.6"/>
						<rect x="329.2" y="185.7" class="st2" width="4.5" height="18.5"/>
					</g>
					<g>
						<rect x="333.7" y="206" class="st3" width="91.9" height="18.5"/>
						<g>
							<path class="st5" d="M420.3,312.3c0,0.4,0.4,0.8,0.8,0.8s0.8-0.4,0.8-0.8s-0.4-0.8-0.8-0.8
								C420.7,311.5,420.3,311.9,420.3,312.3z"/>
							<path class="st5" d="M416.5,312.3c0,0.4,0.4,0.8,0.8,0.8s0.8-0.4,0.8-0.8s-0.4-0.8-0.8-0.8
								C416.8,311.5,416.5,311.9,416.5,312.3z"/>
							<path class="st5" d="M412.6,312.3c0,0.4,0.4,0.8,0.8,0.8s0.8-0.4,0.8-0.8s-0.4-0.8-0.8-0.8S412.6,311.9,412.6,312.3z"/>
						</g>
						<rect x="333.7" y="213.5" class="st5" width="91.9" height="3.6"/>
						<rect x="329.2" y="206" class="st2" width="4.5" height="18.5"/>
					</g>
					<g>
						<rect x="333.7" y="226.3" class="st3" width="91.9" height="18.5"/>
						<g>
							<path class="st4" d="M420.3,292c0,0.4,0.4,0.8,0.8,0.8s0.8-0.4,0.8-0.8s-0.4-0.8-0.8-0.8C420.7,291.2,420.3,291.6,420.3,292z
								"/>
							<path class="st4" d="M416.5,292c0,0.4,0.4,0.8,0.8,0.8s0.8-0.4,0.8-0.8s-0.4-0.8-0.8-0.8C416.8,291.2,416.5,291.6,416.5,292z
								"/>
							<path class="st5" d="M412.6,292c0,0.4,0.4,0.8,0.8,0.8s0.8-0.4,0.8-0.8s-0.4-0.8-0.8-0.8S412.6,291.6,412.6,292z"/>
						</g>
						<rect x="333.7" y="233.8" class="st5" width="91.9" height="3.6"/>
						<rect x="329.2" y="226.3" class="st2" width="4.5" height="18.5"/>
					</g>
					<g>
						<rect x="333.7" y="246.6" class="st3" width="91.9" height="18.5"/>
						<g>
							<path class="st4" d="M420.3,271.8c0,0.4,0.4,0.8,0.8,0.8s0.8-0.4,0.8-0.8s-0.4-0.8-0.8-0.8
								C420.7,271,420.3,271.3,420.3,271.8z"/>
							<path class="st4" d="M416.5,271.8c0,0.4,0.4,0.8,0.8,0.8s0.8-0.4,0.8-0.8s-0.4-0.8-0.8-0.8
								C416.8,271,416.5,271.3,416.5,271.8z"/>
							<path class="st4" d="M412.6,271.8c0,0.4,0.4,0.8,0.8,0.8s0.8-0.4,0.8-0.8s-0.4-0.8-0.8-0.8S412.6,271.3,412.6,271.8z"/>
						</g>
						<rect x="333.7" y="254.1" class="st5" width="91.9" height="3.6"/>
						<rect x="329.2" y="246.6" class="st2" width="4.5" height="18.5"/>
					</g>
					<g>
						<rect x="333.7" y="266.9" class="st3" width="91.9" height="18.5"/>
						<g>
							<path class="st5" d="M420.3,251.5c0,0.4,0.4,0.8,0.8,0.8s0.8-0.4,0.8-0.8s-0.4-0.8-0.8-0.8
								C420.7,250.7,420.3,251,420.3,251.5z"/>
							<path class="st4" d="M416.5,251.5c0,0.4,0.4,0.8,0.8,0.8s0.8-0.4,0.8-0.8s-0.4-0.8-0.8-0.8
								C416.8,250.7,416.5,251,416.5,251.5z"/>
							<path class="st5" d="M412.6,251.5c0,0.4,0.4,0.8,0.8,0.8s0.8-0.4,0.8-0.8s-0.4-0.8-0.8-0.8S412.6,251,412.6,251.5z"/>
						</g>
						<rect x="333.7" y="274.4" class="st5" width="91.9" height="3.6"/>
						<rect x="329.2" y="266.9" class="st2" width="4.5" height="18.5"/>
					</g>
					<g>
						<rect x="333.7" y="287.2" class="st3" width="91.9" height="18.5"/>
						<g>
							<path class="st4" d="M420.3,231.2c0,0.4,0.4,0.8,0.8,0.8s0.8-0.4,0.8-0.8s-0.4-0.8-0.8-0.8
								C420.7,230.4,420.3,230.7,420.3,231.2z"/>
							<path class="st4" d="M416.5,231.2c0,0.4,0.4,0.8,0.8,0.8s0.8-0.4,0.8-0.8s-0.4-0.8-0.8-0.8
								C416.8,230.4,416.5,230.7,416.5,231.2z"/>
							<path class="st5" d="M412.6,231.2c0,0.4,0.4,0.8,0.8,0.8s0.8-0.4,0.8-0.8s-0.4-0.8-0.8-0.8S412.6,230.7,412.6,231.2z"/>
						</g>
						<rect x="333.7" y="294.6" class="st5" width="91.9" height="3.6"/>
						<rect x="329.2" y="287.2" class="st2" width="4.5" height="18.5"/>
					</g>
					<g>
						<rect x="333.7" y="307.5" class="st3" width="91.9" height="18.5"/>
						<g>
							<path class="st4" d="M420.3,210.9c0,0.4,0.4,0.8,0.8,0.8s0.8-0.4,0.8-0.8s-0.4-0.8-0.8-0.8
								C420.7,210.1,420.3,210.4,420.3,210.9z"/>
							<path class="st5" d="M416.5,210.9c0,0.4,0.4,0.8,0.8,0.8s0.8-0.4,0.8-0.8s-0.4-0.8-0.8-0.8
								C416.8,210.1,416.5,210.4,416.5,210.9z"/>
							<path class="st4" d="M412.6,210.9c0,0.4,0.4,0.8,0.8,0.8s0.8-0.4,0.8-0.8s-0.4-0.8-0.8-0.8
								C413,210.1,412.6,210.4,412.6,210.9z"/>
						</g>
						<rect x="333.7" y="314.9" class="st5" width="91.9" height="3.6"/>
						<rect x="329.2" y="307.5" class="st2" width="4.5" height="18.5"/>
					</g>
					<g>
						<rect x="333.7" y="327.8" class="st3" width="91.9" height="18.5"/>
						<g>
							<path class="st5" d="M420.3,190.6c0,0.4,0.4,0.8,0.8,0.8s0.8-0.4,0.8-0.8s-0.4-0.8-0.8-0.8
								C420.7,189.8,420.3,190.2,420.3,190.6z"/>
							<path class="st4" d="M416.5,190.6c0,0.4,0.4,0.8,0.8,0.8s0.8-0.4,0.8-0.8s-0.4-0.8-0.8-0.8
								C416.8,189.8,416.5,190.2,416.5,190.6z"/>
							<path class="st5" d="M412.6,190.6c0,0.4,0.4,0.8,0.8,0.8s0.8-0.4,0.8-0.8s-0.4-0.8-0.8-0.8S412.6,190.2,412.6,190.6z"/>
						</g>
						<rect x="333.7" y="335.2" class="st5" width="91.9" height="3.6"/>
						<rect x="329.2" y="327.8" class="st2" width="4.5" height="18.5"/>
					</g>
					<g>
						<rect x="333.7" y="348.1" class="st3" width="91.9" height="18.5"/>
						<g>
							<path class="st5" d="M420.3,170.3c0,0.4,0.4,0.8,0.8,0.8s0.8-0.4,0.8-0.8s-0.4-0.8-0.8-0.8
								C420.7,169.5,420.3,169.9,420.3,170.3z"/>
							<path class="st5" d="M416.5,170.3c0,0.4,0.4,0.8,0.8,0.8s0.8-0.4,0.8-0.8s-0.4-0.8-0.8-0.8
								C416.8,169.5,416.5,169.9,416.5,170.3z"/>
							<path class="st4" d="M412.6,170.3c0,0.4,0.4,0.8,0.8,0.8s0.8-0.4,0.8-0.8s-0.4-0.8-0.8-0.8S412.6,169.9,412.6,170.3z"/>
						</g>
						<rect x="333.7" y="355.5" class="st5" width="91.9" height="3.6"/>
						<rect x="329.2" y="348.1" class="st2" width="4.5" height="18.5"/>
					</g>
				</g>
			</g>
			<g>
				<g>
					<path class="st2" d="M265.6,149.6h-69.4c-3.8,3.8-5.9,5.9-9.6,9.6v213.6c3.8,3.8,5.9,5.9,9.6,9.6h69.4c3.8-3.8,5.9-5.9,9.6-9.6
						V159.2C271.5,155.4,269.4,153.4,265.6,149.6z"/>
					<polygon class="st3" points="186.6,372.8 196.2,382.4 217.7,382.4 208.1,372.8 					"/>
					<polygon class="st3" points="186.6,159.2 196.2,149.6 217.7,149.6 208.1,159.2 					"/>
				</g>
				<path class="st3" d="M303.8,149.6h-86.1c-3.8,3.8-5.9,5.9-9.6,9.6v213.6c3.8,3.8,5.9,5.9,9.6,9.6h86.1c3.8-3.8,5.9-5.9,9.6-9.6
					V159.2C309.7,155.4,307.6,153.4,303.8,149.6z"/>
				<polygon class="st4" points="218.9,377.9 212.6,371.6 212.6,160.4 218.9,154.1 302.6,154.1 308.9,160.4 308.9,371.6 
					302.6,377.9 				"/>
				<g>
					<g>
						<rect x="217.1" y="165.4" class="st3" width="91.9" height="18.5"/>
						<g>
							<path class="st5" d="M303.8,170.3c0-0.4,0.4-0.8,0.8-0.8s0.8,0.4,0.8,0.8s-0.4,0.8-0.8,0.8S303.8,170.8,303.8,170.3z"/>
							<path class="st4" d="M299.9,170.3c0-0.4,0.4-0.8,0.8-0.8s0.8,0.4,0.8,0.8s-0.4,0.8-0.8,0.8S299.9,170.8,299.9,170.3z"/>
							<path class="st5" d="M296,170.3c0-0.4,0.4-0.8,0.8-0.8s0.8,0.4,0.8,0.8s-0.4,0.8-0.8,0.8S296,170.8,296,170.3z"/>
						</g>
						<rect x="217.1" y="172.9" class="st5" width="91.9" height="3.6"/>
						<rect x="212.6" y="165.5" class="st2" width="4.5" height="18.5"/>
					</g>
					<g>
						<rect x="217.1" y="185.7" class="st3" width="91.9" height="18.5"/>
						<g>
							<path class="st5" d="M303.8,190.6c0-0.4,0.4-0.8,0.8-0.8s0.8,0.4,0.8,0.8s-0.4,0.8-0.8,0.8S303.8,191,303.8,190.6z"/>
							<path class="st4" d="M299.9,190.6c0-0.4,0.4-0.8,0.8-0.8s0.8,0.4,0.8,0.8s-0.4,0.8-0.8,0.8
								C300.2,191.4,299.9,191,299.9,190.6z"/>
							<path class="st4" d="M296,190.6c0-0.4,0.4-0.8,0.8-0.8s0.8,0.4,0.8,0.8s-0.4,0.8-0.8,0.8C296.4,191.4,296,191,296,190.6z"/>
						</g>
						<rect x="217.1" y="193.2" class="st5" width="91.9" height="3.6"/>
						<rect x="212.6" y="185.7" class="st2" width="4.5" height="18.5"/>
					</g>
					<g>
						<rect x="217.1" y="206" class="st3" width="91.9" height="18.5"/>
						<g>
							<path class="st5" d="M303.8,210.9c0-0.4,0.4-0.8,0.8-0.8s0.8,0.4,0.8,0.8s-0.4,0.8-0.8,0.8S303.8,211.3,303.8,210.9z"/>
							<path class="st5" d="M299.9,210.9c0-0.4,0.4-0.8,0.8-0.8s0.8,0.4,0.8,0.8s-0.4,0.8-0.8,0.8S299.9,211.3,299.9,210.9z"/>
							<path class="st5" d="M296,210.9c0-0.4,0.4-0.8,0.8-0.8s0.8,0.4,0.8,0.8s-0.4,0.8-0.8,0.8S296,211.3,296,210.9z"/>
						</g>
						<rect x="217.1" y="213.5" class="st5" width="91.9" height="3.6"/>
						<rect x="212.6" y="206" class="st2" width="4.5" height="18.5"/>
					</g>
					<g>
						<rect x="217.1" y="226.3" class="st3" width="91.9" height="18.5"/>
						<g>
							<path class="st4" d="M303.8,231.2c0-0.4,0.4-0.8,0.8-0.8s0.8,0.4,0.8,0.8s-0.4,0.8-0.8,0.8S303.8,231.6,303.8,231.2z"/>
							<path class="st4" d="M299.9,231.2c0-0.4,0.4-0.8,0.8-0.8s0.8,0.4,0.8,0.8s-0.4,0.8-0.8,0.8S299.9,231.6,299.9,231.2z"/>
							<path class="st5" d="M296,231.2c0-0.4,0.4-0.8,0.8-0.8s0.8,0.4,0.8,0.8s-0.4,0.8-0.8,0.8S296,231.6,296,231.2z"/>
						</g>
						<rect x="217.1" y="233.8" class="st5" width="91.9" height="3.6"/>
						<rect x="212.6" y="226.3" class="st2" width="4.5" height="18.5"/>
					</g>
					<g>
						<rect x="217.1" y="246.6" class="st3" width="91.9" height="18.5"/>
						<g>
							<path class="st4" d="M303.8,251.5c0-0.4,0.4-0.8,0.8-0.8s0.8,0.4,0.8,0.8s-0.4,0.8-0.8,0.8S303.8,251.9,303.8,251.5z"/>
							<path class="st4" d="M299.9,251.5c0-0.4,0.4-0.8,0.8-0.8s0.8,0.4,0.8,0.8s-0.4,0.8-0.8,0.8S299.9,251.9,299.9,251.5z"/>
							<path class="st4" d="M296,251.5c0-0.4,0.4-0.8,0.8-0.8s0.8,0.4,0.8,0.8s-0.4,0.8-0.8,0.8S296,251.9,296,251.5z"/>
						</g>
						<rect x="217.1" y="254.1" class="st5" width="91.9" height="3.6"/>
						<rect x="212.6" y="246.6" class="st2" width="4.5" height="18.5"/>
					</g>
					<g>
						<rect x="217.1" y="266.9" class="st3" width="91.9" height="18.5"/>
						<g>
							<path class="st5" d="M303.8,271.8c0-0.4,0.4-0.8,0.8-0.8s0.8,0.4,0.8,0.8s-0.4,0.8-0.8,0.8S303.8,272.2,303.8,271.8z"/>
							<path class="st4" d="M299.9,271.8c0-0.4,0.4-0.8,0.8-0.8s0.8,0.4,0.8,0.8s-0.4,0.8-0.8,0.8S299.9,272.2,299.9,271.8z"/>
							<path class="st5" d="M296,271.8c0-0.4,0.4-0.8,0.8-0.8s0.8,0.4,0.8,0.8s-0.4,0.8-0.8,0.8C296.4,272.6,296,272.2,296,271.8z"
								/>
						</g>
						<rect x="217.1" y="274.4" class="st5" width="91.9" height="3.6"/>
						<rect x="212.6" y="266.9" class="st2" width="4.5" height="18.5"/>
					</g>
					<g>
						<rect x="217.1" y="287.2" class="st3" width="91.9" height="18.5"/>
						<g>
							<path class="st4" d="M303.8,292c0-0.4,0.4-0.8,0.8-0.8s0.8,0.4,0.8,0.8s-0.4,0.8-0.8,0.8S303.8,292.5,303.8,292z"/>
							<path class="st4" d="M299.9,292c0-0.4,0.4-0.8,0.8-0.8s0.8,0.4,0.8,0.8s-0.4,0.8-0.8,0.8C300.2,292.9,299.9,292.5,299.9,292z
								"/>
							<path class="st5" d="M296,292c0-0.4,0.4-0.8,0.8-0.8s0.8,0.4,0.8,0.8s-0.4,0.8-0.8,0.8C296.4,292.9,296,292.5,296,292z"/>
						</g>
						<rect x="217.1" y="294.6" class="st5" width="91.9" height="3.6"/>
						<rect x="212.6" y="287.2" class="st2" width="4.5" height="18.5"/>
					</g>
					<g>
						<rect x="217.1" y="307.5" class="st3" width="91.9" height="18.5"/>
						<g>
							<path class="st4" d="M303.8,312.3c0-0.4,0.4-0.8,0.8-0.8s0.8,0.4,0.8,0.8s-0.4,0.8-0.8,0.8S303.8,312.8,303.8,312.3z"/>
							<path class="st5" d="M299.9,312.3c0-0.4,0.4-0.8,0.8-0.8s0.8,0.4,0.8,0.8s-0.4,0.8-0.8,0.8
								C300.2,313.1,299.9,312.8,299.9,312.3z"/>
							<path class="st4" d="M296,312.3c0-0.4,0.4-0.8,0.8-0.8s0.8,0.4,0.8,0.8s-0.4,0.8-0.8,0.8C296.4,313.1,296,312.8,296,312.3z"
								/>
						</g>
						<rect x="217.1" y="314.9" class="st5" width="91.9" height="3.6"/>
						<rect x="212.6" y="307.5" class="st2" width="4.5" height="18.5"/>
					</g>
					<g>
						<rect x="217.1" y="327.8" class="st3" width="91.9" height="18.5"/>
						<g>
							<path class="st5" d="M303.8,332.6c0-0.4,0.4-0.8,0.8-0.8s0.8,0.4,0.8,0.8s-0.4,0.8-0.8,0.8S303.8,333.1,303.8,332.6z"/>
							<path class="st4" d="M299.9,332.6c0-0.4,0.4-0.8,0.8-0.8s0.8,0.4,0.8,0.8s-0.4,0.8-0.8,0.8
								C300.2,333.4,299.9,333.1,299.9,332.6z"/>
							<path class="st5" d="M296,332.6c0-0.4,0.4-0.8,0.8-0.8s0.8,0.4,0.8,0.8s-0.4,0.8-0.8,0.8S296,333.1,296,332.6z"/>
						</g>
						<rect x="217.1" y="335.2" class="st5" width="91.9" height="3.6"/>
						<rect x="212.6" y="327.8" class="st2" width="4.5" height="18.5"/>
					</g>
					<g>
						<rect x="217.1" y="348.1" class="st3" width="91.9" height="18.5"/>
						<g>
							<path class="st5" d="M303.8,352.9c0-0.4,0.4-0.8,0.8-0.8s0.8,0.4,0.8,0.8s-0.4,0.8-0.8,0.8S303.8,353.4,303.8,352.9z"/>
							<path class="st5" d="M299.9,352.9c0-0.4,0.4-0.8,0.8-0.8s0.8,0.4,0.8,0.8s-0.4,0.8-0.8,0.8
								C300.2,353.7,299.9,353.4,299.9,352.9z"/>
							<path class="st4" d="M296,352.9c0-0.4,0.4-0.8,0.8-0.8s0.8,0.4,0.8,0.8s-0.4,0.8-0.8,0.8C296.4,353.7,296,353.4,296,352.9z"
								/>
						</g>
						<rect x="217.1" y="355.5" class="st5" width="91.9" height="3.6"/>
						<rect x="212.6" y="348.1" class="st2" width="4.5" height="18.5"/>
					</g>
				</g>
			</g>
			<g>
				<g>
					<path class="st2" d="M149,149.6H79.6c-3.8,3.8-5.8,5.9-9.6,9.6v213.6c3.8,3.8,5.8,5.9,9.6,9.6H149c3.8-3.8,5.9-5.9,9.6-9.6
						V159.2C154.9,155.4,152.8,153.4,149,149.6z"/>
					<polygon class="st3" points="70,372.8 79.6,382.4 101.1,382.4 91.5,372.8 					"/>
					<polygon class="st3" points="70,159.2 79.6,149.6 101.1,149.6 91.5,159.2 					"/>
				</g>
				<path class="st3" d="M187.2,149.6h-86.1c-3.8,3.8-5.8,5.9-9.6,9.6v213.6c3.8,3.8,5.8,5.9,9.6,9.6h86.1c3.8-3.8,5.9-5.9,9.6-9.6
					V159.2C193.1,155.4,191,153.4,187.2,149.6z"/>
				<polygon class="st4" points="102.3,377.9 96,371.6 96,160.4 102.3,154.1 186,154.1 192.4,160.4 192.4,371.6 186,377.9 				"/>
				<g>
					<g>
						<rect x="100.5" y="165.4" class="st3" width="91.9" height="18.5"/>
						<g>
							<path class="st5" d="M187.2,352.9c0,0.4,0.4,0.8,0.8,0.8s0.8-0.4,0.8-0.8s-0.4-0.8-0.8-0.8
								C187.5,352.1,187.2,352.5,187.2,352.9z"/>
							<path class="st4" d="M183.3,352.9c0,0.4,0.4,0.8,0.8,0.8s0.8-0.4,0.8-0.8s-0.4-0.8-0.8-0.8S183.3,352.5,183.3,352.9z"/>
							<path class="st5" d="M179.4,352.9c0,0.4,0.4,0.8,0.8,0.8s0.8-0.4,0.8-0.8s-0.4-0.8-0.8-0.8
								C179.8,352.1,179.4,352.5,179.4,352.9z"/>
						</g>
						<rect x="100.5" y="172.9" class="st5" width="91.9" height="3.6"/>
						<rect x="96" y="165.5" class="st2" width="4.5" height="18.5"/>
					</g>
					<g>
						<rect x="100.5" y="185.7" class="st3" width="91.9" height="18.5"/>
						<g>
							<path class="st5" d="M187.2,332.6c0,0.4,0.4,0.8,0.8,0.8s0.8-0.4,0.8-0.8s-0.4-0.8-0.8-0.8S187.2,332.2,187.2,332.6z"/>
							<path class="st4" d="M183.3,332.6c0,0.4,0.4,0.8,0.8,0.8s0.8-0.4,0.8-0.8s-0.4-0.8-0.8-0.8
								C183.7,331.8,183.3,332.2,183.3,332.6z"/>
							<path class="st4" d="M179.4,332.6c0,0.4,0.4,0.8,0.8,0.8s0.8-0.4,0.8-0.8s-0.4-0.8-0.8-0.8S179.4,332.2,179.4,332.6z"/>
						</g>
						<rect x="100.5" y="193.2" class="st5" width="91.9" height="3.6"/>
						<rect x="96" y="185.7" class="st2" width="4.5" height="18.5"/>
					</g>
					<g>
						<rect x="100.5" y="206" class="st3" width="91.9" height="18.5"/>
						<g>
							<path class="st5" d="M187.2,312.3c0,0.4,0.4,0.8,0.8,0.8s0.8-0.4,0.8-0.8s-0.4-0.8-0.8-0.8
								C187.5,311.5,187.2,311.9,187.2,312.3z"/>
							<path class="st5" d="M183.3,312.3c0,0.4,0.4,0.8,0.8,0.8s0.8-0.4,0.8-0.8s-0.4-0.8-0.8-0.8S183.3,311.9,183.3,312.3z"/>
							<path class="st5" d="M179.4,312.3c0,0.4,0.4,0.8,0.8,0.8s0.8-0.4,0.8-0.8s-0.4-0.8-0.8-0.8
								C179.8,311.5,179.4,311.9,179.4,312.3z"/>
						</g>
						<rect x="100.5" y="213.5" class="st5" width="91.9" height="3.6"/>
						<rect x="96" y="206" class="st2" width="4.5" height="18.5"/>
					</g>
					<g>
						<rect x="100.5" y="226.3" class="st3" width="91.9" height="18.5"/>
						<g>
							<path class="st4" d="M187.2,292c0,0.4,0.4,0.8,0.8,0.8s0.8-0.4,0.8-0.8s-0.4-0.8-0.8-0.8C187.5,291.2,187.2,291.6,187.2,292z
								"/>
							<path class="st4" d="M183.3,292c0,0.4,0.4,0.8,0.8,0.8s0.8-0.4,0.8-0.8s-0.4-0.8-0.8-0.8S183.3,291.6,183.3,292z"/>
							<path class="st5" d="M179.4,292c0,0.4,0.4,0.8,0.8,0.8s0.8-0.4,0.8-0.8s-0.4-0.8-0.8-0.8C179.8,291.2,179.4,291.6,179.4,292z
								"/>
						</g>
						<rect x="100.5" y="233.8" class="st5" width="91.9" height="3.6"/>
						<rect x="96" y="226.3" class="st2" width="4.5" height="18.5"/>
					</g>
					<g>
						<rect x="100.5" y="246.6" class="st3" width="91.9" height="18.5"/>
						<g>
							<path class="st4" d="M187.2,271.8c0,0.4,0.4,0.8,0.8,0.8s0.8-0.4,0.8-0.8s-0.4-0.8-0.8-0.8
								C187.5,271,187.2,271.3,187.2,271.8z"/>
							<path class="st4" d="M183.3,271.8c0,0.4,0.4,0.8,0.8,0.8s0.8-0.4,0.8-0.8s-0.4-0.8-0.8-0.8S183.3,271.3,183.3,271.8z"/>
							<path class="st4" d="M179.4,271.8c0,0.4,0.4,0.8,0.8,0.8s0.8-0.4,0.8-0.8s-0.4-0.8-0.8-0.8
								C179.8,271,179.4,271.3,179.4,271.8z"/>
						</g>
						<rect x="100.5" y="254.1" class="st5" width="91.9" height="3.6"/>
						<rect x="96" y="246.6" class="st2" width="4.5" height="18.5"/>
					</g>
					<g>
						<rect x="100.5" y="266.9" class="st3" width="91.9" height="18.5"/>
						<g>
							<path class="st5" d="M187.2,251.5c0,0.4,0.4,0.8,0.8,0.8s0.8-0.4,0.8-0.8s-0.4-0.8-0.8-0.8S187.2,251,187.2,251.5z"/>
							<path class="st4" d="M183.3,251.5c0,0.4,0.4,0.8,0.8,0.8s0.8-0.4,0.8-0.8s-0.4-0.8-0.8-0.8S183.3,251,183.3,251.5z"/>
							<path class="st5" d="M179.4,251.5c0,0.4,0.4,0.8,0.8,0.8s0.8-0.4,0.8-0.8s-0.4-0.8-0.8-0.8S179.4,251,179.4,251.5z"/>
						</g>
						<rect x="100.5" y="274.4" class="st5" width="91.9" height="3.6"/>
						<rect x="96" y="266.9" class="st2" width="4.5" height="18.5"/>
					</g>
					<g>
						<rect x="100.5" y="287.2" class="st3" width="91.9" height="18.5"/>
						<g>
							<path class="st4" d="M187.2,231.2c0,0.4,0.4,0.8,0.8,0.8s0.8-0.4,0.8-0.8s-0.4-0.8-0.8-0.8
								C187.5,230.4,187.2,230.7,187.2,231.2z"/>
							<path class="st4" d="M183.3,231.2c0,0.4,0.4,0.8,0.8,0.8s0.8-0.4,0.8-0.8s-0.4-0.8-0.8-0.8S183.3,230.7,183.3,231.2z"/>
							<path class="st5" d="M179.4,231.2c0,0.4,0.4,0.8,0.8,0.8s0.8-0.4,0.8-0.8s-0.4-0.8-0.8-0.8
								C179.8,230.4,179.4,230.7,179.4,231.2z"/>
						</g>
						<rect x="100.5" y="294.6" class="st5" width="91.9" height="3.6"/>
						<rect x="96" y="287.2" class="st2" width="4.5" height="18.5"/>
					</g>
					<g>
						<rect x="100.5" y="307.5" class="st3" width="91.9" height="18.5"/>
						<g>
							<path class="st4" d="M187.2,210.9c0,0.4,0.4,0.8,0.8,0.8s0.8-0.4,0.8-0.8s-0.4-0.8-0.8-0.8S187.2,210.4,187.2,210.9z"/>
							<path class="st5" d="M183.3,210.9c0,0.4,0.4,0.8,0.8,0.8s0.8-0.4,0.8-0.8s-0.4-0.8-0.8-0.8
								C183.7,210.1,183.3,210.4,183.3,210.9z"/>
							<path class="st4" d="M179.4,210.9c0,0.4,0.4,0.8,0.8,0.8s0.8-0.4,0.8-0.8s-0.4-0.8-0.8-0.8S179.4,210.4,179.4,210.9z"/>
						</g>
						<rect x="100.5" y="314.9" class="st5" width="91.9" height="3.6"/>
						<rect x="96" y="307.5" class="st2" width="4.5" height="18.5"/>
					</g>
					<g>
						<rect x="100.5" y="327.8" class="st3" width="91.9" height="18.5"/>
						<g>
							<path class="st5" d="M187.2,190.6c0,0.4,0.4,0.8,0.8,0.8s0.8-0.4,0.8-0.8s-0.4-0.8-0.8-0.8S187.2,190.2,187.2,190.6z"/>
							<path class="st4" d="M183.3,190.6c0,0.4,0.4,0.8,0.8,0.8s0.8-0.4,0.8-0.8s-0.4-0.8-0.8-0.8S183.3,190.2,183.3,190.6z"/>
							<path class="st5" d="M179.4,190.6c0,0.4,0.4,0.8,0.8,0.8s0.8-0.4,0.8-0.8s-0.4-0.8-0.8-0.8S179.4,190.2,179.4,190.6z"/>
						</g>
						<rect x="100.5" y="335.2" class="st5" width="91.9" height="3.6"/>
						<rect x="96" y="327.8" class="st2" width="4.5" height="18.5"/>
					</g>
					<g>
						<rect x="100.5" y="348.1" class="st3" width="91.9" height="18.5"/>
						<g>
							<path class="st5" d="M187.2,170.3c0,0.4,0.4,0.8,0.8,0.8s0.8-0.4,0.8-0.8s-0.4-0.8-0.8-0.8S187.2,169.9,187.2,170.3z"/>
							<path class="st5" d="M183.3,170.3c0,0.4,0.4,0.8,0.8,0.8s0.8-0.4,0.8-0.8s-0.4-0.8-0.8-0.8S183.3,169.9,183.3,170.3z"/>
							<path class="st4" d="M179.4,170.3c0,0.4,0.4,0.8,0.8,0.8s0.8-0.4,0.8-0.8s-0.4-0.8-0.8-0.8S179.4,169.9,179.4,170.3z"/>
						</g>
						<rect x="100.5" y="355.5" class="st5" width="91.9" height="3.6"/>
						<rect x="96" y="348.1" class="st2" width="4.5" height="18.5"/>
					</g>
				</g>
			</g>
		</g>
		<path class="st5" d="M182.8,95.2c-0.1-8.1-6.7-14.7-14.8-14.7c-2,0-3.8,0.4-5.6,1.1c-2.9-6-9-10.1-16.1-10.1
			c-8.6,0-15.7,6-17.5,14c-8.1,0.5-14.4,7.2-14.4,15.4c0,8.5,6.9,15.4,15.4,15.4h49.1c6,0,10.9-4.9,10.9-10.9
			C189.9,100.7,186.9,96.8,182.8,95.2z"/>
		<path class="st5" d="M422.3,80.5c-0.1-10.8-8.8-19.5-19.6-19.5c-2.6,0-5.1,0.5-7.4,1.4c-3.9-7.9-12-13.3-21.3-13.3
			c-11.3,0-20.8,8-23.2,18.6c-10.7,0.7-19.1,9.5-19.1,20.4c0,11.3,9.1,20.4,20.4,20.4h65c8,0,14.5-6.5,14.5-14.5
			C431.6,87.8,427.7,82.6,422.3,80.5z"/>
	</g>
</g>
<g id="Background_Simple" class="st0">
	<g class="st6">
		<path class="st7" d="M297.5,150.7c-26.4-39.5-36.8-75.3-93.7-86c-38.4-7.2-85.3,1.3-108.7,29.7c-42.2,51.4-46.8,180.1,44,200.8
			c44.4,10.1,82.5-1.8,127.4,16.3c44.8,18,84.1,31.9,125.9-2.5c26.7-22,40.6-63.1,15.7-91C378,184.2,327.2,195.1,297.5,150.7z"/>
		<path class="st8" d="M297.5,150.7c-26.4-39.5-36.8-75.3-93.7-86c-38.4-7.2-85.3,1.3-108.7,29.7c-42.2,51.4-46.8,180.1,44,200.8
			c44.4,10.1,82.5-1.8,127.4,16.3c44.8,18,84.1,31.9,125.9-2.5c26.7-22,40.6-63.1,15.7-91C378,184.2,327.2,195.1,297.5,150.7z"/>
	</g>
</g>
<g id="Shadow_1_">
	<ellipse id="_x3C_Path_x3E__369_" class="st5" cx="250" cy="416.2" rx="193.9" ry="11.3"/>
</g>
<g id="Server">
	<g>
		<g>
			<g>
				<g>
					<path class="st7" d="M86.5,401.5V400h-9c-0.4,0-0.8,0.3-0.8,0.8l0,0c0,0.4,0.3,0.8,0.8,0.8L86.5,401.5L86.5,401.5z"/>
					<path class="st7" d="M86.5,408v-1.5h-9c-0.4,0-0.8,0.3-0.8,0.8l0,0c0,0.4,0.3,0.8,0.8,0.8L86.5,408L86.5,408z"/>
					<path d="M83.3,396.2L83.3,396.2c-0.7,0-1.3,0.6-1.3,1.3v13.2c0,0.7,0.6,1.3,1.3,1.3l0,0c0.7,0,1.3-0.6,1.3-1.3v-13.2
						C84.6,396.8,84,396.2,83.3,396.2z"/>
					<path d="M86.9,398.1h-3.6v12h3.6c3.3,0,6-2.7,6-6l0,0C92.9,400.8,90.2,398.1,86.9,398.1z"/>
					<path d="M115.1,412.4c-2.6,0-5.1-0.3-7.7-0.6l-4.4-0.5c-0.7,0-1.4,0.1-2.1,0.1c-1,0.1-2.1,0.3-3.1,0.4
						c-1.9,0.3-3.8,0.6-5.8,0.5c-0.4,0-0.8,0-1.2-0.2c-0.5-0.2-0.8-0.7-0.8-1.2s0.3-0.9,0.8-1.1c0.4-0.2,0.8-0.2,1.1-0.3
						c2.2-0.2,4.5,0.1,6.6,0.3l4.5,0.5c1.8-0.1,3.6,0,5.3,0c2.2,0,4.4,0.1,6.8-0.1c2-0.2,3.4-0.8,3.5-1.1c-0.4-0.5-1.5-0.7-3.8-1
						c-1.7-0.2-3.8-0.3-6.1-0.3c-1.8,0-3.6-0.1-5.5-0.2c-3.8-0.2-8.6-0.9-12.8-3.3c-0.2-0.1-0.3-0.4-0.2-0.6
						c0.1-0.2,0.4-0.3,0.6-0.2c4,2.3,8.7,2.9,12.4,3.1c1.9,0.1,3.7,0.2,5.5,0.2c2.3,0.1,4.4,0.1,6.2,0.3c1.3,0.2,2.3,0.3,2.9,0.5
						l-0.1-0.1c-0.3-0.4-0.7-0.9-1-1.3c-0.4-0.6-0.8-1.3-1-2c-0.2-0.9,0-1.8,0.5-2.4c0.6-0.7,1.7-0.9,2.4-1c2.1-0.2,4.2,0.1,6.2,0.4
						c0.2,0,0.4,0.3,0.4,0.5s-0.2,0.4-0.5,0.4c-2-0.3-4-0.6-6-0.4c-0.6,0.1-1.4,0.2-1.8,0.7c-0.3,0.4-0.4,1-0.3,1.6s0.5,1.2,0.8,1.8
						c0.3,0.4,0.6,0.9,0.9,1.3c0.2,0.3,0.4,0.5,0.6,0.8l0.1,0.1c0.4,0.6,1.1,1.4,0.9,2.3c-0.3,1.9-3,2-4.3,2
						C115.6,412.4,115.3,412.4,115.1,412.4z M111,411.3c1.6,0.1,3.1,0.2,4.7,0.2c1.1,0,3.3-0.1,3.5-1.2c0-0.1,0-0.3,0-0.4
						c-0.8,0.8-2.7,1.2-4,1.3C113.8,411.2,112.4,411.3,111,411.3z M93.5,410.3c-0.5,0-1,0-1.5,0.1c-0.3,0-0.6,0.1-0.8,0.2
						c-0.2,0.1-0.3,0.2-0.3,0.4c0,0.1,0.1,0.3,0.3,0.4c0.2,0.1,0.6,0.1,0.8,0.1c1.9,0.1,3.8-0.2,5.6-0.5c0.4-0.1,0.8-0.1,1.3-0.2
						l-0.5-0.1C96.8,410.5,95.2,410.3,93.5,410.3z"/>
				</g>
			</g>
			<path d="M220.1,171h-89.8c-3.9,3.9-6.1,6.1-10,10v222.7c3.9,3.9,6.1,6.1,10,10h89.8c3.9-3.9,6.1-6.1,10-10V181
				C226.2,177.1,224,174.9,220.1,171z"/>
			<polygon class="st7" points="104.2,190.4 102.1,193.1 97,185.8 100.8,200.2 102.9,197.4 108,204.8 			"/>
			<polygon class="st7" points="181.1,142.2 178,143.8 176.7,134.9 173.7,149.5 176.8,147.9 178.1,156.8 			"/>
			<polygon class="st7" points="206.6,146.2 202,145.1 208.6,134.6 192.3,147.4 196.9,148.4 190.4,159 			"/>
			<polygon class="st9" points="120.3,403.7 130.3,413.7 170.2,413.7 160.2,403.7 			"/>
			<polygon class="st9" points="120.3,181 130.3,171 170.2,171 160.2,181 			"/>
		</g>
		<path class="st10" d="M260,171h-89.8c-3.9,3.9-6.1,6.1-10,10v222.7c3.9,3.9,6.1,6.1,10,10H260c3.9-3.9,6.1-6.1,10-10V181
			C266,177.1,263.9,174.9,260,171z"/>
		<polygon class="st11" points="171.4,409.1 164.8,402.5 164.8,182.3 171.4,175.7 258.7,175.7 265.3,182.3 265.3,402.5 258.7,409.1 
					"/>
		<g>
			<g>
				<rect x="169.5" y="187.5" class="st10" width="95.8" height="19.3"/>
				<g>
					<path class="st7" d="M259.9,192.6c0-0.5,0.4-0.8,0.8-0.8s0.8,0.4,0.8,0.8c0,0.5-0.4,0.8-0.8,0.8S259.9,193.1,259.9,192.6z"/>
					<path class="st4" d="M255.9,192.6c0-0.5,0.4-0.8,0.8-0.8s0.8,0.4,0.8,0.8c0,0.5-0.4,0.8-0.8,0.8S255.9,193.1,255.9,192.6z"/>
					<path class="st7" d="M251.8,192.6c0-0.5,0.4-0.8,0.8-0.8s0.8,0.4,0.8,0.8c0,0.5-0.4,0.8-0.8,0.8S251.8,193.1,251.8,192.6z"/>
				</g>
				<rect x="169.5" y="195.3" class="st7" width="95.8" height="3.8"/>
				<rect x="164.8" y="187.5" width="4.7" height="19.3"/>
			</g>
			<g>
				<rect x="169.5" y="208.7" class="st10" width="95.8" height="19.3"/>
				<g>
					<circle class="st7" cx="260.7" cy="213.8" r="0.8"/>
					<path class="st4" d="M256.7,213c0.4,0,0.8,0.4,0.8,0.8s-0.4,0.8-0.8,0.8s-0.8-0.4-0.8-0.8S256.3,213,256.7,213z"/>
					<circle class="st4" cx="252.7" cy="213.8" r="0.8"/>
				</g>
				<rect x="169.5" y="216.5" class="st7" width="95.8" height="3.8"/>
				<rect x="164.8" y="208.7" width="4.7" height="19.3"/>
			</g>
			<g>
				<rect x="169.5" y="229.8" class="st10" width="95.8" height="19.3"/>
				<g>
					<circle class="st7" cx="260.7" cy="234.9" r="0.8"/>
					<path class="st7" d="M256.7,234.1c0.4,0,0.8,0.4,0.8,0.8s-0.4,0.8-0.8,0.8s-0.8-0.4-0.8-0.8S256.3,234.1,256.7,234.1z"/>
					<circle class="st7" cx="252.7" cy="234.9" r="0.8"/>
				</g>
				<rect x="169.5" y="237.6" class="st7" width="95.8" height="3.8"/>
				<rect x="164.8" y="229.8" width="4.7" height="19.3"/>
			</g>
			<g>
				<rect x="169.5" y="251" class="st10" width="95.8" height="19.3"/>
				<g>
					<path class="st4" d="M260.7,255.3c0.4,0,0.8,0.4,0.8,0.8c0,0.4-0.4,0.8-0.8,0.8s-0.8-0.4-0.8-0.8S260.3,255.3,260.7,255.3z"/>
					<path class="st4" d="M256.7,255.3c0.4,0,0.8,0.4,0.8,0.8c0,0.4-0.4,0.8-0.8,0.8s-0.8-0.4-0.8-0.8S256.3,255.3,256.7,255.3z"/>
					<path class="st7" d="M252.7,255.3c0.4,0,0.8,0.4,0.8,0.8c0,0.4-0.4,0.8-0.8,0.8s-0.8-0.4-0.8-0.8S252.3,255.3,252.7,255.3z"/>
				</g>
				<rect x="169.5" y="258.8" class="st7" width="95.8" height="3.8"/>
				<rect x="164.8" y="251" width="4.7" height="19.3"/>
			</g>
			<g>
				<rect x="169.5" y="272.1" class="st10" width="95.8" height="19.3"/>
				<g>
					<path class="st4" d="M259.9,277.2c0-0.5,0.4-0.8,0.8-0.8s0.8,0.4,0.8,0.8s-0.4,0.8-0.8,0.8S259.9,277.7,259.9,277.2z"/>
					<path class="st4" d="M255.9,277.2c0-0.5,0.4-0.8,0.8-0.8s0.8,0.4,0.8,0.8s-0.4,0.8-0.8,0.8S255.9,277.7,255.9,277.2z"/>
					<path class="st4" d="M251.8,277.2c0-0.5,0.4-0.8,0.8-0.8s0.8,0.4,0.8,0.8s-0.4,0.8-0.8,0.8S251.8,277.7,251.8,277.2z"/>
				</g>
				<rect x="169.5" y="279.9" class="st7" width="95.8" height="3.8"/>
				<rect x="164.8" y="272.2" width="4.7" height="19.3"/>
			</g>
			<g>
				<rect x="169.5" y="293.3" class="st10" width="95.8" height="19.3"/>
				<g>
					<path class="st7" d="M259.9,298.4c0-0.5,0.4-0.8,0.8-0.8s0.8,0.4,0.8,0.8c0,0.5-0.4,0.8-0.8,0.8S259.9,298.8,259.9,298.4z"/>
					<path class="st4" d="M255.9,298.4c0-0.5,0.4-0.8,0.8-0.8s0.8,0.4,0.8,0.8c0,0.5-0.4,0.8-0.8,0.8S255.9,298.8,255.9,298.4z"/>
					<path class="st7" d="M251.8,298.4c0-0.5,0.4-0.8,0.8-0.8s0.8,0.4,0.8,0.8c0,0.5-0.4,0.8-0.8,0.8S251.8,298.8,251.8,298.4z"/>
				</g>
				<rect x="169.5" y="301.1" class="st7" width="95.8" height="3.8"/>
				<rect x="164.8" y="293.3" width="4.7" height="19.3"/>
			</g>
			<g>
				<rect x="169.5" y="314.5" class="st10" width="95.8" height="19.3"/>
				<g>
					<circle class="st4" cx="260.7" cy="319.5" r="0.8"/>
					<path class="st4" d="M256.7,318.7c0.4,0,0.8,0.4,0.8,0.8s-0.4,0.8-0.8,0.8s-0.8-0.4-0.8-0.8S256.3,318.7,256.7,318.7z"/>
					<circle class="st7" cx="252.7" cy="319.5" r="0.8"/>
				</g>
				<rect x="169.5" y="322.2" class="st7" width="95.8" height="3.8"/>
				<rect x="164.8" y="314.5" width="4.7" height="19.3"/>
			</g>
			<g>
				<rect x="169.5" y="335.6" class="st10" width="95.8" height="19.3"/>
				<g>
					<circle class="st4" cx="260.7" cy="340.7" r="0.8"/>
					<path class="st7" d="M256.7,339.9c0.4,0,0.8,0.4,0.8,0.8s-0.4,0.8-0.8,0.8s-0.8-0.4-0.8-0.8S256.3,339.9,256.7,339.9z"/>
					<circle class="st4" cx="252.7" cy="340.7" r="0.8"/>
				</g>
				<rect x="169.5" y="343.4" class="st7" width="95.8" height="3.8"/>
				<rect x="164.8" y="335.6" width="4.7" height="19.3"/>
			</g>
			<g>
				<rect x="169.5" y="356.8" class="st10" width="95.8" height="19.3"/>
				<g>
					<circle class="st7" cx="260.7" cy="361.8" r="0.8"/>
					<path class="st4" d="M256.7,361c0.4,0,0.8,0.4,0.8,0.8s-0.4,0.8-0.8,0.8s-0.8-0.4-0.8-0.8S256.3,361,256.7,361z"/>
					<circle class="st7" cx="252.7" cy="361.8" r="0.8"/>
				</g>
				<rect x="169.5" y="364.5" class="st7" width="95.8" height="3.8"/>
				<rect x="164.8" y="356.8" width="4.7" height="19.3"/>
			</g>
			<g>
				<rect x="169.5" y="377.9" class="st10" width="95.8" height="19.3"/>
				<g>
					<circle class="st7" cx="260.7" cy="383" r="0.8"/>
					<path class="st7" d="M256.7,382.2c0.4,0,0.8,0.4,0.8,0.8s-0.4,0.8-0.8,0.8s-0.8-0.4-0.8-0.8S256.3,382.2,256.7,382.2z"/>
					<circle class="st4" cx="252.7" cy="383" r="0.8"/>
				</g>
				<rect x="169.5" y="385.7" class="st7" width="95.8" height="3.8"/>
				<rect x="164.8" y="377.9" width="4.7" height="19.3"/>
			</g>
		</g>
		<polygon class="st12" points="171.4,409.1 164.8,402.5 164.8,182.3 171.4,175.7 223.1,175.7 229.7,182.3 229.7,402.5 223.1,409.1 
					"/>
		<polygon class="st7" points="223.1,409.1 229.7,402.5 229.7,182.3 223.1,175.7 225.7,175.7 231.4,181.4 231.4,403.4 225.7,409.1 
					"/>
	</g>
</g>
<g id="Character_1_">
	<g>
		<path class="st13" d="M358.2,179.7c2.2,4.3,4.1,8.5,5.9,12.9c0.9,2.2,1.7,4.4,2.5,6.8c0.8,2.3,1.5,4.7,2,7.3l0.1,0.5v0.3v0.4
			c0,0.2,0.1,0.5,0.1,0.7v0.7c0,0.9,0,1.6-0.1,2.3c-0.2,1.4-0.4,2.7-0.7,3.9c-0.6,2.5-1.4,4.8-2.2,7c-1.7,4.5-3.6,8.8-5.9,13
			c-0.7,1.3-2.4,1.8-3.7,1.1c-1.1-0.6-1.6-1.9-1.4-3v-0.1c1-4.4,2.1-8.9,3-13.3c0.5-2.2,0.8-4.4,1.1-6.4c0.1-1,0.2-2,0.2-2.9
			c0-0.4,0-0.8-0.1-1.1v-0.2v-0.1l-0.1-0.2l-0.1-0.4c-0.5-1.8-1.3-3.9-2.1-5.9c-0.8-2-1.7-4.1-2.6-6.1c-1.8-4.1-3.8-8.2-5.7-12.3
			v-0.1c-1.3-2.8-0.1-6,2.6-7.3C353.6,176,356.8,177.1,358.2,179.7z"/>
		<path class="st13" d="M353.3,234.9l3.4-5l3.4-1c1.6,1.9,1.1,4.8,0.6,6.5l0,0l-1,6.3c-0.2,1.2-1.1,2.1-2.3,2.2l-2.2,0.3
			c-1.6,0.2-3.2-1-3.3-2.6l-0.1-1.1C351.7,238.5,352.2,236.5,353.3,234.9z"/>
		<g>
			<path class="st10" d="M347.8,248.4c0.8-1,1.2-2.2,1.2-3.4l16.8-7.8l0.1,0.1c2.1,1.8,5.3,1.5,7.1-0.6c0.4-0.4,0.7-1,0.9-1.5
				l-3.7,0.5c-1,0.1-1.9-0.6-1.9-1.6l-0.1-1.3c-0.1-1,0.7-1.8,1.6-1.9l3.7-0.1c-0.3-0.5-0.6-0.9-1.1-1.3c-2.1-1.8-5.3-1.5-7.1,0.6
				c-0.8,1-1.2,2.2-1.2,3.4l-16.8,7.8l-0.1-0.1c-2.1-1.8-5.3-1.5-7.1,0.6c-0.4,0.4-0.7,1-0.9,1.5l3.7-0.5c1-0.1,1.9,0.6,1.9,1.6
				l0.1,1.3c0.1,1-0.7,1.8-1.6,1.9l-3.7,0.1c0.3,0.5,0.6,0.9,1.1,1.3C342.8,250.8,346,250.5,347.8,248.4z"/>
			<path class="st14" d="M348.6,243L348.6,243c-0.2-0.5,0-1.1,0.5-1.4l13.5-6.2c0.5-0.2,1.1,0,1.4,0.5l0,0c0.2,0.5,0,1.1-0.5,1.4
				l-13.5,6.2C349.5,243.7,348.9,243.5,348.6,243z"/>
		</g>
		<path class="st10" d="M346.3,169.3c6,1.3,9,4.4,14.8,14.1c-3.3,4.9-11.4,9.1-11.4,9.1l-3.5-4C341.9,180.4,346.3,169.3,346.3,169.3
			"/>
		<path class="st15" d="M344.3,180.4c0,2.7,0.5,5.6,1.9,8.1l3.5,4c0,0,1.3-0.7,3-1.8C349.9,185,347.7,182.1,344.3,180.4z"/>
		<path class="st13" d="M318.5,178.6l-0.1,0.6l-0.1,0.5l-0.2,0.9c-0.2,0.6-0.3,1.1-0.5,1.7c-0.4,1.1-0.9,2.1-1.4,3.2
			c-1.1,2-2.4,4-4,5.6c-1.6,1.7-3.5,3.1-5.5,4.3s-4.2,1.9-6.3,2.5L300,198c-2.6,0.6-5.2-0.9-5.9-3.5c-0.1-0.2-0.1-0.5-0.1-0.7
			c-0.2-2.2,0-4.2,0.4-6s0.9-3.6,1.5-5.2c1.2-3.3,2.7-6.2,4.3-9.1c1.6-2.8,3.4-5.6,5.3-8.2c1.9-2.6,3.9-5.1,6.1-7.5
			c1-1.1,2.7-1.2,3.9-0.2c1,0.9,1.2,2.3,0.5,3.4v0.1c-1.5,2.6-3,5.3-4.4,8s-2.8,5.4-3.9,8.2c-1.2,2.7-2.2,5.5-2.9,8.2
			c-0.7,2.6-1.1,5.4-0.7,7.2l-6.4-4.1c1.4-0.5,2.6-1.2,3.7-1.9c1.1-0.8,2.1-1.7,2.9-2.7s1.6-2.1,2.2-3.3c0.3-0.6,0.6-1.2,0.8-1.9
			c0.1-0.3,0.2-0.6,0.3-0.9l0.1-0.4v-0.2c0,0,0-0.2,0,0c0.5-3,3.3-5.1,6.3-4.6C317,172.8,319,175.6,318.5,178.6z"/>
		<path class="st10" d="M321.1,177.8c0.6-3.8-2-8.3-2-8.3c-6,0.3-11.7,1.8-17.2,13.1c1.3,6.3,9.7,10.7,9.7,10.7l5.9-7.6
			C317.4,185.7,320.5,181.6,321.1,177.8z"/>
		<path class="st13" d="M313.2,154.9l1.7-1.8c0.7-0.8,1.6-1.4,2.6-1.7l1.6-0.6c1.8-0.6,3.7,0.5,4,2.3l0.4,2.1
			c0.3,1.6-0.6,3.1-2.2,3.5l-2.4,0.7c0,0-2.9,4.9-8.5,2.6C310.4,159.4,311.4,156.9,313.2,154.9z"/>
		<path class="st13" d="M356.8,398.1h-8.3c0,0,0.4,6.1,0.4,9.7l7.3,0.9C355.6,404.7,356.8,398.1,356.8,398.1z"/>
		<path class="st7" d="M320.2,226.9c0,0,14.9,63.3,19.6,89c4.9,27,8.2,81.2,8.2,83.1c2.7-0.5,7-0.6,9.1,0c0,0,10.3-63.7,1-87.3
			c-3.5-44.8,1-70.2-8-84.8L320.2,226.9L320.2,226.9z"/>
		<path class="st15" d="M339.2,246.6c-2.4-10-10.7-9-16.1-7.2c3.4,14.4,8.9,38.8,13,58.1C341.9,283.6,342.5,260,339.2,246.6z"/>
		<path class="st13" d="M303.8,397c-0.8,9.7-8.6,20.1-8.6,20.1l12.1-3.1l5.1-7.6c0.2-3,0.2-5.4,1.1-8.5L303.8,397z"/>
		<path class="st7" d="M308,226.9c0,0,2.1,67.3,1.6,87c-0.8,27.3-6.5,85.1-6.5,85.1c4.3-0.4,8.1-0.6,10.5,0c0,0,18-46.9,15.9-84.9
			c4.5-35.2,19.7-67.6,10.3-87.2L308,226.9L308,226.9z"/>
		<path class="st13" d="M340.1,151c-1.2,5.1-2.5,14.4,1,17.9c0,0-3.9,6.8-12.7,10.4c-6.7-4.3-3.2-10.4-3.2-10.4
			c5.7-1.4,5.7-5.6,4.9-9.6L340.1,151z"/>
		<path class="st7" d="M341.1,163.6c0,0-11.6-1.6-17.3,3.1c-0.1,2-1.4,3.2-1.4,3.2c6.2,1.4,12.5,1.7,18.9,0.9
			C342.8,168.2,341.1,163.6,341.1,163.6z"/>
		<path class="st10" d="M309.2,180.8c0.6,16-2.9,40.3-1.2,46.1c17.2,1.7,30.6,1.4,42.1,0c2-6.3-2.8-25.1,2.7-47.5
			c1.2-5-2.1-9.7-7.1-10.2c-1.5-0.1-3.1-0.3-4.7-0.4c-5.9-0.3-10.7-0.5-15.9,0c-2,0.2-4.1,0.4-6.1,0.7
			C313.5,170.4,309,175.2,309.2,180.8z"/>
		<path class="st10" d="M321.2,142.4c-0.1,0.7-0.5,1.2-0.9,1.2c-0.5,0-0.8-0.6-0.7-1.3c0.1-0.7,0.5-1.2,0.9-1.2
			C321,141.1,321.3,141.7,321.2,142.4z"/>
		<path class="st10" d="M320.7,141.1l-1.6-0.6C319.1,140.5,319.9,141.9,320.7,141.1z"/>
		<path class="st10" d="M320.4,137.8c-0.1,0-0.2-0.1-0.2-0.2c-0.1-0.2,0-0.4,0.1-0.6c1.9-1.2,3.6-0.5,3.7-0.4
			c0.2,0.1,0.3,0.3,0.2,0.5c-0.1,0.2-0.3,0.3-0.5,0.2c-0.1,0-1.4-0.6-2.9,0.4C320.6,137.8,320.5,137.8,320.4,137.8z"/>
		<path class="st16" d="M321.1,144.3c0,0-1.5,2.9-2.9,4.3c0.8,0.9,2.4,0.6,2.4,0.6L321.1,144.3z"/>
		<path class="st13" d="M344.7,140.9c-1.3,8.5-1.7,12.1-6.4,16.2c-7,6.2-17.1,3.1-18.3-5.6c-1.1-7.8,1.2-20.4,9.8-23.3
			C338.4,125.5,346,132.4,344.7,140.9z"/>
		<path class="st10" d="M323.5,131.4c-1.7,3.4,1.7,9.6,3.9,12.2c-4,4.3-8,11.8-2.7,16.3c4.9,4.1,30.9,4,25.9-4.7
			c4.5-5.5-3-6.3,0.6-17c2.6-7.8-2.3-9.9-6.7-9.2C339.5,122.7,327.1,124.4,323.5,131.4z"/>
		<g>
			<path class="st2" d="M325.4,134.9c0,0,8,6.6,17.3,7.7c5,0.6,7.5,0.5,7.7-0.2s0.7-3.3,0.7-3.3L325.4,134.9z"/>
			<path class="st7" d="M318.6,133.2c2.4,1.9,20.9,7.2,33.3,6c0.1-0.7-0.3-0.8-0.3-0.8s2.9-9.6-3.7-13.2c-3.1-5.1-12.5-4.8-16.6-3.3
				l-0.6,0.7c0,0-8.1,1.9-8.2,8.6C319.3,131.6,315.9,131.1,318.6,133.2z"/>
			<path class="st15" d="M330.7,122.6l0.6-0.7c0,0,6.5-0.8,12,4C340.2,124,335,122.2,330.7,122.6z"/>
		</g>
		<path class="st13" d="M326.2,140.9c-1.8-0.2-3.5,2.3-4,4.2c-0.7,2.1,0.1,4,1.9,3.3c1.2-0.4,2.6-1.5,3.4-3.1
			C328.5,143.4,328,141.1,326.2,140.9z"/>
		<path class="st10" d="M351.4,402.2c5.1-0.9,5,1.7,5.3,4.6c0.2,1.6,0,3.5-0.8,5c-1.8,3.2-0.3,7.8-6,7.8s-6.2-1.3-4.7-4.2
			c1.5-2.8,2.3-5.8,3-9.1C348.6,404.7,349.1,402.6,351.4,402.2z"/>
		<path class="st10" d="M356.4,408.2c0,3.4,0.1,11.4,0.1,11.4h-0.9c0,0-0.8-8.5-1.3-10.7L356.4,408.2z"/>
		<path class="st10" d="M313.1,403.3c0.4,0.9,0.5,1.9,0.5,2.9c-0.2,3.6-1,13.2-1,13.2h-0.8c0,0,0.2-6.5-0.1-8.9
			c-0.3-2.4-1.5,1.8-3.1,4.2c-1.7,2.4-4.8,4.6-10.2,4.7c-6.3,0.2-8.9-0.1-7-1.6s6.1-2.6,6.1-2.6s4.8-1.8,8-7.1c2-3.5,5-5.1,6.6-5.9
			C312.5,402.3,312.9,402.8,313.1,403.3z"/>
	</g>
</g>
<g>
	<path class="st7" d="M96.7,69.5h13v4.4h-8.8l-0.5,2.9c0.6-0.3,1.2-0.5,1.8-0.6s1.2-0.2,1.8-0.2c2,0,3.6,0.6,4.8,1.8
		c1.2,1.2,1.8,2.7,1.8,4.5c0,1.3-0.3,2.5-0.9,3.7s-1.5,2.1-2.7,2.7s-2.6,0.9-4.4,0.9c-1.3,0-2.4-0.1-3.3-0.4s-1.7-0.6-2.4-1.1
		s-1.2-1-1.6-1.7c-0.4-0.6-0.7-1.4-1-2.3l5.5-0.6c0.1,0.9,0.4,1.6,0.9,2c0.5,0.5,1.1,0.7,1.8,0.7c0.8,0,1.4-0.3,1.9-0.9
		s0.8-1.4,0.8-2.6s-0.2-2-0.8-2.6s-1.2-0.8-2-0.8c-0.5,0-1,0.1-1.5,0.4c-0.4,0.2-0.8,0.5-1.2,1L95,80.1L96.7,69.5z"/>
	<path class="st7" d="M112.8,79.2c0-3.7,0.7-6.4,2-7.8s3.4-2.2,6.2-2.2c1.3,0,2.4,0.2,3.3,0.5c0.8,0.3,1.5,0.8,2.1,1.3
		c0.5,0.5,1,1.1,1.3,1.7c0.3,0.6,0.6,1.2,0.8,2c0.4,1.5,0.6,3,0.6,4.6c0,3.6-0.6,6.2-1.8,7.8c-1.2,1.7-3.3,2.5-6.2,2.5
		c-1.7,0-3-0.3-4-0.8s-1.9-1.3-2.5-2.3c-0.5-0.7-0.8-1.7-1.1-3C113,82.2,112.8,80.8,112.8,79.2z M118.3,79.3c0,2.5,0.2,4.2,0.7,5.1
		c0.4,0.9,1.1,1.4,1.9,1.4c0.6,0,1-0.2,1.4-0.6s0.7-1,0.9-1.8c0.2-0.8,0.3-2.2,0.3-3.9c0-2.6-0.2-4.4-0.7-5.3
		c-0.4-0.9-1.1-1.3-2-1.3s-1.6,0.5-2,1.4C118.5,75.1,118.3,76.8,118.3,79.3z"/>
	<path class="st7" d="M131.2,79.2c0-3.7,0.7-6.4,2-7.8s3.4-2.2,6.2-2.2c1.3,0,2.4,0.2,3.3,0.5c0.9,0.3,1.5,0.8,2.1,1.3
		c0.5,0.5,1,1.1,1.3,1.7s0.6,1.2,0.8,2c0.4,1.5,0.6,3,0.6,4.6c0,3.6-0.6,6.2-1.8,7.8c-1.2,1.7-3.3,2.5-6.2,2.5c-1.7,0-3-0.3-4-0.8
		s-1.9-1.3-2.5-2.3c-0.5-0.7-0.8-1.7-1.1-3C131.3,82.2,131.2,80.8,131.2,79.2z M136.6,79.3c0,2.5,0.2,4.2,0.7,5.1
		c0.4,0.9,1.1,1.4,1.9,1.4c0.6,0,1-0.2,1.4-0.6s0.7-1,0.9-1.8s0.3-2.2,0.3-3.9c0-2.6-0.2-4.4-0.7-5.3c-0.4-0.9-1.1-1.3-2-1.3
		s-1.6,0.5-2,1.4C136.8,75.1,136.6,76.8,136.6,79.3z"/>
</g>
<g>
	<path d="M160.1,89.2V69.5h2.6v19.7H160.1z"/>
	<path d="M167,89.2V74.9h2.2v2c1.1-1.6,2.6-2.3,4.5-2.3c0.9,0,1.6,0.2,2.4,0.5s1.3,0.7,1.6,1.2s0.6,1.1,0.8,1.8
		c0.1,0.4,0.1,1.2,0.1,2.3v8.8h-2.4v-8.7c0-1-0.1-1.7-0.3-2.2s-0.5-0.9-1-1.2s-1-0.4-1.7-0.4c-1,0-1.9,0.3-2.7,1s-1.1,1.9-1.1,3.7
		v7.8L167,89.2L167,89.2z"/>
	<path d="M187.6,87l0.4,2.1c-0.7,0.1-1.3,0.2-1.8,0.2c-0.9,0-1.6-0.1-2-0.4s-0.8-0.6-1-1.1s-0.3-1.4-0.3-2.8v-8.2H181v-1.9h1.8v-3.5
		l2.4-1.4v5h2.4v1.9h-2.4v8.3c0,0.7,0,1.1,0.1,1.3c0.1,0.2,0.2,0.3,0.4,0.5c0.2,0.1,0.5,0.2,0.8,0.2C186.8,87.1,187.1,87.1,187.6,87
		z"/>
	<path d="M199.7,84.6l2.5,0.3c-0.4,1.5-1.1,2.6-2.2,3.4c-1.1,0.8-2.4,1.2-4.1,1.2c-2.1,0-3.7-0.6-5-1.9c-1.2-1.3-1.8-3.1-1.8-5.4
		c0-2.4,0.6-4.3,1.9-5.6c1.2-1.3,2.8-2,4.8-2c1.9,0,3.5,0.7,4.7,1.9c1.2,1.3,1.8,3.1,1.8,5.5c0,0.1,0,0.4,0,0.6h-10.6
		c0.1,1.6,0.5,2.8,1.3,3.6s1.8,1.2,3,1.2c0.9,0,1.6-0.2,2.3-0.7C198.8,86.3,199.3,85.6,199.7,84.6z M191.8,80.7h8
		c-0.1-1.2-0.4-2.1-0.9-2.7c-0.8-0.9-1.8-1.4-3-1.4c-1.1,0-2,0.4-2.8,1.1C192.3,78.4,191.9,79.4,191.8,80.7z"/>
	<path d="M205.2,89.2V74.9h2.2v2.2c0.6-1,1.1-1.7,1.5-2c0.5-0.3,1-0.5,1.6-0.5c0.8,0,1.6,0.3,2.5,0.8l-0.8,2.2
		c-0.6-0.3-1.2-0.5-1.8-0.5c-0.5,0-1,0.2-1.4,0.5s-0.7,0.8-0.9,1.3c-0.3,0.9-0.4,1.8-0.4,2.8v7.5C207.7,89.2,205.2,89.2,205.2,89.2z
		"/>
	<path d="M214.4,89.2V74.9h2.2v2c1.1-1.6,2.6-2.3,4.5-2.3c0.9,0,1.6,0.2,2.4,0.5s1.3,0.7,1.6,1.2s0.6,1.1,0.8,1.8
		c0.1,0.4,0.1,1.2,0.1,2.3v8.8h-2.4v-8.7c0-1-0.1-1.7-0.3-2.2s-0.5-0.9-1-1.2s-1-0.4-1.7-0.4c-1,0-1.9,0.3-2.7,1s-1.1,1.9-1.1,3.7
		v7.8L214.4,89.2L214.4,89.2z"/>
	<path d="M239,87.4c-0.9,0.8-1.8,1.3-2.6,1.6c-0.8,0.3-1.7,0.5-2.7,0.5c-1.6,0-2.8-0.4-3.6-1.2c-0.8-0.8-1.3-1.7-1.3-2.9
		c0-0.7,0.2-1.3,0.5-1.9s0.7-1,1.2-1.4c0.5-0.3,1.1-0.6,1.7-0.8c0.5-0.1,1.2-0.2,2.1-0.4c1.9-0.2,3.4-0.5,4.3-0.8c0-0.3,0-0.5,0-0.6
		c0-1-0.2-1.7-0.7-2.1c-0.6-0.6-1.5-0.8-2.8-0.8c-1.1,0-2,0.2-2.5,0.6s-0.9,1.1-1.2,2.1L229,79c0.2-1,0.6-1.8,1.1-2.4
		s1.2-1.1,2.1-1.4c0.9-0.3,2-0.5,3.2-0.5s2.2,0.1,3,0.4s1.3,0.7,1.7,1.1s0.6,1,0.8,1.6C241,78.2,241,79,241,80v3.2
		c0,2.2,0.1,3.7,0.1,4.3c0.1,0.6,0.3,1.2,0.6,1.7h-2.5C239.2,88.7,239.1,88.1,239,87.4z M238.8,82c-0.9,0.4-2.2,0.7-3.9,0.9
		c-1,0.1-1.7,0.3-2.1,0.5s-0.7,0.4-0.9,0.8c-0.2,0.3-0.3,0.7-0.3,1.2c0,0.6,0.2,1.2,0.7,1.6s1.2,0.6,2.1,0.6c0.9,0,1.8-0.2,2.5-0.6
		s1.3-1,1.6-1.7c0.3-0.6,0.4-1.3,0.4-2.4L238.8,82L238.8,82z"/>
	<path d="M244.9,89.2V69.5h2.4v19.7H244.9z"/>
	<path d="M257.8,84.9l2.4-0.4c0.1,1,0.5,1.7,1.1,2.2s1.5,0.8,2.6,0.8s1.9-0.2,2.5-0.7s0.8-1,0.8-1.6s-0.2-1-0.7-1.3
		c-0.3-0.2-1.1-0.5-2.5-0.8c-1.8-0.4-3-0.8-3.7-1.2s-1.2-0.8-1.6-1.4s-0.5-1.2-0.5-1.9c0-0.6,0.1-1.2,0.4-1.8c0.3-0.5,0.7-1,1.2-1.3
		c0.4-0.3,0.9-0.5,1.5-0.7s1.3-0.3,2.1-0.3c1.1,0,2.1,0.2,3,0.5s1.5,0.8,1.9,1.3c0.4,0.6,0.7,1.3,0.8,2.2l-2.4,0.3
		c-0.1-0.7-0.4-1.3-0.9-1.7c-0.5-0.4-1.2-0.6-2.2-0.6c-1.1,0-1.9,0.2-2.4,0.6s-0.7,0.8-0.7,1.3c0,0.3,0.1,0.6,0.3,0.8
		c0.2,0.3,0.5,0.5,0.9,0.6c0.2,0.1,1,0.3,2.1,0.6c1.7,0.5,2.9,0.8,3.6,1.1s1.2,0.7,1.6,1.3c0.4,0.6,0.6,1.2,0.6,2.1
		c0,0.8-0.2,1.6-0.7,2.3c-0.5,0.7-1.1,1.3-2,1.7c-0.9,0.4-1.9,0.6-3,0.6c-1.9,0-3.3-0.4-4.2-1.2C258.6,87.6,258,86.4,257.8,84.9z"/>
	<path d="M282.2,84.6l2.5,0.3c-0.4,1.5-1.1,2.6-2.2,3.4s-2.4,1.2-4.1,1.2c-2.1,0-3.7-0.6-5-1.9c-1.2-1.3-1.8-3.1-1.8-5.4
		c0-2.4,0.6-4.3,1.9-5.6c1.2-1.3,2.8-2,4.8-2c1.9,0,3.5,0.7,4.7,1.9c1.2,1.3,1.8,3.1,1.8,5.5c0,0.1,0,0.4,0,0.6h-10.6
		c0.1,1.6,0.5,2.8,1.3,3.6s1.8,1.2,3,1.2c0.9,0,1.6-0.2,2.3-0.7C281.4,86.3,281.9,85.6,282.2,84.6z M274.3,80.7h8
		c-0.1-1.2-0.4-2.1-0.9-2.7c-0.8-0.9-1.8-1.4-3-1.4c-1.1,0-2,0.4-2.8,1.1C274.8,78.4,274.4,79.4,274.3,80.7z"/>
	<path d="M287.7,89.2V74.9h2.2v2.2c0.5-1,1.1-1.7,1.5-2s1-0.5,1.5-0.5c0.8,0,1.6,0.3,2.5,0.8l-0.8,2.2c-0.6-0.3-1.2-0.5-1.8-0.5
		c-0.5,0-1,0.2-1.4,0.5s-0.7,0.8-0.9,1.3c-0.3,0.9-0.4,1.8-0.4,2.8v7.5C290.1,89.2,287.7,89.2,287.7,89.2z"/>
	<path d="M300.9,89.2l-5.4-14.3h2.6l3.1,8.5c0.3,0.9,0.6,1.9,0.9,2.9c0.2-0.8,0.5-1.7,0.9-2.7l3.2-8.7h2.5l-5.4,14.3
		C303.1,89.2,300.9,89.2,300.9,89.2z"/>
	<path d="M320.4,84.6l2.5,0.3c-0.4,1.5-1.1,2.6-2.2,3.4s-2.4,1.2-4.1,1.2c-2.1,0-3.7-0.6-5-1.9c-1.2-1.3-1.8-3.1-1.8-5.4
		c0-2.4,0.6-4.3,1.9-5.6c1.2-1.3,2.8-2,4.8-2c1.9,0,3.5,0.7,4.7,1.9c1.2,1.3,1.8,3.1,1.8,5.5c0,0.1,0,0.4,0,0.6h-10.6
		c0.1,1.6,0.5,2.8,1.3,3.6s1.8,1.2,3,1.2c0.9,0,1.6-0.2,2.3-0.7C319.5,86.3,320,85.6,320.4,84.6z M312.5,80.7h8
		c-0.1-1.2-0.4-2.1-0.9-2.7c-0.8-0.9-1.8-1.4-3-1.4c-1.1,0-2,0.4-2.8,1.1C313,78.4,312.6,79.4,312.5,80.7z"/>
	<path d="M325.9,89.2V74.9h2.2v2.2c0.5-1,1.1-1.7,1.5-2s1-0.5,1.5-0.5c0.8,0,1.6,0.3,2.5,0.8l-0.8,2.2c-0.6-0.3-1.2-0.5-1.8-0.5
		c-0.5,0-1,0.2-1.4,0.5s-0.7,0.8-0.9,1.3c-0.3,0.9-0.4,1.8-0.4,2.8v7.5C328.3,89.2,325.9,89.2,325.9,89.2z"/>
	<path d="M352.5,84.6l2.5,0.3c-0.4,1.5-1.1,2.6-2.2,3.4s-2.4,1.2-4.1,1.2c-2.1,0-3.7-0.6-5-1.9c-1.2-1.3-1.8-3.1-1.8-5.4
		c0-2.4,0.6-4.3,1.9-5.6c1.2-1.3,2.8-2,4.8-2c1.9,0,3.5,0.7,4.7,1.9c1.2,1.3,1.8,3.1,1.8,5.5c0,0.1,0,0.4,0,0.6h-10.6
		c0.1,1.6,0.5,2.8,1.3,3.6s1.8,1.2,3,1.2c0.9,0,1.6-0.2,2.3-0.7C351.6,86.3,352.1,85.6,352.5,84.6z M344.6,80.7h8
		c-0.1-1.2-0.4-2.1-0.9-2.7c-0.8-0.9-1.8-1.4-3-1.4c-1.1,0-2,0.4-2.8,1.1C345.1,78.4,344.6,79.4,344.6,80.7z"/>
	<path d="M358,89.2V74.9h2.2v2.2c0.5-1,1.1-1.7,1.5-2s1-0.5,1.5-0.5c0.8,0,1.6,0.3,2.5,0.8l-0.8,2.2c-0.6-0.3-1.2-0.5-1.8-0.5
		c-0.5,0-1,0.2-1.4,0.5s-0.7,0.8-0.9,1.3c-0.3,0.9-0.4,1.8-0.4,2.8v7.5C360.4,89.2,358,89.2,358,89.2z"/>
	<path d="M367.2,89.2V74.9h2.2v2.2c0.5-1,1.1-1.7,1.5-2s1-0.5,1.5-0.5c0.8,0,1.6,0.3,2.5,0.8l-0.8,2.2c-0.6-0.3-1.2-0.5-1.8-0.5
		c-0.5,0-1,0.2-1.4,0.5s-0.7,0.8-0.9,1.3c-0.3,0.9-0.4,1.8-0.4,2.8v7.5C369.6,89.2,367.2,89.2,367.2,89.2z"/>
	<path d="M375.5,82.1c0-2.6,0.7-4.6,2.2-5.9c1.2-1.1,2.7-1.6,4.5-1.6c2,0,3.6,0.6,4.8,1.9c1.2,1.3,1.9,3.1,1.9,5.3
		c0,1.8-0.3,3.3-0.8,4.3s-1.4,1.9-2.4,2.4c-1,0.6-2.2,0.9-3.4,0.9c-2,0-3.6-0.6-4.8-1.9C376.1,86.3,375.5,84.5,375.5,82.1z
		 M377.9,82.1c0,1.8,0.4,3.2,1.2,4.1c0.8,0.9,1.8,1.4,3,1.4s2.2-0.5,3-1.4s1.2-2.3,1.2-4.2c0-1.8-0.4-3.1-1.2-4
		c-0.8-0.9-1.8-1.4-3-1.4s-2.2,0.4-3,1.4C378.3,78.9,377.9,80.2,377.9,82.1z"/>
	<path d="M391.6,89.2V74.9h2.2v2.2c0.5-1,1.1-1.7,1.5-2s1-0.5,1.5-0.5c0.8,0,1.6,0.3,2.5,0.8l-0.8,2.2c-0.6-0.3-1.2-0.5-1.8-0.5
		c-0.5,0-1,0.2-1.4,0.5s-0.7,0.8-0.9,1.3c-0.3,0.9-0.4,1.8-0.4,2.8v7.5C394,89.2,391.6,89.2,391.6,89.2z"/>
</g>
</svg>
