<?xml version="1.0" encoding="utf-8"?>
<svg fill="none" height="48" viewBox="0 0 49 48" width="49" xmlns="http://www.w3.org/2000/svg">
  <defs/>
  <path d="m24.5 48c13.2548 0 24-10.7452 24-24s-10.7452-24-24-24-24 10.7452-24 24 10.7452 24 24 24z" fill="#3056d3"/>
  <path style="fill-rule: evenodd; clip-rule: evenodd; fill: rgb(255, 255, 255);" d="M 26.628 34.698 L 36.901 34.698 C 41.277 34.698 44.853 31.119 44.853 26.743 C 44.853 23.696 42.865 20.579 40.147 19.255 L 39.75 19.055 L 39.75 18.592 C 39.75 18.524 39.75 18.392 39.75 18.325 L 39.684 18.193 L 39.75 18.058 C 39.75 17.993 39.75 17.928 39.75 17.863 C 39.75 15.078 37.43 12.757 34.647 12.757 C 34.382 12.757 34.183 12.757 33.986 12.824 C 33.919 12.824 33.852 12.824 33.786 12.824 C 33.588 12.889 33.39 12.889 33.192 12.956 C 33.192 12.956 33.192 12.956 33.124 13.024 C 32.922 13.024 32.724 13.156 32.525 13.223 C 32.46 13.223 32.392 13.288 32.392 13.288 C 32.195 13.421 31.996 13.488 31.864 13.62 C 31.665 13.754 31.466 13.886 31.268 14.016 C 31.929 15.278 32.392 16.67 32.592 18.325 L 36.569 18.325 L 29.677 25.287 L 22.718 18.392 L 26.76 18.325 C 26.76 14.016 25.565 10.902 22.915 8.515 C 22.45 8.448 21.922 8.383 21.39 8.383 C 15.888 8.383 11.317 12.625 10.654 18.128 C 10.587 18.26 10.587 18.392 10.587 18.524 C 10.587 18.592 10.587 18.659 10.587 18.725 C 10.587 19.188 10.654 19.584 10.787 19.983 C 10.322 19.983 9.988 20.05 9.923 20.05 C 6.544 20.712 3.959 23.828 3.959 27.339 C 3.959 31.383 7.273 34.698 11.317 34.698 L 20.925 34.698 C 19.137 32.975 17.812 30.588 17.346 27.339 L 13.372 27.406 L 20.264 20.446 L 27.223 27.339 L 23.179 27.339 C 23.179 30.259 23.778 32.71 24.969 34.698 L 26.628 34.698 Z"/>
</svg>