<?xml version="1.0" encoding="utf-8"?>
<svg width="132" height="46" viewBox="0 0 132 46" fill="none" xmlns="http://www.w3.org/2000/svg">
  <g transform="matrix(1, 0, 0, 1, -0.231847, 0.309135)">
    <text style="fill: rgb(255, 255, 255); font-family: Verdana; font-size: 17px; font-weight: 700; white-space: pre; opacity: 0.9;" transform="matrix(1.053066, 0, 0, 1.053066, 4.819104, 0.186143)"><tspan x="37.347" y="19.4">Cloudy</tspan><tspan x="37.347" dy="1em">​</tspan><tspan>Contacts</tspan></text>
  </g>
  <path d="M16.7273 39.309C25.9655 39.309 33.4545 31.82 33.4545 22.5818C33.4545 13.3435 25.9655 5.85449 16.7273 5.85449C7.48905 5.85449 0 13.3435 0 22.5818C0 31.82 7.48905 39.309 16.7273 39.309Z" clip-path="url(#clip0_2151_1148)" style="fill: rgb(255, 255, 255);"/>
  <defs>
    <clipPath id="clip0_2151_1148">
      <rect width="131.309" height="46" fill="white"/>
    </clipPath>
  </defs>
  <path style="fill-rule: evenodd; clip-rule: evenodd; fill: rgb(55, 88, 249);" d="M 18.027 30.051 L 24.794 30.051 C 27.677 30.051 30.033 27.693 30.033 24.81 C 30.033 22.803 28.723 20.749 26.933 19.877 L 26.671 19.745 L 26.671 19.44 C 26.671 19.396 26.671 19.309 26.671 19.265 L 26.628 19.178 L 26.671 19.089 C 26.671 19.046 26.671 19.003 26.671 18.96 C 26.671 17.125 25.143 15.597 23.31 15.597 C 23.135 15.597 23.004 15.597 22.874 15.641 C 22.83 15.641 22.786 15.641 22.742 15.641 C 22.612 15.684 22.481 15.684 22.351 15.728 C 22.351 15.728 22.351 15.728 22.306 15.772 C 22.173 15.772 22.043 15.859 21.912 15.903 C 21.869 15.903 21.824 15.946 21.824 15.946 C 21.694 16.034 21.563 16.078 21.476 16.165 C 21.345 16.253 21.214 16.34 21.083 16.426 C 21.519 17.257 21.824 18.174 21.956 19.265 L 24.576 19.265 L 20.035 23.851 L 15.451 19.309 L 18.114 19.265 C 18.114 16.426 17.327 14.375 15.581 12.802 C 15.274 12.758 14.926 12.715 14.576 12.715 C 10.952 12.715 7.94 15.51 7.503 19.135 C 7.459 19.222 7.459 19.309 7.459 19.396 C 7.459 19.44 7.459 19.484 7.459 19.528 C 7.459 19.833 7.503 20.094 7.591 20.357 C 7.285 20.357 7.065 20.401 7.022 20.401 C 4.796 20.837 3.093 22.89 3.093 25.203 C 3.093 27.867 5.276 30.051 7.94 30.051 L 14.27 30.051 C 13.092 28.916 12.219 27.343 11.912 25.203 L 9.294 25.247 L 13.834 20.662 L 18.419 25.203 L 15.755 25.203 C 15.755 27.126 16.149 28.741 16.934 30.051 L 18.027 30.051 Z"/>
</svg>