<?xml version="1.0" encoding="iso-8859-1"?>
<!-- Uploaded to: SVG Repo, www.svgrepo.com, Generator: SVG Repo Mixer Tools -->
<svg fill="#000000" height="800px" width="800px" version="1.1" id="Layer_1" xmlns="http://www.w3.org/2000/svg" xmlns:xlink="http://www.w3.org/1999/xlink" 
	 viewBox="0 0 503.607 503.607" xml:space="preserve">
<g>
	<g>
		<g>
			<path d="M198.975,422.125l-33.565-33.565c-3.282-3.282-8.587-3.282-11.868,0c-3.282,3.273-3.282,8.586,0,11.868l19.246,19.246
				H25.18c-4.642,0-8.393,3.752-8.393,8.393c0,4.642,3.752,8.393,8.393,8.393h147.607l-19.246,19.246
				c-3.282,3.273-3.282,8.586,0,11.868c1.637,1.637,3.785,2.459,5.934,2.459s4.297-0.823,5.934-2.459l33.565-33.565
				c0.772-0.772,1.393-1.704,1.821-2.736c0.848-2.056,0.848-4.365,0-6.413C200.368,423.829,199.747,422.897,198.975,422.125z"/>
			<path d="M304.632,98.27l33.565,33.565c1.637,1.637,3.785,2.459,5.934,2.459c2.149,0,4.297-0.823,5.934-2.459
				c3.282-3.282,3.282-8.586,0-11.868l-19.246-19.246h147.607c4.642,0,8.393-3.752,8.393-8.393c0-4.642-3.752-8.393-8.393-8.393
				H330.819l19.246-19.246c3.282-3.282,3.282-8.586,0-11.868c-3.282-3.282-8.586-3.282-11.868,0l-33.565,33.565
				c-0.781,0.772-1.393,1.704-1.821,2.736c-0.848,2.048-0.848,4.365,0,6.413C303.238,96.567,303.851,97.498,304.632,98.27z"/>
			<path d="M260.197,205.639V79.738c0-11.575-9.409-20.984-20.984-20.984h-4.197v-12.59c0-11.575-9.409-20.984-20.984-20.984
				h-63.211L132.356,3.013C130.753,1.108,128.394,0,125.902,0H37.77C26.196,0,16.787,9.409,16.787,20.984v38.199
				C7.218,61.129,0,69.598,0,79.738v125.902c0,11.575,9.409,20.984,20.984,20.984h218.229
				C250.788,226.623,260.197,217.214,260.197,205.639z M92.328,142.689H41.967c-4.642,0-8.393-3.752-8.393-8.393
				c0-4.642,3.752-8.393,8.393-8.393h50.361c4.642,0,8.393,3.752,8.393,8.393C100.721,138.937,96.969,142.689,92.328,142.689z
				 M92.328,109.115H41.967c-4.642,0-8.393-3.752-8.393-8.393c0-4.642,3.752-8.393,8.393-8.393h50.361
				c4.642,0,8.393,3.752,8.393,8.393C100.721,105.363,96.969,109.115,92.328,109.115z M218.229,58.754H33.574V20.984
				c0-2.308,1.888-4.197,4.197-4.197h84.195l18.466,22.167c1.603,1.905,3.962,3.013,6.455,3.013h67.148
				c2.308,0,4.197,1.888,4.197,4.197V58.754z"/>
			<path d="M482.623,335.738h-4.197v-12.59c0-11.575-9.409-20.984-20.984-20.984h-63.211l-18.466-22.167
				c-1.603-1.905-3.962-3.013-6.455-3.013H281.18c-11.575,0-20.984,9.409-20.984,20.984v38.199
				c-9.569,1.947-16.787,10.416-16.787,20.556v125.902c0,11.575,9.409,20.984,20.984,20.984h218.229
				c11.575,0,20.984-9.409,20.984-20.984V356.721C503.607,345.147,494.198,335.738,482.623,335.738z M335.738,419.672h-50.361
				c-4.642,0-8.393-3.752-8.393-8.393c0-4.642,3.752-8.393,8.393-8.393h50.361c4.642,0,8.393,3.752,8.393,8.393
				C344.131,415.92,340.379,419.672,335.738,419.672z M335.738,386.098h-50.361c-4.642,0-8.393-3.752-8.393-8.393
				c0-4.642,3.752-8.393,8.393-8.393h50.361c4.642,0,8.393,3.752,8.393,8.393C344.131,382.346,340.379,386.098,335.738,386.098z
				 M461.639,335.738H276.984v-37.771c0-2.308,1.889-4.197,4.197-4.197h84.195l18.466,22.167c1.603,1.905,3.962,3.013,6.455,3.013
				h67.148c2.308,0,4.197,1.889,4.197,4.197V335.738z"/>
		</g>
	</g>
</g>
</svg>